<svg xmlns="http://www.w3.org/2000/svg" viewBox="0 0 257.22 95.1"><defs><style>.cls-1{fill:#010334;}</style></defs><g id="レイヤー_2" data-name="レイヤー 2"><g id="Logo"><path class="cls-1" d="M57.18,38.78c-1.43,6.51-4,11.3-9.26,15.16a30.39,30.39,0,0,1-18.63,5.74H25.92V70.43h3.37a41.64,41.64,0,0,0,25.52-8.19C62.07,56.81,66.68,47,68.07,38.36l.26-1.69H57.53Z"/><path class="cls-1" d="M97.53,54.37c-5,3.57-11.21,5.26-18.26,5.26H75.91v10.8h3.36a46,46,0,0,0,25.16-7.29c6.44-4.33,12.12-12,15.24-23.33l.44-1.54H109S107.26,47.36,97.53,54.37Z"/><polygon class="cls-1" points="136.14 24.27 125.72 24.27 125.72 70.84 136.14 70.84 136.14 50.81 157.57 50.81 157.57 41.18 136.14 41.18 136.14 24.27"/><path class="cls-1" d="M186.43,29.92h-9.12v7.75h-12.5V54.55h9V46.62h15.85c0,5.77-5.51,12.84-13.36,15.59l-2.63.92,2.88,8.48,2.68-.94C192.35,66.07,199,56.48,199,42.18V37.67H186.43Z"/><rect class="cls-1" x="204.15" y="43.55" width="27.15" height="9.63"/><rect class="cls-1" x="51.53" y="24.72" width="7.96" height="8.52"/><rect class="cls-1" x="62.22" y="24.72" width="7.96" height="8.52"/><rect class="cls-1" x="142.97" y="24.72" width="7.96" height="8.52"/><rect class="cls-1" x="153.66" y="24.72" width="7.96" height="8.52"/><rect class="cls-1" x="25.92" y="27.96" width="19.65" height="8.51"/><rect class="cls-1" x="25.92" y="40.85" width="19.25" height="8.34"/><rect class="cls-1" x="75.91" y="28.06" width="21.65" height="9.63"/><path class="cls-1" d="M250.89,6.34V88.77H6.34V6.34H250.89M257.22,0H0V95.1H257.22V0Z"/></g></g></svg>