<?xml version="1.0" encoding="utf-8"?>
<!-- Generator: Adobe Illustrator 16.0.4, SVG Export Plug-In . SVG Version: 6.00 Build 0)  -->
<!DOCTYPE svg PUBLIC "-//W3C//DTD SVG 1.1//EN" "http://www.w3.org/Graphics/SVG/1.1/DTD/svg11.dtd">
<svg version="1.1" id="レイヤー_1" xmlns="http://www.w3.org/2000/svg" xmlns:xlink="http://www.w3.org/1999/xlink" x="0px"
	 y="0px" width="223.486px" height="67.367px" viewBox="0 0 223.486 67.367" enable-background="new 0 0 223.486 67.367"
	 xml:space="preserve">
<g>
	<g>
		<g>
			<path fill="#DF2625" d="M157.365,13.146h-11.89c-0.329,0-0.599,0.27-0.599,0.599v6.878c0,0.329,0.27,0.599,0.599,0.599h11.89
				c0.329,0,0.599-0.27,0.599-0.599v-6.878C157.964,13.416,157.694,13.146,157.365,13.146z"/>
			<path fill="#DF2625" d="M157.143,23.394h-22.799c-0.33,0-0.668,0.26-0.75,0.579l-2.928,11.203l0,0l-0.15,0.579l-3.561-11.9
				c-0.095-0.315-0.44-0.573-0.771-0.573h-8.882c-0.329,0-0.677,0.259-0.771,0.574L113.2,35.07l0,0l-0.17,0.574l-0.147-0.58l0,0
				l-1.411-5.546l-1.411-5.546c-0.081-0.318-0.417-0.579-0.746-0.579H91.39v-9.648c0-0.329-0.423-0.665-0.789-0.535l-11.253,3.514
				c-0.339,0.11-0.6,0.269-0.6,0.598v6.072h-2.965c-0.329,0-0.599,0.269-0.599,0.599v8.548c0,0.329,0.27,0.599,0.599,0.599h2.965
				v10.469c0,7.406,4.01,10.857,11.473,10.857c3.062,0,6.068-0.668,8.073-1.727v-0.598c0,0,0-6.334,0-8.373
				c0-0.455-0.38-0.586-0.633-0.477c-1.196,0.518-2.155,0.648-3.21,0.648c-2.005,0-3.062-0.836-3.062-3.119v-7.684h6.418
				c0.329,0,0.599-0.27,0.599-0.599v-7.218l8.438,28.125c0.096,0.315,0.441,0.574,0.771,0.574h9.328c0.329,0,0.681-0.258,0.781-0.57
				l3.992-12.46l2.032,6.515l1.854,5.944c0.099,0.313,0.446,0.571,0.775,0.571h9.385c0.328,0,0.677-0.259,0.771-0.572l8.564-28.206
				v28.19c0,0.329,0.27,0.6,0.599,0.6h11.443c0.328,0,0.599-0.271,0.599-0.6V23.992C157.741,23.662,157.472,23.394,157.143,23.394z"
				/>
			<path fill="#DF2625" d="M172.203,13.146H160.76c-0.328,0-0.599,0.27-0.599,0.599v39.688c0,0.328,0.271,0.599,0.599,0.599h11.443
				c0.33,0,0.599-0.271,0.599-0.599V13.745C172.802,13.416,172.533,13.146,172.203,13.146z"/>
			<path fill="#DF2625" d="M187.475,13.146h-11.891c-0.329,0-0.598,0.27-0.598,0.599v6.878c0,0.329,0.269,0.599,0.598,0.599h11.891
				c0.329,0,0.599-0.27,0.599-0.599v-6.878C188.073,13.416,187.804,13.146,187.475,13.146z"/>
			<path fill="#DF2625" d="M187.252,23.394h-11.442c-0.33,0-0.6,0.269-0.6,0.599v29.44c0,0.33,0.27,0.6,0.6,0.6h11.442
				c0.329,0,0.6-0.27,0.6-0.6V23.992C187.851,23.662,187.581,23.394,187.252,23.394z"/>
			<path fill="#DF2625" d="M206.188,22.669c-10.023,0-17.151,7.351-17.151,15.927v0.111c0,8.575,7.072,15.814,17.04,15.814
				c10.023,0,17.151-7.352,17.151-15.926v-0.111C223.229,29.908,216.156,22.669,206.188,22.669z M211.089,38.707
				c0,2.896-2.061,5.29-4.899,5.29c-2.784,0-5.012-2.396-5.012-5.401v-0.111c0-2.896,2.06-5.291,4.899-5.291
				c2.784,0,5.012,2.395,5.012,5.402V38.707z"/>
		</g>
		<g>
			<path fill="#DF2625" d="M33.587,0C15.037,0,0,15.038,0,33.587c0,18.55,15.037,33.587,33.587,33.587s33.587-15.037,33.587-33.587
				C67.174,15.038,52.136,0,33.587,0z M33.587,58.322c-13.661,0-24.734-11.074-24.734-24.735c0-13.66,11.073-24.735,24.734-24.735
				c13.66,0,24.734,11.075,24.734,24.735C58.321,47.248,47.247,58.322,33.587,58.322z"/>
			<circle fill="#DF2625" cx="41.951" cy="25.223" r="6.983"/>
			<circle fill="#DF2625" cx="41.951" cy="41.952" r="6.983"/>
			<circle fill="#DF2625" cx="25.222" cy="41.952" r="6.984"/>
			<circle fill="#DF2625" cx="25.222" cy="25.223" r="6.984"/>
		</g>
	</g>
	<g>
		<g>
			<g>
				<path fill="#DF2625" d="M157.365,13.146h-11.89c-0.329,0-0.599,0.27-0.599,0.599v6.878c0,0.329,0.27,0.599,0.599,0.599h11.89
					c0.329,0,0.599-0.27,0.599-0.599v-6.878C157.964,13.416,157.694,13.146,157.365,13.146z"/>
			</g>
			<g>
				<path fill="#DF2625" d="M157.143,23.394h-22.799c-0.33,0-0.668,0.26-0.75,0.579l-2.928,11.203l0,0l-0.15,0.579l-3.561-11.9
					c-0.095-0.315-0.44-0.573-0.771-0.573h-8.882c-0.329,0-0.677,0.259-0.771,0.574L113.2,35.07l0,0l-0.17,0.574l-0.147-0.58l0,0
					l-1.411-5.546l-1.411-5.546c-0.081-0.318-0.417-0.579-0.746-0.579H91.39v-9.648c0-0.329-0.423-0.665-0.789-0.535l-11.253,3.514
					c-0.339,0.11-0.6,0.269-0.6,0.598v6.072h-2.965c-0.329,0-0.599,0.269-0.599,0.599v8.548c0,0.329,0.27,0.599,0.599,0.599h2.965
					v10.469c0,7.406,4.01,10.857,11.473,10.857c3.062,0,6.068-0.668,8.073-1.727v-0.598c0,0,0-6.334,0-8.373
					c0-0.455-0.38-0.586-0.633-0.477c-1.196,0.518-2.155,0.648-3.21,0.648c-2.005,0-3.062-0.836-3.062-3.119v-7.684h6.418
					c0.329,0,0.599-0.27,0.599-0.599v-7.218l8.438,28.125c0.096,0.315,0.441,0.574,0.771,0.574h9.328
					c0.329,0,0.681-0.258,0.781-0.57l3.992-12.46l2.032,6.515l1.854,5.944c0.099,0.313,0.446,0.571,0.775,0.571h9.385
					c0.328,0,0.677-0.259,0.771-0.572l8.564-28.206v28.19c0,0.329,0.27,0.6,0.599,0.6h11.443c0.328,0,0.599-0.271,0.599-0.6V23.992
					C157.741,23.662,157.472,23.394,157.143,23.394z"/>
			</g>
			<g>
				<path fill="#DF2625" d="M172.203,13.146H160.76c-0.328,0-0.599,0.27-0.599,0.599v39.688c0,0.328,0.271,0.599,0.599,0.599h11.443
					c0.33,0,0.599-0.271,0.599-0.599V13.745C172.802,13.416,172.533,13.146,172.203,13.146z"/>
			</g>
			<g>
				<path fill="#DF2625" d="M187.475,13.146h-11.891c-0.329,0-0.598,0.27-0.598,0.599v6.878c0,0.329,0.269,0.599,0.598,0.599h11.891
					c0.329,0,0.599-0.27,0.599-0.599v-6.878C188.073,13.416,187.804,13.146,187.475,13.146z"/>
			</g>
			<g>
				<path fill="#DF2625" d="M187.252,23.394h-11.442c-0.33,0-0.6,0.269-0.6,0.599v29.44c0,0.33,0.27,0.6,0.6,0.6h11.442
					c0.329,0,0.6-0.27,0.6-0.6V23.992C187.851,23.662,187.581,23.394,187.252,23.394z"/>
			</g>
			<g>
				<path fill="#DF2625" d="M206.188,22.669c-10.023,0-17.151,7.351-17.151,15.927v0.111c0,8.575,7.072,15.814,17.04,15.814
					c10.023,0,17.151-7.352,17.151-15.926v-0.111C223.229,29.908,216.156,22.669,206.188,22.669z M211.089,38.707
					c0,2.896-2.061,5.29-4.899,5.29c-2.784,0-5.012-2.396-5.012-5.401v-0.111c0-2.896,2.06-5.291,4.899-5.291
					c2.784,0,5.012,2.395,5.012,5.402V38.707z"/>
			</g>
		</g>
		<g>
			<g>
				<path fill="#DF2625" d="M33.587,0C15.037,0,0,15.038,0,33.587c0,18.55,15.037,33.587,33.587,33.587s33.587-15.037,33.587-33.587
					C67.174,15.038,52.136,0,33.587,0z M33.587,58.322c-13.661,0-24.734-11.074-24.734-24.735c0-13.66,11.073-24.735,24.734-24.735
					c13.66,0,24.734,11.075,24.734,24.735C58.321,47.248,47.247,58.322,33.587,58.322z"/>
			</g>
			<g>
				<circle fill="#DF2625" cx="41.951" cy="25.223" r="6.983"/>
			</g>
			<g>
				<circle fill="#DF2625" cx="41.951" cy="41.952" r="6.983"/>
			</g>
			<g>
				<circle fill="#DF2625" cx="25.222" cy="41.952" r="6.984"/>
			</g>
			<g>
				<circle fill="#DF2625" cx="25.222" cy="25.223" r="6.984"/>
			</g>
		</g>
	</g>
</g>
</svg>
