<svg xmlns="http://www.w3.org/2000/svg" xmlns:xlink="http://www.w3.org/1999/xlink" viewBox="0 0 768.22 420.59"><defs><style>.cls-1,.cls-12,.cls-13,.cls-4,.cls-6,.cls-9{fill:none;}.cls-15,.cls-2,.cls-5{fill:#fbd6b4;}.cls-3,.cls-7{fill:#ed6c00;}.cls-12,.cls-13,.cls-14,.cls-4,.cls-5,.cls-6,.cls-7,.cls-9{stroke:#ed6c00;}.cls-12,.cls-13,.cls-14,.cls-15,.cls-4,.cls-5,.cls-6,.cls-7,.cls-9{stroke-linecap:round;stroke-linejoin:round;}.cls-4{stroke-width:20.29px;}.cls-5,.cls-6{stroke-width:10.15px;}.cls-12,.cls-7{stroke-width:3.58px;}.cls-14,.cls-8{fill:#fff;}.cls-9{stroke-width:5.07px;}.cls-10{clip-path:url(#clip-path);}.cls-11{fill:#fcdec1;}.cls-13{stroke-width:7.01px;}.cls-14{stroke-width:10.15px;}.cls-15{stroke:#fbd6b4;stroke-width:5.07px;}</style><clipPath id="clip-path"><path class="cls-1" d="M678.41,60.51S729,114,718.87,160.21s-65.74,47-102.59,47-83.09-7.22-88.15-47,15.18-66.47,30.35-91Z"/></clipPath></defs><g id="レイヤー_2" data-name="レイヤー 2"><g id="レイヤー_2-2" data-name="レイヤー 2"><ellipse class="cls-2" cx="604" cy="406" rx="97.22" ry="14.6"/><path class="cls-3" d="M288.06,211.15V187.63a2.44,2.44,0,0,0-2.73-2.73h-6.07a.58.58,0,0,1-.63-.62v-9.11a.58.58,0,0,1,.63-.63h6.07a2.43,2.43,0,0,0,2.73-2.72V159.28a.57.57,0,0,1,.62-.62h9.66a.57.57,0,0,1,.62.62v12.54a2.43,2.43,0,0,0,2.73,2.72H313c4.75,0,9,2,11.53,5.85a13.43,13.43,0,0,1,.62,12.85c-1.56,3.27-3.27,6.7-4,8-.24.39-.47.47-.86.23L311.73,197a.6.6,0,0,1-.31-.86c.63-1.25,2.34-4.6,3.74-7.63a2.44,2.44,0,0,0-.08-2.42,2.26,2.26,0,0,0-2.1-1.17H301.69a2.44,2.44,0,0,0-2.73,2.73v23.52a.58.58,0,0,1-.62.63h-9.66A.58.58,0,0,1,288.06,211.15Zm32.09-47.8v9.48a.58.58,0,0,1-.63.62c-7.94-.15-13.16-2.88-17.91-8.79-.31-.4-.16-.55,6.46-7.17.32-.32.55-.16.86.23a16.3,16.3,0,0,0,6.31,4.6A23.41,23.41,0,0,0,320.15,163.35Z"/><path class="cls-3" d="M273.09,156.24H251.28a2.8,2.8,0,0,1-3.12-3.11v-6.55c0-.54-.23-.77-.78-.77H236.87a.73.73,0,0,0-.78.77v6.55a2.79,2.79,0,0,1-3.11,3.11h-8.8a.7.7,0,0,0-.78.78v9.89a.7.7,0,0,0,.78.78H233a2.8,2.8,0,0,1,3.11,3.12v19a.73.73,0,0,0,.78.78h21.26a2.48,2.48,0,0,1,2.5,1.56,3.15,3.15,0,0,1-.86,3.66c-2.7,2.65-5.08,4.85-7,6.65-2.12,2-4,3.81-5.59,5.25l7.24,8.19.15.16c.39.23.7.31.94,0,.07,0,.07-.08.15-.16,1.64-1.32,6.15-5.29,12.54-11.6A14.89,14.89,0,0,0,271.69,188c-2.26-5.45-7.25-8.41-13.4-8.41h-6.93a2.8,2.8,0,0,1-3.12-3.12v-5.68c0-2,1-3.12,3-3.12h21.81c.54,0,.78-.23.78-.78V157C273.87,156.48,273.63,156.24,273.09,156.24Z"/><path class="cls-3" d="M358.89,154.41l-10-3.83-1.45,3.77a1.6,1.6,0,0,1-.05.21l-20.95,54.3c-.22.44-.07.74.38,1l9.36,3.56c.44.22.74.07,1-.37l22.14-57.64C359.48,154.93,359.33,154.63,358.89,154.41Z"/><path class="cls-3" d="M383.55,208.78l-2.75-9.21c-.15-.52-.45-.66-1-.52-1.41.45-4.9,1.41-9.51,2.68a4.54,4.54,0,0,1-3.86-.45,4.36,4.36,0,0,1-1.41-3.49V184.42a.66.66,0,0,0-.74-.74h-10a.66.66,0,0,0-.74.74v13.15a15.53,15.53,0,0,0,5.94,12.55,14.66,14.66,0,0,0,9.07,3,17.11,17.11,0,0,0,4.67-.67c5-1.34,8.4-2.38,9.81-2.82A.63.63,0,0,0,383.55,208.78Z"/><line class="cls-4" x1="646.64" y1="329.8" x2="646.64" y2="389.04"/><path class="cls-3" d="M656.78,385.85a4.33,4.33,0,0,0,4.59,4.58h7.8a2.25,2.25,0,0,1,2.44,2.44v10.68a2.25,2.25,0,0,1-2.44,2.45H639.55a2.75,2.75,0,0,1-3.06-3.06V383.45"/><line class="cls-4" x1="594.54" y1="329.16" x2="565.05" y2="380.53"/><path class="cls-3" d="M576.63,380.74l-9.71,16.9a2.74,2.74,0,0,1-4.17,1.13L537.07,384a2.24,2.24,0,0,1-.9-3.33l5.31-9.26a2.25,2.25,0,0,1,3.34-.91l6.76,3.89a4.33,4.33,0,0,0,6.26-1.69"/><path class="cls-3" d="M709,242.29a4.32,4.32,0,0,0,4.36,4.79l7.79.38a2.25,2.25,0,0,1,2.32,2.56L723,260.68a2.25,2.25,0,0,1-2.55,2.33l-29.59-1.42a2.75,2.75,0,0,1-2.91-3.2l.94-19.47"/><path class="cls-3" d="M701.52,254a21.12,21.12,0,0,1-3.25,1.18l-.22,0c-5.6-.36-8.41-7.93-8.41-7.93a17.07,17.07,0,0,1-.86-5.89l1-15.29a3.09,3.09,0,0,0-2.84-3.26l-8.6-.63a17.11,17.11,0,0,1-5.72-1.66s-7.1-3.83-6.7-9.42,8-8.34,8-8.34a17.13,17.13,0,0,1,5.9-.82l28.69,2.1a3.08,3.08,0,0,1,2.83,3.26L709,242.61a18.07,18.07,0,0,1-1.57,5.76Z"/><path class="cls-3" d="M527.34,231.79a2.84,2.84,0,0,1-3.71-1.91l-14.31-49.52a3.05,3.05,0,0,1,2.08-3.77l13.65-4a3.06,3.06,0,0,1,3.77,2.08l8.33,28.85a2.85,2.85,0,0,0,3.72,1.9L567.74,196a3.06,3.06,0,0,1,3.89,1.86l4.74,13.39a3.06,3.06,0,0,1-1.86,3.88Z"/><path class="cls-5" d="M591.25,186.72c-24.1,30.18-59.48,83.55-82,145,0,0,27.53-15.68,41.81-7.45s15.45,18.41,34.93,19.27,20.67-14.73,40.15-13.87,20,14.83,40.28,15.73,18.12-19.17,31-24.31c6.6-2.63,26.77,5.75,26.77,5.75s-27-72.23-72.85-140.1Z"/><line class="cls-6" x1="609.62" y1="206.94" x2="608.3" y2="229.37"/><path class="cls-6" d="M596.43,203.64S581.26,229.37,576,248.5"/><path class="cls-6" d="M644.59,203.64c4,12.53,13.86,41.56,15.83,47.5"/><path class="cls-7" d="M500.68,115.42c29.62,25.28,63.58,41.18,112.71,41.18s91.76-4.34,141.61-46.24c0,0-25.29-62.86-67.19-88.87S595-6.69,555.59,26.55C528.25,49.62,513,78.57,500.68,115.42Z"/><path class="cls-8" d="M678.41,60.51S729,114,718.87,160.21s-65.74,47-102.59,47-83.09-7.22-88.15-47,15.18-66.47,30.35-91Z"/><path class="cls-9" d="M604,137.81s5.78-8.67,7.94-7.94,9.4,8.67,9.4,8.67"/><path class="cls-7" d="M544,77.85c55.63,7.94,127.88,8.67,159.67,8.67L680.58,38.83l-114.15.72Z"/><g class="cls-10"><circle class="cls-11" cx="723.42" cy="169.79" r="44.8"/><circle class="cls-11" cx="516.02" cy="162.54" r="44.8"/></g><path class="cls-6" d="M678.41,60.51S729,114,718.87,160.21s-65.74,48-102.59,48-83.09-8.24-88.15-48,15.18-66.47,30.35-91Z"/><circle class="cls-12" cx="657.1" cy="120.11" r="12.51"/><circle class="cls-7" cx="657.1" cy="120.11" r="5.54"/><circle class="cls-12" cx="580.53" cy="116.68" r="12.51"/><circle class="cls-7" cx="580.53" cy="116.68" r="5.54"/><path class="cls-13" d="M575.1,162.38c20.53,11.28,58.45,16.23,91.75,1.44"/><polygon class="cls-14" points="514.45 159.07 532.38 152.66 532.38 183.9 514.45 177.48 514.45 159.07"/><polygon class="cls-14" points="514.45 159.07 431.58 125.03 431.58 211.52 514.45 177.48 514.45 159.07"/><ellipse class="cls-14" cx="431.58" cy="168.28" rx="13.7" ry="43.24"/><path class="cls-3" d="M123.82,89.2c-13.21,17.9-33.89,46.46-47.95,69.9-3.41,5.75-4.26,11.51-2.34,14.92a10.16,10.16,0,0,0,9,4.69H107a3,3,0,0,0,3.19-3.2V172.1a1.57,1.57,0,0,1,1.71-1.7h5.32a1.57,1.57,0,0,1,1.71,1.7v36.23a1.91,1.91,0,0,1-2.13,2.13H82.48c-16,0-30.05-7.67-37.3-20.67-8.1-14.07-7.25-31.33,2.56-47.53,9.59-16,23.23-36,31.54-47.74,4-6,1.71-10.44-5.33-10.44H2.13A1.91,1.91,0,0,1,0,82V54.88a1.91,1.91,0,0,1,2.13-2.13H136.61c1.49,0,2.13.64,2.13,2.13V82c0,1.49-.64,2.13-2.13,2.13H133.2C129.37,84.08,126.59,85.57,123.82,89.2Z"/><path class="cls-3" d="M216.47,104.6l-26.79,34.08c-3,3.81-1.74,6.66,2.7,8.4A42.94,42.94,0,0,1,209.18,158a46.93,46.93,0,0,1-2.85,66.89,48.21,48.21,0,0,1-36,12.52c-13.48-1-24.41-10.94-24.41-24.41a24.39,24.39,0,0,1,46.12-11.25c.63,1.11,1.43,1.11,2.06,0a23.75,23.75,0,0,0-2.85-27.9,23.26,23.26,0,0,0-18.7-7.61c-3.18.16-5.08,1.59-7.14,4.28L153.86,185.6a1.44,1.44,0,0,1-2.22.32l-21.24-16a1.14,1.14,0,0,1-.31-1.74l2.37-3.17a1.13,1.13,0,0,1,1.75-.17l1.9,1.43a2.47,2.47,0,0,0,3.33-.47l24.88-31.55c3.33-4.27,1.75-7.76-3.64-7.76H129.29a1.5,1.5,0,0,1-1.58-1.59v-20.6a1.5,1.5,0,0,1,1.58-1.59h86.23C217,102.7,217.42,103.65,216.47,104.6ZM168.32,208.27a4.76,4.76,0,1,0,4.75,4.75A4.49,4.49,0,0,0,168.32,208.27Z"/><polyline class="cls-15" points="121.91 24.35 126.6 5.29 398.92 95.19 121.91 24.35"/><polyline class="cls-15" points="118.65 267.31 122.07 286.64 398.92 227.04 118.65 267.31"/></g></g></svg>