<?xml version="1.0" encoding="utf-8"?>
<!-- Generator: Adobe Illustrator 26.5.0, SVG Export Plug-In . SVG Version: 6.00 Build 0)  -->
<svg version="1.1" id="圖層_1" xmlns="http://www.w3.org/2000/svg" xmlns:xlink="http://www.w3.org/1999/xlink" x="0px" y="0px"
	 viewBox="0 0 500 500" style="enable-background:new 0 0 500 500;" xml:space="preserve">
<style type="text/css">
	.st0{fill:#0E0D6A;}
	.st1{fill:#FFFFFF;}
</style>
<circle class="st0" cx="250" cy="239.9" r="150"/>
<path class="st1" d="M228.2,316.4v-55.2h43.5v55.2c0,6.1,4.9,11,10.9,11h32.6c6,0,10.9-5,10.9-11V239h18.5c5,0,7.4-6.3,3.6-9.6
	l-90.9-83.2c-4.1-3.8-10.4-3.8-14.6,0l-90.9,83.2c-3.7,3.3-1.4,9.6,3.6,9.6h18.5v77.3c0,6.1,4.9,11,10.9,11h32.6
	C223.3,327.4,228.2,322.5,228.2,316.4z"/>
</svg>
