<svg xmlns="http://www.w3.org/2000/svg" viewBox="0 0 400 58.03"><defs><style>.cls-1{fill:#231815;}</style></defs><g id="layer_2" data-name="layer 2"><g id="layer_1-2" data-name="layer 1"><path class="cls-1" d="M71.11,31.16c-3.87-1.35-8.23-3.45-8.23-8.33,0-3.72,3.31-7.44,8.6-7.44a11.31,11.31,0,0,1,8.57,4.17l-3.12,3.08s-2.18-3-5.45-3c-2.25,0-4,1.39-4,3.16,0,2.29,2.07,3,5.68,4.35,4,1.5,7.36,3.31,7.36,8.08s-4.21,7.32-9.17,7.32a11.48,11.48,0,0,1-9.61-5.37l3.38-2.85s2.25,3.94,6.23,3.94c2.26,0,4.58-.9,4.58-3s-1.68-3-4.8-4.1"/><polygon class="cls-1" points="107.6 15.84 112.1 15.84 112.1 42.13 107.6 42.13 107.6 30.82 96.36 30.82 96.36 42.13 91.86 42.13 91.86 15.84 96.36 15.84 96.36 26.54 107.6 26.54 107.6 15.84"/><path class="cls-1" d="M131.61,15.84h4.59l10.21,26.29h-4.54l-2.41-6.23H128.35l-2.41,6.23H121.4ZM130,31.76h7.89l-3.94-10.25Z"/><path class="cls-1" d="M155.5,15.84h8.64c5.22,0,8.71,3.38,8.71,8.19,0,3.94-2.1,7-5.86,7.88l6.58,10.22h-5.26l-6.24-9.91H160v9.91H155.5ZM168.27,24c0-2.6-1.8-3.91-4.69-3.91H160v7.81h3.57c2.89,0,4.69-1.31,4.69-3.9"/><polygon class="cls-1" points="189.44 26.51 199.95 26.51 199.95 30.79 189.44 30.79 189.44 37.85 201.08 37.85 201.08 42.13 184.93 42.13 184.93 15.84 201.08 15.84 201.08 20.12 189.44 20.12 189.44 26.51"/><polygon class="cls-1" points="388.36 26.51 398.87 26.51 398.87 30.79 388.36 30.79 388.36 37.85 400 37.85 400 42.13 383.85 42.13 383.85 15.84 400 15.84 400 20.12 388.36 20.12 388.36 26.51"/><polygon class="cls-1" points="228.34 15.84 232.85 15.84 232.85 37.85 244.04 37.85 244.04 42.13 228.34 42.13 228.34 15.84"/><path class="cls-1" d="M277.46,29c0,7.78-5.64,13.6-13.3,13.6s-13.3-5.82-13.3-13.6,5.64-13.59,13.3-13.59,13.3,5.82,13.3,13.59m-4.59,0c0-5.07-3.41-9.31-8.71-9.31s-8.72,4.24-8.72,9.31,3.42,9.32,8.72,9.32,8.71-4.25,8.71-9.32"/><path class="cls-1" d="M302.32,15.84h4.51V32.59c0,5.78-3.95,10-10.14,10s-10.15-4.21-10.15-10V15.84h4.51V32c0,3.75,1.88,6.27,5.64,6.27s5.63-2.52,5.63-6.27Z"/><polygon class="cls-1" points="322.24 15.84 335.39 33.94 335.39 15.84 339.9 15.84 339.9 42.13 335.84 42.13 322.69 24.07 322.69 42.13 318.19 42.13 318.19 15.84 322.24 15.84"/><path class="cls-1" d="M368.06,37.1V31.54h-6V27.33h10.4v12s-3.34,3.3-9.73,3.3A13.5,13.5,0,0,1,348.94,29a13.34,13.34,0,0,1,13.63-13.59,13,13,0,0,1,9.73,3.94l-3.08,3a8.69,8.69,0,0,0-6.65-2.75A9.11,9.11,0,0,0,353.52,29a9.26,9.26,0,0,0,9.24,9.39c3.76,0,5.3-1.27,5.3-1.27"/><path class="cls-1" d="M35.92,40.09V14.21L16.58,0V15L0,26.26V58H41.45V42.45ZM33.16,15.61v23.3L19.34,33V5.45ZM16.58,18.35V31.84L4.37,26.63ZM2.76,29l11.68,5-11.68,5Zm0,26.32V41.92L16.58,36V55.27Zm35.93,0H19.34V36l19.35,8.25Z"/></g></g></svg>
