<!--?xml version="1.0" encoding="utf-8"?-->
<!-- Generator: Adobe Illustrator 22.1.0, SVG Export Plug-In . SVG Version: 6.00 Build 0)  -->
<svg version="1.1" id="_x31_6" xmlns="http://www.w3.org/2000/svg" xmlns:xlink="http://www.w3.org/1999/xlink" x="0px" y="0px" viewBox="0 0 720 517" style="enable-background:new 0 0 720 517;" xml:space="preserve">
<style type="text/css">
	.st0{fill:#7AB9CC;}
	.st1{fill:#FFD7C5;}
	.st2{fill:#5B7594;}
	.st3{fill:#FFFFFF;}
	.st4{fill:#FF6F3D;}
	.st5{fill:#FAD06C;}
	.st6{fill:#FFF0DE;}
	.st7{fill:#D7AD49;}
	.st8{fill:#9E9E9F;}
	.st9{fill:#56708F;}
	.st10{fill:#F06B80;}
	.st11{fill:#FFC33E;}
	.st12{fill:#F2994B;}
	.st13{fill:#C4D7D1;}
	.st14{fill:#04BF8A;}
	.st15{fill:#FFC6BF;}
	.st16{fill:#FFD5CE;}
	.st17{fill:#231815;}
</style>
<g>
	<path class="st0" d="M225.176,360.998l-8.31,12.015c-3.159,4.567-9.471,5.6-13.919,2.277l-28.168-21.048l15.317-19.871
		l12.112,10.21c6.25-14.686,18.403-33.639,32.871-39.193L225.176,360.998z" style="opacity: 1;"></path>
	<polygon class="st1" points="234.215,451.279 242.145,487.342 268.501,487.342 276.458,492.415 301.879,487.342 309.304,451.279 	
		" style="opacity: 1;"></polygon>
	<polygon class="st2" points="320.196,403.158 270.614,365.823 225.71,404.181 216.181,456.926 330.064,456.926 	" style="opacity: 1;"></polygon>
	<path class="st1" d="M340.533,417.694l2.105-2.306c4.069-4.456,5.148-10.887,2.756-16.429l-1.311-3.038
		c-0.772-1.79-1.397-3.635-1.875-5.516l-1.134-30.757h-20.31l-7.286,45.205l7.46,15.403l0.486,0.289
		C327.666,424.242,335.641,423.052,340.533,417.694z" style="opacity: 1;"></path>
	<path class="st0" d="M320.204,406.55c0,0-0.682,0-1.817,0l1.987,18.384h-96.342l0.964-11.365l0.596-7.018
		c-0.028-0.028-0.028-0.341-0.085-0.824l-0.454-4.574l0.256-0.171c-0.058-1.109-0.114-2.387-0.143-3.722
		c-0.028-0.909-0.085-1.819-0.114-2.813l-0.057,2.813v-87.344c12.799-7.7,30.364-8.951,46.625-9.859
		c21.027-1.222,47.503,3.495,58.713,20.316c11.181,16.821,10.726,39.268,10.726,39.268l1.136,30.772
		c0.482,1.876,1.106,3.722,1.901,5.513l0.567,1.335h-24.29l-0.058-1.563v1.563L320.204,406.55z" style="opacity: 1;"></path>
	<path class="st3" d="M302.425,310.39c2.893,18.828-20.332,30.414-31.139,13.034c-10.806,17.379-34.032,5.793-31.139-13.034
		c0,0,7.902-10.339,31.472-10.339C295.188,300.052,302.425,310.39,302.425,310.39z" style="opacity: 1; stroke: none; stroke-width: 7px;"></path>
	<path class="st4" d="M301.288,366h-9.652c-2.421,0-4.384-1.965-4.384-4.39v-9.665c0-2.424,1.963-4.39,4.384-4.39h9.652
		c2.421,0,4.384,1.966,4.384,4.39v9.665C305.672,364.034,303.709,366,301.288,366z" style="opacity: 1;"></path>
	<polygon class="st5" points="316.193,421.68 220.106,314.695 228.022,309.762 318.027,409.975 	" style="opacity: 1;"></polygon>
	<path class="st5" d="M314.755,419.815v39.148c0,2.594,2.101,4.698,4.692,4.698h5.926c2.591,0,4.692-2.103,4.692-4.698v-32.681" style="opacity: 1;"></path>
	<path class="st1" d="M317.029,247.826L317.029,247.826v-15.707c0-20.909-21.784-40.87-44.895-40.87
		c-23.111,0-44.895,19.962-44.895,40.87v15.777c-7.988,0.733-14.246,7.457-14.246,15.647c0,8.437,6.64,15.32,14.972,15.698
		c3.957,18.293,23.533,34.207,44.169,34.207c20.629,0,40.199-15.904,44.165-34.189h0.73c8.669,0,15.697-7.037,15.697-15.717
		C332.726,254.862,325.698,247.826,317.029,247.826z" style="opacity: 1;"></path>
	<ellipse class="st6" cx="255.262" cy="260.03" rx="12.554" ry="12.57" style="opacity: 1;"></ellipse>
	<ellipse class="st6" cx="289.204" cy="260.03" rx="12.554" ry="12.57" style="opacity: 1;"></ellipse>
	<path class="st5" d="M322.589,215.947c-2.148-26.106-23.949-46.636-50.577-46.636c-26.629,0-48.43,20.529-50.578,46.636H322.589z" style="opacity: 1;"></path>
	<path class="st7" d="M252.812,214.751c0,0,0.008-0.133,0.029-0.412c0.157-2.085,1.01-11.807,3.562-21.5
		c1.269-4.842,2.972-9.673,5.131-13.474c2.159-3.828,4.733-6.492,7.492-7.496c1.32-0.493,1.995-1.963,1.505-3.285
		c-0.492-1.324-1.961-1.999-3.281-1.507c-2.367,0.878-4.405,2.375-6.149,4.215c-3.05,3.231-5.289,7.52-7.063,12.134
		c-2.647,6.92-4.203,14.622-5.127,20.632c-0.92,6.009-1.193,10.317-1.197,10.371c-0.09,1.41,0.978,2.625,2.387,2.715
		c1.408,0.089,2.622-0.981,2.712-2.39L252.812,214.751z" style="opacity: 1;"></path>
	<path class="st7" d="M274.789,171.781c1.045,0.455,2.673,2.128,4.154,4.759c2.261,3.925,4.338,9.784,5.792,16.048
		c1.462,6.267,2.324,12.967,2.321,18.63c0,0.441-0.006,0.888-0.014,1.342c-0.026,1.411,1.096,2.578,2.507,2.604
		c1.409,0.025,2.574-1.099,2.601-2.51c0.007-0.466,0.015-0.943,0.015-1.436c-0.007-8.223-1.618-17.943-4.198-26.227
		c-1.296-4.143-2.829-7.919-4.595-10.999c-1.786-3.063-3.727-5.519-6.389-6.829c-1.275-0.606-2.799-0.064-3.403,1.213
		c-0.605,1.275-0.064,2.801,1.211,3.407L274.789,171.781z" style="opacity: 1;"></path>
	<path class="st5" d="M273.331,203.4c22.655,0,60.978,5.112,71.567,13.748c10.59,8.636-13.335,13.742-18.434,12.171
		c-5.099-1.571-18.019-9.033-53.134-9.033h-1.32c-35.115,0-48.035,7.461-53.134,9.033c-5.099,1.571-29.024-3.534-18.434-12.171
		c10.59-8.636,48.912-13.748,71.568-13.748H273.331z" style="opacity: 1;"></path>
	<path class="st1" d="M510.583,373.203l2.332-2.554c4.508-4.938,5.703-12.063,3.054-18.205l-1.453-3.366
		c-0.856-1.984-1.548-4.028-2.078-6.112l-1.256-68.177h-22.505l-0.63,68.177l0.823,33.076l0.539,0.32
		C496.324,380.459,505.161,379.141,510.583,373.203z" style="opacity: 1;"></path>
	<path class="st1" d="M360.212,373.203l-2.332-2.554c-4.508-4.938-5.703-12.063-3.054-18.205l1.452-3.366
		c0.856-1.984,1.548-4.028,2.078-6.112l1.257-68.177h22.505l0.63,68.177l-0.823,33.076l-0.539,0.32
		C374.47,380.459,365.633,379.141,360.212,373.203z" style="opacity: 1;"></path>
	<path class="st8" d="M450.238,370.25c-1.553,0-3.059-0.526-4.276-1.491l-5.574-4.426c-2.405-1.909-5.782-1.994-8.279-0.205
		l-6.754,4.836c-1.168,0.837-2.568,1.286-4.004,1.286h-37.184l4.18,42.075l13.217,72.147h29.205l8.817,5.623l28.168-5.623
		l13.179-75.23l4.121-38.993H450.238z" style="opacity: 1;"></path>
	<path class="st9" d="M487.929,338.14h24.42l-1.168-63.351c0,0,0.503-24.886-11.911-43.518
		c-12.412-18.633-41.758-26.692-65.048-25.357c-23.291,1.336-49.065,6.095-62.587,23.352
		c-13.524,17.256-13.501,46.927-13.501,46.927l0.31,61.947h23.492c0,0,0.432,9.871,0.815,16.599l-0.111,0.15l0.319,3.209
		c0.109,1.607,0.206,2.685,0.273,2.751l0.934,9.401h37.184c1.437,0,2.836-0.45,4.004-1.286l6.754-4.836
		c2.497-1.788,5.874-1.704,8.279,0.205l5.574,4.426c1.217,0.966,2.723,1.491,4.276,1.491h34.815l0.993-9.395
		c1.255-0.004,2.001-0.006,2.001-0.006L487.929,338.14z" style="opacity: 1;"></path>
	<path class="st3" d="M463.186,209.803l-11.823-7.663c-9.762-6.325-22.322-6.325-32.083,0l-11.823,7.663v8.77l26.534,50.554
		c0.564,1.073,2.099,1.073,2.662,0l26.534-50.554V209.803z" style="opacity: 1; stroke: none; stroke-width: 7px;"></path>
	<path class="st10" d="M443.867,255.124l-6.119,9.934c-1.133,1.312-3.165,1.312-4.297,0l-6.12-9.934v-22.468l8.268-5.967
		l8.267,5.967V255.124z" style="opacity: 1;"></path>
	<path class="st11" d="M475.457,284.975l-6.652,3.976c-1.205,0.721-2.709,0.721-3.915,0l-6.652-3.976
		c-1.154-0.69-1.861-1.937-1.861-3.283v-14.973c0-2.112,1.71-3.824,3.819-3.824H473.5c2.109,0,3.818,1.712,3.818,3.824v14.973
		C477.318,283.038,476.611,284.285,475.457,284.975z" style="opacity: 1;"></path>
	<path class="st1" d="M485.484,143.488L485.484,143.488v-5.157c0-23.232-24.205-45.411-49.884-45.411s-49.884,22.179-49.884,45.411
		v5.235c-8.876,0.814-15.829,8.285-15.829,17.385c0,9.375,7.378,17.022,16.636,17.443c4.397,20.326,26.148,38.008,49.077,38.008
		c22.921,0,44.665-17.671,49.072-37.988h0.811c9.632,0,17.441-7.818,17.441-17.463C502.924,151.306,495.116,143.488,485.484,143.488
		z" style="opacity: 1;"></path>
	<path class="st12" d="M684.662,330.931l-13.291,150.272c0,0,22.856,2.485,26.256,24.501v3.695c0,2.487-2.013,4.503-4.496,4.503
		H638.59c-2.313,0-4.248-1.756-4.476-4.06l-15.588-157.016h-1.689l-12.726,128.376l-2.862,28.64c-0.227,2.303-2.163,4.06-4.475,4.06
		h-54.541c-2.484,0-4.497-2.016-4.497-4.503v-3.695c3.401-22.016,26.257-24.501,26.257-24.501l-12.829-153.831l9.044-51.074
		l56.512,13.527l59.141,0.072L684.662,330.931z" style="opacity: 1;"></path>
	<path class="st13" d="M715.92,213.616c-5.168-51.418-29.709-72.386-48.835-78.26l-16.431-4.311h-61.326l-16.719,4.311
		c-19.127,5.874-43.161,26.582-43.161,78.26v5.291h21.88l3.594,48.015l46.353,12.285l-56.447,10.801v25.22h136.464h7.697v-52.803
		l-8.673,1.659l0.039-0.296l-7.847-4.789l19.485-7.976l9.702-0.666C721.708,256.492,716.391,218.297,715.92,213.616z" style="opacity: 1;"></path>
	<path class="st4" d="M603.152,274.073c0,0-17.597-15.627-25.045-39.505l-27.423-76.26l-2.026-5.664
		c0,0,11.812-14.657,18.662-13.766l68.985,77.312l2.732-1.131l55.393-18.474c2.97-0.991,6.036,1.222,6.036,4.356v11.883
		l-13.953,47.446c0,0-14.025,13.151-21.521,15.374l-34.411,22.023L603.152,274.073z" style="opacity: 1;"></path>
	<path class="st1" d="M667.377,162.682c-12.724,3.607-11.07,11.242-19.386,17.102c-8.318,5.86-5.326,18.997-3.873,20.721
		c0,0,5.403,2.232,15.039,3.536l4.969,1.662l30.303-9.118l1.661-5.113c0.223-0.469,0.417-0.948,0.582-1.435
		C701.143,176.839,684.663,157.781,667.377,162.682z" style="opacity: 1;"></path>
	<path class="st1" d="M642.396,180.173c-9.73-3.527-9.804,9.526-12.408,11.091c-2.604,1.564-8.073,4.954-8.414,9.242l14.731,15.685
		l27.823-10.487l-20.115-4.42c0,0-2.651-9.299-1.162-13.35c1.49-4.051,3.487-6.734,3.487-6.734L642.396,180.173z" style="opacity: 1;"></path>
	<path class="st1" d="M702.323,212.825h13.598c0,0,1.409,21.86-1.758,29.138c-3.167,7.277-9.004,9.631-11.346,8.684
		c-2.342-0.947-2.351-21.726-2.351-21.726L702.323,212.825z" style="opacity: 1;"></path>
	<path class="st3" d="M631.984,190.039c0,0,7.162,6.049,9.821,6.308c1.214,0.599,2.313,4.159,2.313,4.159l20.008,5.198
		l-27.823,10.487l-14.731-15.685c0,0,0.685-5.068,4.2-6.348C629.289,192.879,631.984,190.039,631.984,190.039z" style="opacity: 1; stroke: none; stroke-width: 7px;"></path>
	<path class="st1" d="M631.984,190.039l-0.915,1.086c0.016,0.013,1.823,1.541,3.994,3.12c1.087,0.791,2.262,1.594,3.376,2.238
		c0.558,0.322,1.101,0.605,1.628,0.828c0.53,0.221,1.035,0.392,1.599,0.451l0.138-1.414l-0.627,1.274l0.121-0.246l-0.149,0.231
		l0.028,0.015l0.121-0.246l-0.149,0.231l0.002,0.002c0.045,0.026,0.262,0.271,0.457,0.608c0.304,0.508,0.608,1.208,0.819,1.761
		c0.107,0.277,0.192,0.52,0.25,0.69l0.065,0.197l0.019,0.061l0.233,0.756l16.442,4.272l-22.749,8.574l-14.082-14.994l-1.033,0.973
		l1.406,0.19h0c0.008-0.071,0.194-1.24,0.731-2.441c0.266-0.601,0.618-1.204,1.044-1.691c0.429-0.489,0.916-0.857,1.503-1.072
		c1.964-0.717,3.621-1.826,4.812-2.754c1.189-0.93,1.908-1.685,1.943-1.722L631.984,190.039l-0.915,1.086L631.984,190.039
		l-1.029-0.979l-0.018,0.018c-0.227,0.248-2.729,2.698-5.65,3.745c-1.152,0.418-2.055,1.147-2.733,1.944
		c-1.02,1.203-1.587,2.567-1.931,3.635c-0.341,1.07-0.449,1.856-0.457,1.913l-0.091,0.669l15.841,16.869l32.897-12.4l-24.34-6.322
		l-0.356,1.376l1.355-0.42c-0.01-0.031-0.295-0.959-0.759-2.01c-0.234-0.528-0.51-1.086-0.849-1.606
		c-0.352-0.513-0.718-1.023-1.433-1.397l-0.234-0.116l-0.255-0.024c-0.101-0.006-0.401-0.081-0.771-0.241
		c-1.333-0.553-3.484-2.013-5.2-3.308c-0.865-0.649-1.636-1.26-2.19-1.706c-0.277-0.224-0.499-0.407-0.651-0.532
		c-0.152-0.126-0.231-0.193-0.231-0.193l-1.023-0.863l-0.92,0.97L631.984,190.039z" style="opacity: 1;"></path>
	<path class="st1" d="M648.597,276.957L648.597,276.957c0-3.492-3.093-6.159-6.541-5.629c-1.977,0.304-4.403,0.704-7.277,1.228
		c-9.211,1.677-12.006,6.056-13.927,8.571c0,0-34.444-9.033-43.935-11.669c-9.492-2.637-12.416-6.107-12.416-6.107l-4.294-44.444
		h-30.757c0,0,0.668,13.303,0,17.641c-0.668,4.337,2.284,30.964,5.148,39.097c2.864,8.134,21.59,19.12,21.59,19.12
		c25.665,11.082,72.205,14.551,82.622,7.559c0,0,16.677-11.493,25.969-21.38c1.375-1.464,1.449-3.715,0.213-5.3
		c-1.163-1.49-3.195-1.987-4.913-1.201l-11.482,5.246V276.957z" style="opacity: 1;"></path>
	<path class="st1" d="M686.692,229.527l-21.034,16.007c-2.486,1.891-2.563,5.608-0.157,7.601l5.584,4.628
		c2.474,2.05,5.725,2.904,8.886,2.336l11.449-2.06c4.442-0.798,8.249-3.645,10.277-7.682l6.053-12.051
		c1.879-3.74,2.034-8.116,0.424-11.981l-1.01-2.425c-2.626-6.305-8.578-10.59-15.384-11.075l-10.46,2.332
		c-1.986,0.443-3.398,2.207-3.398,4.244v0.371c0,2.401,1.944,4.347,4.343,4.347h6.914c0,0,4.936,0.158,2.818,1.264
		C689.878,226.489,686.692,229.527,686.692,229.527z" style="opacity: 1;"></path>
	<path class="st1" d="M590.367,133.053c-5.784,8.409-2.184,13.395-2.184,13.395c5.073,11.057,16.203,18.753,29.153,18.753
		c12.949,0,24.079-7.695,29.151-18.753c1.941-3.851-1.211-15.956-12.669-18.225C622.362,125.954,590.367,133.053,590.367,133.053z" style="opacity: 1;"></path>
	<path class="st1" d="M667.221,73.389L667.221,73.389v-5.157c0-23.232-24.205-45.411-49.884-45.411
		c-25.679,0-49.884,22.179-49.884,45.411v5.233c-8.876,0.816-15.829,8.286-15.829,17.387c0,9.374,7.378,17.02,16.636,17.442
		c4.397,20.325,26.148,38.009,49.077,38.009c22.921,0,44.665-17.671,49.072-37.988h0.812c9.632,0,17.441-7.819,17.441-17.463
		C684.662,81.207,676.854,73.389,667.221,73.389z" style="opacity: 1;"></path>
	<ellipse class="st6" cx="598.592" cy="86.948" rx="13.948" ry="13.966" style="opacity: 1;"></ellipse>
	<ellipse class="st6" cx="636.304" cy="86.948" rx="13.948" ry="13.966" style="opacity: 1;"></ellipse>
	<polygon class="st14" points="35.527,327.372 16.496,432.6 171.238,432.6 154.261,325.183 155.056,295.255 35.665,293.904 	" style="opacity: 1;"></polygon>
	<path class="st15" d="M153.998,314.507V301.75H35.409v12.757H8.564c0.937-3.636,1.39-7.388,1.39-11.166v-72.286
		c0,0,0-5.683,0-31.936c0-15.145,4.569-27.533,11.011-37.193c0,0,11.776-13.184,14.699-15.684c3.49-2.984,7.094-5.229,10.556-6.82
		c4.824-2.216,9.251-3.21,12.373-3.21l35.387-13.184l37.089,13.184c13.281,0,48.639,20.657,48.639,62.908
		c0,26.254,0,31.936,0,31.936v72.286c0,3.778,0.454,7.529,1.39,11.166H153.998z" style="opacity: 1;"></path>
	<path class="st1" d="M8.564,314.501c-0.588,2.316-1.357,4.587-2.308,6.791l-1.614,3.74c-2.944,6.823-1.616,14.742,3.393,20.227
		l2.593,2.84c4.214,4.615,10.285,6.718,16.182,6.007c2.121-3.083,10.066-26.355,10.066-26.355v-13.251H8.564z" style="opacity: 1;"></path>
	<path class="st1" d="M179.034,348.099l2.591-2.838c5.009-5.486,6.337-13.404,3.393-20.228l-1.614-3.74
		c-0.951-2.204-1.72-4.476-2.308-6.791h-27.101l0.464,18.66c0.011,0.434,0.244,0.831,0.617,1.052l3.744,16.9
		C166.503,355.666,173.01,354.697,179.034,348.099z" style="opacity: 1;"></path>
	<path class="st3" d="M63.177,132.706c0,0-15.584,6.295-16.052,7.814c-0.468,1.519,39.546,53.505,39.546,53.505
		s4.272,3.334,7.315,2.994c3.044-0.339,7.13-5.538,7.13-5.538l39.138-53.883l-21.986-10.719
		c-14.306-10.85-34.121-10.672-48.231,0.431L63.177,132.706z" style="opacity: 1; stroke: none; stroke-width: 7px;"></path>
	<path class="st16" d="M54.724,146.246c-29.038,9.128-35.344,38.025-35.344,52.572c0,19.663,0,115.68,0,115.68H8.567
		c0.922-3.63,1.39-7.373,1.39-11.146v-72.284c0,0,0-5.683,0-31.937c0-15.166,4.555-27.547,11.011-37.194
		c0,0,11.776-13.184,14.699-15.691c3.476-2.983,7.101-5.221,10.542-6.812L54.724,146.246z" style="opacity: 1;"></path>
	<path class="st1" d="M53.774,481.203c0,0-20.018,2.485-23.419,24.501v3.696c0,2.486,2.013,4.502,4.497,4.502h54.541
		c2.312,0,4.247-1.756,4.475-4.06v-28.64V432.6H50.133L53.774,481.203z" style="opacity: 1;"></path>
	<path class="st1" d="M133.961,481.203c0,0,20.018,2.485,23.419,24.501v3.696c0,2.486-2.013,4.502-4.497,4.502H98.342
		c-2.312,0-4.248-1.756-4.475-4.06v-28.64V432.6h43.734L133.961,481.203z" style="opacity: 1;"></path>
	<path class="st1" d="M143.886,73.388L143.886,73.388V55.936c0-23.231-24.205-45.411-49.884-45.411s-49.884,22.18-49.884,45.411
		v17.529c-8.876,0.816-15.829,8.286-15.829,17.387c0,9.373,7.378,17.02,16.636,17.442c4.397,20.325,26.148,38.009,49.077,38.009
		c22.921,0,44.665-17.671,49.072-37.988h0.811c9.632,0,17.441-7.819,17.441-17.463C161.327,81.207,153.518,73.388,143.886,73.388z" style="opacity: 1;"></path>
	<path class="st17" d="M271.286,345.918c-1.634,0-2.971,1.338-2.971,2.974v0.001c0,1.636,1.337,2.974,2.971,2.974
		c1.634,0,2.971-1.338,2.971-2.974v-0.001C274.257,347.256,272.92,345.918,271.286,345.918z" style="opacity: 1;"></path>
	<path class="st17" d="M271.286,384.391c1.634,0,2.971-1.338,2.971-2.975c0-1.636-1.337-2.974-2.971-2.974
		c-1.634,0-2.971,1.338-2.971,2.974C268.315,383.053,269.653,384.391,271.286,384.391z" style="opacity: 1;"></path>
	<ellipse class="st17" cx="271.286" cy="407.159" rx="2.971" ry="2.975" style="opacity: 1;"></ellipse>
	<path class="st17" d="M286.333,242.129c1.821-0.819,3.919-0.819,5.74,0c1.187,0.499,2.736,0.665,3.668-0.149
		c0.94-0.798,0.301-2.995-1.828-3.951c-2.988-1.343-6.431-1.343-9.419,0c-2.13,0.954-2.768,3.156-1.828,3.951
		C283.597,242.797,285.143,242.628,286.333,242.129z" style="opacity: 1;"></path>
	<path class="st17" d="M251.95,242.129c1.821-0.819,3.92-0.819,5.741,0c1.187,0.499,2.735,0.665,3.667-0.149
		c0.94-0.798,0.302-2.995-1.828-3.951c-2.987-1.343-6.431-1.343-9.419,0c-2.13,0.954-2.767,3.156-1.828,3.951
		C249.214,242.797,250.76,242.628,251.95,242.129z" style="opacity: 1;"></path>
	<path class="st17" d="M259.771,259.359L259.771,259.359c0-2.727-2.227-4.957-4.951-4.957c-2.723,0-4.951,2.23-4.951,4.956v0.001
		c0,2.726,2.228,4.957,4.951,4.957C257.544,264.316,259.771,262.085,259.771,259.359z" style="opacity: 1;"></path>
	<path class="st17" d="M294.155,259.359L294.155,259.359c0-2.727-2.228-4.957-4.951-4.957c-2.723,0-4.951,2.23-4.951,4.956v0.001
		c0,2.726,2.228,4.957,4.951,4.957C291.926,264.316,294.155,262.085,294.155,259.359z" style="opacity: 1;"></path>
	<path class="st17" d="M275.007,277.081c0.703,0,1.272-0.57,1.272-1.274s-0.569-1.274-1.272-1.274h-3.717
		c-0.874,0-1.675-0.49-2.074-1.269l-0.334-0.652c-0.288-0.563-1.136-0.357-1.136,0.275v2.491c0,0.941,0.761,1.703,1.701,1.703
		H275.007z" style="opacity: 1;"></path>
	<path class="st17" d="M282.107,285.354c-0.561-0.669-1.617-0.712-2.414-0.219c-0.662,0.414-1.036,1.131-0.965,1.822
		c-4.243,2.012-9.187,2.012-13.432,0.001c0.071-0.694-0.302-1.411-0.966-1.823c-0.799-0.495-1.856-0.448-2.414,0.219
		c-0.567,0.708-1.133,1.417-1.701,2.125c-0.558,0.664-0.138,1.932,1.02,2.652c0.946,0.59,2.002,0.566,2.523,0.08
		c5.216,2.472,11.291,2.472,16.507,0c0.518,0.482,1.574,0.513,2.523-0.08c1.158-0.719,1.578-1.988,1.02-2.652
		C283.241,286.77,282.675,286.061,282.107,285.354z" style="opacity: 1;"></path>
	<path class="st17" d="M254.582,274.696c3.976,0,7.712-1.55,10.52-4.365c2.285-2.285,3.776-5.294,4.216-8.495h5.389
		c0.44,3.201,1.931,6.21,4.216,8.495c2.808,2.815,6.544,4.365,10.523,4.365h0.003c3.976,0,7.712-1.55,10.52-4.365
		c2.811-2.812,4.36-6.554,4.358-10.536c0.001-3.982-1.547-7.725-4.358-10.537c-2.808-2.814-6.544-4.364-10.524-4.364
		c-1.846,0-3.649,0.335-5.358,0.996c-1.051,0.406-1.575,1.593-1.169,2.646c0.302,0.782,1.068,1.309,1.907,1.309
		c0.251,0,0.5-0.046,0.736-0.138c1.238-0.479,2.545-0.721,3.887-0.721c2.881,0.001,5.592,1.125,7.633,3.166
		c2.038,2.044,3.161,4.757,3.162,7.643c-0.001,2.884-1.124,5.599-3.161,7.642c-2.042,2.041-4.752,3.165-7.633,3.166
		c-2.881-0.001-5.592-1.125-7.633-3.165c-2.038-2.044-3.161-4.759-3.162-7.643c0.001-2.237,0.678-4.384,1.956-6.207
		c0.315-0.447,0.436-0.99,0.342-1.528c-0.094-0.539-0.391-1.008-0.838-1.323c-0.346-0.243-0.752-0.372-1.174-0.372
		c-0.666,0-1.291,0.325-1.673,0.869c-1.348,1.918-2.228,4.168-2.55,6.52h-5.396c-0.44-3.202-1.931-6.211-4.216-8.496
		c-2.808-2.814-6.544-4.364-10.524-4.364c-1.846,0-3.649,0.335-5.357,0.996c-1.052,0.406-1.576,1.593-1.17,2.646
		c0.302,0.782,1.068,1.309,1.907,1.309c0.251,0,0.5-0.046,0.736-0.138c1.238-0.479,2.545-0.721,3.887-0.721
		c2.881,0.001,5.592,1.125,7.633,3.166c2.038,2.044,3.161,4.757,3.162,7.643c-0.001,2.884-1.124,5.599-3.161,7.642
		c-2.041,2.041-4.752,3.165-7.633,3.166c-2.881-0.001-5.592-1.125-7.633-3.165c-2.038-2.044-3.161-4.759-3.162-7.643
		c0.001-2.237,0.678-4.384,1.956-6.207c0.314-0.447,0.435-0.99,0.341-1.528c-0.094-0.539-0.391-1.008-0.838-1.323
		c-0.346-0.243-0.752-0.372-1.174-0.372c-0.666,0-1.291,0.325-1.673,0.869c-1.767,2.515-2.701,5.475-2.701,8.561
		c-0.001,3.982,1.548,7.724,4.359,10.536C246.863,273.146,250.599,274.696,254.582,274.696z" style="opacity: 1;"></path>
	<path class="st17" d="M479.304,281.692v-14.973c-0.001-3.211-2.597-5.812-5.804-5.813h-13.303
		c-3.207,0.001-5.804,2.602-5.805,5.813v14.973c0,2.046,1.075,3.942,2.829,4.99l6.652,3.976c0.916,0.547,1.947,0.821,2.976,0.821
		c1.027,0,2.058-0.273,2.975-0.821l6.653-3.976l-1.018-1.707l1.018,1.707C478.23,285.633,479.304,283.737,479.304,281.692z
		 M467.787,287.242c-0.289,0.172-0.613,0.258-0.939,0.258c-0.326,0-0.651-0.086-0.941-0.259l-6.65-3.974
		c-0.554-0.332-0.893-0.929-0.893-1.575v-14.973c0.002-1.013,0.821-1.833,1.832-1.835H473.5c1.01,0.001,1.83,0.822,1.831,1.835
		v14.973c0,0.647-0.339,1.244-0.893,1.575l0,0L467.787,287.242z" style="opacity: 1;"></path>
	<path class="st17" d="M486.677,273.094c-1.709,0-3.095,1.387-3.095,3.099v66.773c0,1.711,1.386,3.098,3.095,3.098
		c1.709,0,3.094-1.387,3.094-3.098v-1.727h11.562c1.709,0,3.094-1.387,3.094-3.098c0-1.711-1.386-3.099-3.094-3.099h-11.562v-58.849
		C489.771,274.481,488.385,273.094,486.677,273.094z" style="opacity: 1;"></path>
	<path class="st17" d="M357.642,350.306c2.366-5.486,3.588-11.398,3.588-17.374c0-0.001,0-41.756,0-65.384
		c0.007-13.607,4.241-24.463,10.134-32.846c5.887-8.374,13.495-14.233,20.045-17.512c1.528-0.767,2.146-2.628,1.381-4.157
		c-0.765-1.53-2.624-2.149-4.152-1.383c-7.436,3.733-15.773,10.174-22.333,19.481c-6.555,9.296-11.271,21.498-11.264,36.418
		c0,23.628,0,65.383,0,65.384c0,5.13-1.048,10.207-3.08,14.916l-1.453,3.366c-1.107,2.56-1.646,5.274-1.646,7.964
		c-0.001,4.924,1.81,9.785,5.257,13.56l2.333,2.556c3.91,4.281,9.334,6.537,14.816,6.535c3.383,0.001,6.8-0.866,9.898-2.628
		c0.131,1.843,0.339,3.973,0.615,6.392c1.691,14.757,5.872,39.561,9.636,60.753c2.814,15.836,5.392,29.623,6.516,35.577
		c-0.399,0.121-0.966,0.307-1.668,0.567c-1.973,0.595-4.36,1.495-6.856,2.861c-3.044,1.673-6.25,4.057-8.921,7.45
		c-2.673,3.385-4.773,7.785-5.612,13.25l-0.036,0.234v3.566c0.002,3.95,3.196,7.149,7.142,7.151h49.086
		c0.757,0,1.477-0.144,2.164-0.364c0.429,0.225,0.91,0.364,1.427,0.364c0.518,0,0.998-0.139,1.427-0.364
		c0.687,0.22,1.408,0.364,2.165,0.364h49.086c3.946-0.002,7.14-3.201,7.142-7.151v-3.565l-0.036-0.234
		c-0.839-5.465-2.939-9.864-5.612-13.25c-4.017-5.091-9.192-7.901-13.308-9.472c-0.85-0.323-1.642-0.583-2.391-0.81
		c-0.739-0.277-1.333-0.47-1.747-0.596c1.338-7.091,4.741-25.296,8.146-44.838c2.185-12.541,4.371-25.629,6.014-36.701
		c0.822-5.537,1.508-10.568,1.991-14.791c0.275-2.418,0.484-4.549,0.615-6.392c3.098,1.762,6.514,2.628,9.897,2.628
		c5.482,0.002,10.905-2.254,14.816-6.533l2.334-2.557c3.447-3.776,5.256-8.637,5.256-13.56c0-2.69-0.54-5.402-1.645-7.964
		l-1.453-3.366c-2.032-4.709-3.08-9.786-3.08-14.916c0-0.001,0-41.756,0-65.384c0.002-9.943-2.087-18.689-5.429-26.16
		c-5.017-11.215-12.803-19.545-20.531-25.098c-3.869-2.778-7.728-4.867-11.281-6.283c-2.883-1.14-5.531-1.834-7.94-2.073
		c1.003-0.801,1.987-1.622,2.93-2.481c4.879-4.453,8.931-9.68,11.781-15.384c1.284-2.571,2.308-5.244,3.063-7.982
		c10.166-1.159,18.064-9.788,18.066-20.277c-0.002-8.863-5.648-16.383-13.527-19.209v-0.874c6.811-0.912,13.472-7.762,13.022-10.934
		c-0.517-3.641-11.604-5.26-16.03-14.308h-0.012c-0.4-1.153-0.824-2.295-1.298-3.412c-4.17-9.824-11.112-18.182-19.838-24.099
		c-4.364-2.958-9.176-5.305-14.311-6.913c-5.134-1.608-10.59-2.475-16.227-2.475h-2.5c-7.516-0.001-14.71,1.541-21.251,4.324
		c-9.812,4.175-18.159,11.127-24.068,19.863c-2.954,4.37-5.299,9.187-6.905,14.329c-1.606,5.14-2.472,10.604-2.472,16.248v2.794
		v5.457c-7.88,2.825-13.526,10.346-13.527,19.208c0.002,10.489,7.9,19.118,18.067,20.277c0.755,2.737,1.779,5.411,3.063,7.982
		c4.279,8.555,11.245,16.042,19.684,21.441c8.44,5.393,18.386,8.704,28.658,8.708c10.376-0.01,20.406-3.378,28.903-8.873
		c0.209,1.508,1.488,2.674,3.052,2.674c1.094-0.004,2.648,0.227,4.448,0.751c3.16,0.912,7.081,2.698,11.107,5.362
		c6.05,3.996,12.351,9.95,17.106,17.829c4.755,7.886,8.001,17.679,8.006,29.588c0,23.628,0,65.383,0,65.384
		c0,5.975,1.221,11.888,3.588,17.374l1.453,3.367c0.765,1.773,1.137,3.645,1.137,5.506c-0.001,3.409-1.25,6.767-3.635,9.379
		l-2.333,2.556c-2.709,2.964-6.45,4.517-10.249,4.519c-2.424-0.001-4.856-0.631-7.062-1.937c-0.794-0.47-1.707-0.533-2.521-0.272
		l0.069-0.967c0.693-0.488,1.15-1.293,1.15-2.206c0-0.776-0.331-1.47-0.854-1.962l0.934-13.179c0.121-1.707-1.163-3.189-2.868-3.31
		c-1.705-0.121-3.185,1.164-3.305,2.871l0-0.001l-0.913,12.881l-32.439-0.001c-0.945,0-1.861-0.32-2.602-0.907l-5.574-4.425
		l0.002,0.002c-1.738-1.383-3.85-2.081-5.954-2.08c-1.949-0.001-3.907,0.599-5.572,1.793l-6.753,4.835
		c-0.711,0.509-1.563,0.782-2.436,0.782h-34.494c-0.074,0-0.143,0.016-0.215,0.022l-0.914-12.902
		c-0.018-0.251-0.073-0.49-0.146-0.719c0.174-0.388,0.276-0.814,0.276-1.267V278.77c0-1.711-1.386-3.099-3.094-3.099
		c-1.709,0-3.095,1.387-3.095,3.099v56.271H368.09c-1.709,0-3.095,1.387-3.095,3.099c0,1.711,1.386,3.098,3.095,3.098h11.577v11.445
		c0,0.332,0.066,0.644,0.162,0.943c-0.203,0.452-0.314,0.953-0.276,1.482l0-0.001l1.298,18.315c-0.814-0.262-1.727-0.198-2.52,0.272
		l0-0.001c-2.206,1.307-4.638,1.937-7.063,1.937c-3.8-0.002-7.542-1.555-10.249-4.519l-2.333-2.555
		c-2.385-2.613-3.635-5.971-3.636-9.379c0-1.862,0.372-3.732,1.138-5.504L357.642,350.306z M435.465,214.303
		c-11.98,0.012-23.818-5.217-32.582-13.222c-4.381-3.996-7.986-8.67-10.477-13.658c-2.492-4.991-3.871-10.283-3.871-15.573
		c0-1.634-1.323-2.957-2.953-2.957c-1.631,0-2.953,1.324-2.953,2.957c0,1.346,0.09,2.685,0.235,4.016
		c-2.581-0.646-4.889-1.969-6.72-3.799c-2.626-2.635-4.242-6.243-4.243-10.257c0.001-4.015,1.617-7.623,4.243-10.258
		c0.996-0.995,2.133-1.845,3.377-2.517v10.159h0.544c4.941,0,8.946-4.011,8.946-8.958l15.669-15.528
		c2.393-2.371,6.433-0.409,6.054,2.941c-0.452,4.001,3.311,7.162,7.171,6.032c5.581-1.636,13.165-4.891,19.719-11.311
		c4.91-4.811,7.678-9.352,9.431-13.488c1.145-2.698,4.909-2.918,6.355-0.368c6.299,11.106,18.257,22.422,28.51,27.577v4.145
		c0,4.947,4.006,8.958,8.946,8.958h0.544v-10.159c1.244,0.673,2.38,1.522,3.377,2.517c2.626,2.635,4.242,6.243,4.243,10.258
		c-0.001,4.014-1.617,7.622-4.243,10.257c-1.83,1.829-4.138,3.152-6.719,3.799c0.145-1.331,0.235-2.669,0.235-4.016
		c0-1.634-1.323-2.957-2.953-2.957c-1.631,0-2.953,1.324-2.953,2.957h0c0,5.29-1.379,10.582-3.871,15.573
		c-3.733,7.484-9.987,14.253-17.58,19.102C453.351,211.381,444.452,214.307,435.465,214.303z M421.351,372.949
		c1.999,0,3.947-0.627,5.571-1.79l6.754-4.836c0.735-0.526,1.582-0.784,2.435-0.785c0.925,0.001,1.836,0.301,2.599,0.907
		l0.002,0.002l5.574,4.424c1.692,1.344,3.79,2.076,5.952,2.076h32.056l-0.177,2.497v0.108c0.003,1.936-0.257,5.225-0.73,9.333
		c-1.651,14.434-5.825,39.246-9.58,60.374c-1.878,10.568-3.652,20.229-4.956,27.245c-0.652,3.509-1.187,6.356-1.559,8.326
		c-0.062,0.332-0.118,0.629-0.171,0.909h-4.517c0-1.57-1.271-2.841-2.838-2.841h-20.013v-77.406c0-1.711-1.386-3.099-3.094-3.099
		c-1.709,0-3.095,1.387-3.095,3.099v77.406H409.13c-1.567,0-2.838,1.272-2.838,2.841h-2.096c-0.098-0.518-0.211-1.117-0.341-1.806
		c-1.669-8.863-5.844-31.276-9.598-53.357c-1.877-11.039-3.649-21.998-4.947-31.12c-0.65-4.56-1.181-8.662-1.547-12.072
		c-0.367-3.403-0.565-6.139-0.563-7.83v-0.108l-0.177-2.497H421.351z" style="opacity: 1;"></path>
	<path class="st17" d="M435.722,289.648L435.722,289.648c-1.857,0-3.377,1.521-3.377,3.381c0,1.859,1.519,3.38,3.376,3.38h0.001
		c1.857,0,3.376-1.521,3.376-3.38C439.098,291.169,437.579,289.648,435.722,289.648z" style="opacity: 1;"></path>
	<path class="st17" d="M435.722,325.96L435.722,325.96c-1.857,0-3.377,1.522-3.377,3.381s1.519,3.38,3.376,3.38h0.001
		c1.857,0,3.376-1.521,3.376-3.38S437.579,325.96,435.722,325.96z" style="opacity: 1;"></path>
	<path class="st17" d="M459.799,132.602c-3.319-1.491-7.146-1.491-10.466,0c-2.367,1.06-3.075,3.506-2.031,4.39
		c1.034,0.909,2.753,0.721,4.075,0.166c2.023-0.91,4.355-0.91,6.378,0c1.319,0.554,3.039,0.74,4.074-0.166
		C462.874,136.105,462.165,133.664,459.799,132.602z" style="opacity: 1;"></path>
	<path class="st17" d="M416.363,150.794c-3.026,0-5.501,2.479-5.501,5.507v0.001c0,3.029,2.475,5.508,5.501,5.508
		c3.025,0,5.501-2.479,5.501-5.508v-0.001C421.864,153.273,419.388,150.794,416.363,150.794z" style="opacity: 1;"></path>
	<path class="st17" d="M454.566,150.794c-3.025,0-5.501,2.479-5.501,5.507v0.001c0,3.029,2.475,5.508,5.501,5.508
		c3.026,0,5.501-2.479,5.501-5.508v-0.001C460.067,153.273,457.592,150.794,454.566,150.794z" style="opacity: 1;"></path>
	<path class="st17" d="M432.613,175.994h6.179c0.78,0,1.413-0.634,1.413-1.415c0-0.782-0.633-1.415-1.413-1.415h-4.13
		c-0.972,0-1.862-0.545-2.305-1.411l-0.371-0.724c-0.32-0.626-1.263-0.397-1.263,0.305v2.768
		C430.724,175.146,431.57,175.994,432.613,175.994z" style="opacity: 1;"></path>
	<path class="st17" d="M446.682,185.186c-0.624-0.744-1.797-0.791-2.683-0.244c-0.735,0.461-1.151,1.257-1.072,2.026
		c-4.715,2.235-10.209,2.235-14.925,0c0.079-0.771-0.335-1.568-1.073-2.026c-0.887-0.55-2.062-0.497-2.682,0.244
		c-0.63,0.787-1.26,1.573-1.889,2.361c-0.621,0.737-0.154,2.146,1.133,2.946c1.052,0.655,2.224,0.628,2.802,0.09
		c5.796,2.746,12.546,2.746,18.341,0c0.576,0.536,1.749,0.569,2.804-0.09c1.287-0.798,1.753-2.209,1.133-2.946
		C447.941,186.759,447.312,185.972,446.682,185.186z" style="opacity: 1;"></path>
	<path class="st17" d="M464.719,216.183c-1.318-0.694-2.948-0.186-3.64,1.134l0-0.001l-14.657,27.925v-13.896l-10.822-7.81
		l-10.821,7.811v13.895l-14.656-27.925c-0.693-1.32-2.323-1.827-3.641-1.133c-1.318,0.694-1.825,2.326-1.132,3.646l24.8,47.251
		c0.558,1.068,1.401,1.919,2.36,2.471c0.961,0.555,2.029,0.825,3.091,0.826c1.061-0.001,2.129-0.271,3.089-0.825
		c0.96-0.551,1.803-1.403,2.361-2.471l24.801-47.252C466.544,218.509,466.036,216.877,464.719,216.183z M436.277,264.568
		c-0.09,0.167-0.176,0.242-0.284,0.308c-0.108,0.063-0.248,0.102-0.394,0.101c-0.146,0.001-0.286-0.038-0.393-0.101
		c-0.108-0.066-0.194-0.141-0.284-0.308l-5.036-9.595v-21.009l5.714-4.123l5.714,4.123v21.009L436.277,264.568z" style="opacity: 1;"></path>
	<path class="st17" d="M528.24,265.635c1.193,8.217,4.894,14.991,9.771,20.259c1.194,1.292,2.459,2.493,3.774,3.614
		c-0.027,0.164-0.05,0.329-0.05,0.501h0v28.318h4.984l0,27.118l15.74,133.246c-2.444,0.572-6.075,1.681-9.929,3.79
		c-3.352,1.842-6.874,4.464-9.808,8.188c-2.935,3.718-5.242,8.546-6.165,14.561l-0.036,0.236v3.933
		c0.002,4.199,3.398,7.599,7.592,7.601h54.54c3.905-0.001,7.169-2.964,7.555-6.852l2.864-28.665l7.75-100.618l7.749,100.604
		l2.867,28.682c0.385,3.885,3.649,6.848,7.554,6.85h54.541c4.194-0.002,7.589-3.402,7.591-7.601v-3.934l-0.036-0.235
		c-0.924-6.016-3.23-10.843-6.165-14.561c-4.41-5.59-10.103-8.685-14.639-10.415c-1.973-0.75-3.716-1.236-5.098-1.559l15.74-133.249
		V318.07c0-0.206-0.022-0.406-0.061-0.601c0.555,0.529,1.301,0.857,2.128,0.857c1.709,0,3.094-1.387,3.094-3.098v-52.803
		c0-0.733-0.265-1.398-0.69-1.928l0.451-0.081c4.432-0.797,8.311-3.348,10.828-7.012c0.445,0.346,0.986,0.581,1.589,0.641
		c0.494,0.048,0.984,0.074,1.472,0.074c1.493,0.001,2.92-0.25,4.222-0.743c2.29-0.859,4.113-2.443,5.441-4.3
		c2-2.803,3.071-6.213,3.736-9.801c0.654-3.592,0.864-7.391,0.866-10.976c0-3.539-0.21-6.866-0.44-9.531
		c-0.229-2.652-0.484-4.691-0.56-5.461c-2.626-26.148-10.217-44.82-19.776-57.743c-9.555-12.925-21.041-20.044-31.231-23.169
		c-1.634-0.502-3.365,0.418-3.866,2.054c-0.501,1.636,0.417,3.369,2.052,3.872l0-0.001c8.936,2.748,19.283,9.051,28.072,20.932
		c8.786,11.884,16.049,29.405,18.591,54.676c0.095,0.934,0.332,2.819,0.552,5.374c0.22,2.542,0.417,5.704,0.416,8.997
		c0,2.54-0.118,5.16-0.423,7.616c-0.445,3.686-1.37,6.993-2.681,9.048c-0.652,1.036-1.359,1.752-2.123,2.22
		c-0.771,0.463-1.624,0.733-2.847,0.74c-0.035,0-0.077-0.006-0.112-0.006l4.282-8.525c1.187-2.368,1.786-4.951,1.786-7.539
		c0-2.191-0.428-4.387-1.291-6.457l-1.01-2.425c-1.472-3.533-3.867-6.503-6.842-8.673c0.294-0.417,0.471-0.923,0.471-1.471l0-11.883
		c0.004-2.017-0.841-3.844-2.145-5.111c-0.997-0.974-2.272-1.645-3.673-1.911c0.56-0.254,1.042-0.689,1.326-1.289
		c1.09-2.298,1.583-4.771,1.582-7.241c-0.002-3.213-0.818-6.427-2.22-9.448c-2.11-4.531-5.542-8.657-9.832-11.713
		c-4.286-3.049-9.476-5.033-15.044-5.035c-2.093,0-4.233,0.284-6.372,0.891c-3.432,0.97-6.048,2.268-8.102,3.802
		c-1.54,1.146-2.748,2.412-3.752,3.672c-1.507,1.898-2.58,3.747-3.787,5.405c-1.21,1.665-2.519,3.169-4.562,4.614
		c-0.82,0.575-1.542,1.219-2.191,1.903c-0.197-0.526-0.605-0.968-1.173-1.175c-1.326-0.484-2.572-0.724-3.745-0.724
		c-1.093-0.001-2.121,0.216-3.026,0.61c-1.594,0.693-2.754,1.875-3.613,3.126c-1.288,1.886-2.019,4.007-2.648,5.695
		c-0.308,0.84-0.589,1.573-0.828,2.055c-0.118,0.239-0.226,0.414-0.289,0.497l-0.031,0.037c-1.329,0.802-3.413,2.077-5.301,3.792
		c-0.857,0.78-1.659,1.674-2.346,2.669l-49.266-55.871c-0.389-0.442-0.892-0.719-1.425-0.839c0.997-0.384,1.986-0.732,2.958-1.032
		c1.634-0.502,2.552-2.235,2.051-3.871c-0.501-1.636-2.232-2.556-3.866-2.053l0-0.001c-10.182,3.121-21.599,10.198-30.404,23.174
		c-8.811,12.973-14.947,31.738-14.943,58.048v0.044l1.86,51.806L528.24,265.635z M554.963,297.61
		c0.522,0.225,1.069,0.282,1.595,0.218c8.358,3.425,18.458,6.06,28.798,7.882c10.929,1.92,22.083,2.931,31.603,2.932
		c5.15-0.001,9.819-0.295,13.763-0.923c1.973-0.316,3.766-0.715,5.365-1.221c1.599-0.51,3.008-1.119,4.224-1.931l0.049-0.033
		l-0.02,0.015c0.027-0.019,4.229-2.915,9.616-7.067c5.391-4.159,11.952-9.547,16.787-14.686c1.213-1.29,1.824-2.963,1.821-4.612
		c0-0.242-0.033-0.483-0.059-0.725c1.943-1.033,3.938-2.286,5.913-3.641c4.47-3.075,8.807-6.628,11.48-8.904v50.316
		c0,0.205,0.022,0.406,0.06,0.6c-0.431-0.411-0.979-0.696-1.59-0.803c-0.106-1.615-1.435-2.895-3.074-2.895l-133.37-0.001v-18.18
		C550.223,295.364,552.591,296.584,554.963,297.61z M665.014,478.166h-34.491l-9.672-125.579c-0.132-1.706-1.62-2.982-3.323-2.85
		c-0.247,0.019-0.48,0.074-0.706,0.146c-0.226-0.073-0.459-0.128-0.706-0.146c-1.704-0.132-3.192,1.145-3.323,2.851l0-0.001
		l-9.673,125.579h-34.491l-15.722-133.084l0-26.756h127.828l0,26.754L665.014,478.166z M646.064,186.526
		c0.708-1.796,1.781-3.334,3.477-4.533c2.342-1.647,4.021-3.467,5.343-5.211c0.993-1.308,1.796-2.567,2.569-3.711
		c1.163-1.725,2.237-3.168,3.772-4.435c1.538-1.263,3.588-2.417,6.885-3.357c1.657-0.47,3.293-0.685,4.902-0.685
		c2.848,0,5.625,0.678,8.213,1.876c3.879,1.792,7.311,4.774,9.72,8.208c2.419,3.432,3.782,7.289,3.772,10.713
		c-0.001,1.762-0.344,3.41-1.061,4.926c-0.627,1.322-0.082,2.893,1.212,3.555c-0.418,0.061-0.836,0.151-1.248,0.289l-32.782,10.933
		c0.145-0.232,0.248-0.496,0.287-0.785c0.147-1.088-0.615-2.09-1.702-2.237l0-0.001c-3.72-0.504-8.345-1.145-12.624-1.744
		c-0.034-0.516-0.216-1.024-0.553-1.461l0.005-0.003l-0.003-0.005c-0.034-0.052-0.171-0.339-0.304-0.735
		c-0.42-1.213-0.873-3.454-0.867-5.84C645.076,190.351,645.362,188.314,646.064,186.526z M624.341,198.541
		c0.705-1.118,1.887-2.257,3.143-3.222c1.256-0.97,2.565-1.774,3.525-2.35c0.747-0.463,1.143-1.043,1.478-1.6
		c0.567-0.986,0.945-2.076,1.374-3.226c0.624-1.715,1.329-3.53,2.228-4.749c0.446-0.613,0.92-1.067,1.423-1.364
		c0.507-0.295,1.048-0.466,1.817-0.471c0.627,0,1.412,0.128,2.387,0.484c0.169,0.062,0.34,0.09,0.511,0.105
		c-0.468,0.785-0.867,1.593-1.185,2.411c-1.014,2.601-1.355,5.28-1.357,7.724c0.001,2.23,0.287,4.266,0.682,5.926
		c0.108,0.452,0.225,0.869,0.349,1.265c-1.55-0.219-2.934-0.414-4.016-0.567c-1.622-0.23-2.6-0.369-2.603-0.369
		c-1.086-0.155-2.092,0.602-2.246,1.69c-0.154,1.088,0.602,2.094,1.688,2.249c0.002,0,15.092,2.145,24.775,3.459l-20.087,6.699
		c-0.604,0.201-1.074,0.613-1.377,1.121l-12.841-14.563C624.115,198.976,624.199,198.764,624.341,198.541z M546.417,159.051
		c6.292-9.262,13.928-15.073,21.256-18.474c-0.599,0.984-0.531,2.277,0.27,3.185l72.432,82.144c0.985,1.118,2.689,1.224,3.805,0.237
		c1.116-0.986,1.222-2.692,0.237-3.81l-4.342-4.924l55.161-18.397c0.231-0.077,0.444-0.109,0.65-0.109
		c0.524-0.001,1.04,0.217,1.419,0.588c0.377,0.377,0.602,0.848,0.606,1.452v10.823c-1.881-0.733-3.883-1.201-5.959-1.349
		l-0.352-0.026l-10.803,2.409c-3.089,0.69-5.285,3.432-5.286,6.602v0.371c0.002,3.736,3.023,6.761,6.755,6.762h6.914
		c1.332,0,2.412-1.081,2.412-2.415c0-1.334-1.08-2.415-2.412-2.415v-0.001h-6.914c-1.066-0.002-1.929-0.866-1.93-1.932v-0.371
		c-0.001-0.906,0.628-1.691,1.51-1.887l10.049-2.241c5.776,0.519,10.807,4.182,13.045,9.556l1.01,2.425
		c0.614,1.473,0.919,3.036,0.919,4.597c0,1.842-0.426,3.682-1.272,5.371l-6.052,12.049c-1.687,3.358-4.855,5.726-8.549,6.39
		l-11.45,2.06c-0.497,0.089-0.999,0.132-1.502,0.132c-1.963,0-3.885-0.682-5.42-1.953l-5.583-4.627c-0.6-0.5-0.877-1.17-0.883-1.877
		c0.006-0.745,0.312-1.444,0.959-1.938l0.002-0.002l21.034-16.007c1.06-0.807,1.266-2.322,0.46-3.384
		c-0.806-1.061-2.319-1.268-3.379-0.461l-21.034,16.006l0.002-0.002c-1.899,1.438-2.875,3.634-2.869,5.787
		c-0.006,2.054,0.883,4.152,2.631,5.598l5.584,4.628c2.408,1.992,5.417,3.061,8.495,3.061c0.296,0,0.594-0.019,0.893-0.039
		c-0.714,0.581-1.464,1.183-2.258,1.805c-3.672,2.884-8.096,6.03-11.588,7.802c-1.015-0.57-2.156-0.88-3.316-0.88
		c-0.946,0-1.913,0.199-2.821,0.618l0.008-0.004l-7.794,3.561c-0.299-1.772-1.143-3.361-2.349-4.553
		c-1.514-1.507-3.611-2.434-5.886-2.434c-0.426,0-0.857,0.033-1.288,0.1l0.004-0.001c-2.002,0.308-4.452,0.712-7.35,1.24
		c-5.159,0.935-9.075,3.312-11.883,5.749c-1.22,1.056-2.231,2.12-3.075,3.094c-0.067-0.025-0.128-0.058-0.198-0.078l0-0.001
		l-13.432-3.774c0.295-0.929,0.088-1.983-0.647-2.721l-0.629-0.633c-10.645-10.691-18.77-23.629-23.783-37.865l-0.006-0.017
		l-27.423-76.26c-0.505-1.403-2.05-2.13-3.45-1.625c-1.401,0.505-2.127,2.052-1.623,3.455l0-0.001l27.423,76.26l-0.006-0.017
		c4.888,13.884,12.618,26.568,22.631,37.314l-29.982-8.424c-0.628-0.176-1.093-0.708-1.182-1.356l-4.294-30.939
		c-0.195-1.399-1.485-2.375-2.881-2.18c-1.397,0.194-2.372,1.486-2.177,2.885l4.294,30.937c0.369,2.662,2.278,4.852,4.862,5.577
		l49.531,13.917c-0.086,0.896,0.271,1.815,1.039,2.403c1.183,0.905,2.874,0.68,3.779-0.504l0-0.001
		c0.511-0.67,1.116-1.5,1.898-2.432c1.168-1.394,2.712-2.987,4.707-4.361c1.998-1.374,4.432-2.535,7.475-3.09
		c2.849-0.52,5.25-0.916,7.203-1.215l0.004-0.001c0.159-0.025,0.312-0.036,0.462-0.036c0.803,0,1.539,0.324,2.089,0.867
		c0.546,0.549,0.879,1.272,0.881,2.131c0,0.324,0.066,0.63,0.171,0.918l-8.695,3.972c-1.355,0.619-1.952,2.22-1.334,3.577
		c0.618,1.357,2.217,1.955,3.572,1.336l21.583-9.861l0.008-0.004c0.182-0.083,0.37-0.123,0.567-0.123
		c0.419,0.001,0.824,0.187,1.095,0.534c0.205,0.262,0.303,0.568,0.303,0.876c-0.003,0.345-0.118,0.657-0.357,0.914
		c-4.455,4.746-10.879,10.048-16.149,14.107c-2.637,2.033-4.99,3.762-6.68,4.98c-0.845,0.61-1.524,1.091-1.99,1.419
		c-0.233,0.164-0.413,0.29-0.534,0.374l-0.159,0.11c-0.613,0.413-1.584,0.867-2.844,1.265c-1.897,0.604-4.432,1.09-7.404,1.41
		c-2.974,0.321-6.389,0.483-10.095,0.482c-9.141,0.001-20.044-0.981-30.67-2.851c-10.06-1.766-19.863-4.347-27.704-7.565
		c-0.306-0.379-0.693-0.701-1.171-0.907c-5.398-2.329-10.708-5.736-14.859-10.235c-4.13-4.482-7.136-9.991-8.167-16.826
		l-1.558-43.395h27.379c1.41,0,2.554-1.145,2.554-2.557c0-1.412-1.143-2.558-2.554-2.558h-27.563l-0.1-2.772
		C532.557,188.231,538.434,170.814,546.417,159.051z" style="opacity: 1;"></path>
	<path class="st17" d="M665.255,186.043c1.083,0.622,2.272,0.883,3.422,0.884c0.636-0.001,1.259-0.082,1.855-0.233
		c1.063-0.269,1.707-1.351,1.439-2.415c-0.269-1.065-1.349-1.709-2.412-1.44c-0.286,0.071-0.59,0.111-0.882,0.11
		c-0.729,0.001-1.379-0.23-1.794-0.609c-0.213-0.194-0.388-0.427-0.529-0.763c-0.139-0.336-0.242-0.787-0.242-1.404
		c0-1.099-0.89-1.989-1.986-1.989c-1.097,0-1.986,0.89-1.986,1.989h0c0,1.067,0.184,2.055,0.546,2.928
		C663.223,184.415,664.175,185.427,665.255,186.043z" style="opacity: 1;"></path>
	<polygon class="st17" points="585.734,147.576 585.734,147.576 585.734,147.575 	" style="opacity: 1;"></polygon>
	<path class="st17" d="M617.337,167.9c14.038-0.003,26.11-8.345,31.601-20.325c0.621-1.355,0.028-2.957-1.324-3.579
		c-1.353-0.622-2.953-0.028-3.575,1.326c-4.655,10.134-14.842,17.182-26.702,17.179c-11.861,0.003-22.05-7.046-26.704-17.18
		c-0.622-1.355-2.223-1.948-3.575-1.326c-1.353,0.622-1.945,2.225-1.324,3.58C591.226,159.556,603.298,167.897,617.337,167.9z" style="opacity: 1;"></path>
	<path class="st17" d="M633.115,67.058c2.023-0.91,4.355-0.91,6.378,0c1.319,0.554,3.039,0.739,4.074-0.166
		c1.045-0.886,0.335-3.328-2.031-4.389c-3.319-1.493-7.146-1.493-10.466,0c-2.367,1.06-3.075,3.506-2.031,4.389
		C630.074,67.801,631.793,67.613,633.115,67.058z" style="opacity: 1;"></path>
	<path class="st17" d="M594.911,67.058c2.023-0.91,4.355-0.91,6.378,0c1.32,0.554,3.04,0.739,4.075-0.166
		c1.045-0.886,0.335-3.328-2.031-4.389c-3.32-1.493-7.146-1.493-10.466,0c-2.367,1.06-3.075,3.506-2.031,4.389
		C591.871,67.801,593.59,67.613,594.911,67.058z" style="opacity: 1;"></path>
	<ellipse class="st17" cx="598.1" cy="86.203" rx="5.501" ry="5.508" style="opacity: 1;"></ellipse>
	<ellipse class="st17" cx="636.304" cy="86.203" rx="5.501" ry="5.508" style="opacity: 1;"></ellipse>
	<path class="st17" d="M620.53,105.894c0.78,0,1.413-0.633,1.413-1.415c0-0.781-0.633-1.414-1.413-1.414h-4.13
		c-0.972,0-1.862-0.545-2.305-1.41l-0.371-0.725c-0.32-0.625-1.263-0.397-1.263,0.305v2.767c0,1.046,0.846,1.892,1.889,1.892H620.53
		z" style="opacity: 1;"></path>
	<path class="st17" d="M665.544,119.969c1.284-2.57,2.308-5.244,3.063-7.982c10.166-1.159,18.064-9.787,18.066-20.277
		c-0.002-8.862-5.647-16.382-13.526-19.208c0-1.935,0-3.869,0-5.804c0-1.43,0.013-2.861-0.036-4.291
		c-0.302-8.949-2.836-17.829-7.372-25.552c-4.334-7.378-10.308-13.735-17.473-18.429c-7.566-4.957-16.333-7.986-25.346-8.724
		c-3.113-0.255-6.307-0.268-9.431-0.128c-4.536,0.204-9.045,0.978-13.389,2.303c-7.82,2.386-15.064,6.56-21.084,12.095
		c-6.188,5.691-11.054,12.793-14.092,20.639c-2.581,6.664-3.668,13.651-3.668,20.775c0,2.372,0,4.743,0,7.115
		c-7.88,2.825-13.526,10.346-13.528,19.208c0.002,10.49,7.901,19.118,18.067,20.277c0.755,2.737,1.779,5.412,3.063,7.982
		c4.278,8.555,11.245,16.042,19.684,21.441c8.439,5.393,18.386,8.704,28.658,8.708c13.699-0.012,26.803-5.874,36.561-14.765
		C658.643,130.901,662.694,125.674,665.544,119.969z M642.681,136.426c-7.593,4.855-16.491,7.781-25.479,7.778
		c-11.98,0.012-23.818-5.217-32.583-13.222c-4.381-3.996-7.986-8.67-10.476-13.658c-2.492-4.99-3.871-10.283-3.871-15.573
		c0-1.634-1.323-2.957-2.953-2.957c-1.631,0-2.953,1.324-2.953,2.957c0,1.346,0.09,2.685,0.235,4.015
		c-2.581-0.646-4.889-1.969-6.72-3.799c-2.626-2.634-4.242-6.242-4.243-10.257c0.001-4.015,1.617-7.623,4.243-10.258
		c0.996-0.996,2.133-1.845,3.378-2.517c-0.001,1.286-0.006,2.573,0,3.858c0.005,0.955,0.379,1.829,1.196,2.365
		c1.275,0.837,2.613,0.393,3.619-0.595c1.823-1.791,3.849-3.368,5.718-5.111c2.288-2.134,4.44-4.463,6.059-7.156
		c1.832-3.049,2.705-6.349,2.708-9.9c0.004-3.785-0.662-7.524-2.048-11.048c-0.12-0.305,0.049-0.366,0.272-0.576
		c0.154-0.146,0.312-0.288,0.475-0.424c0.263-0.22,0.539-0.425,0.836-0.598c0.602-0.35,1.271-0.54,1.95-0.683
		c3.041-0.638,6.136-0.976,9.173-1.661c8.752-1.977,16.812-6.611,24.099-11.716c0.434-0.304,0.865-0.61,1.294-0.92
		c0.16-0.114,0.459-0.431,0.639-0.462s0.422,0.405,0.57,0.592c0.655,0.83,1.343,1.636,2.063,2.411
		c1.501,1.614,3.146,3.099,4.94,4.381c1.386,0.991,2.948,1.485,4.645,1.068c1.564-0.384,2.889-1.473,3.577-2.93
		c0.759-1.607,1.434-3.259,2.149-4.886c0.407-0.927,0.814-1.854,1.221-2.782c0.353-0.803,0.745-1.536,1.633-1.863
		c1.948-0.717,3.217,1.222,4.343,2.469c1.522,1.685,3,3.411,4.409,5.192c2.563,3.241,4.99,6.693,6.672,10.485
		c0.688,1.552,1.251,3.179,1.51,4.862c0.123,0.802-0.254,1.615-0.429,2.401c-0.211,0.95-0.373,1.912-0.488,2.878
		c-0.451,3.793-0.317,7.653,1.201,11.2c2.419,5.653,7.241,9.561,11.719,13.531c0.824,0.731,1.67,1.877,2.752,2.191
		c1.323,0.383,2.795-0.369,3.258-1.666c0.175-0.488,0.155-0.989,0.155-1.497c0-0.705,0-1.41,0-2.114c0-0.431,0-0.863,0-1.294
		c1.244,0.672,2.38,1.521,3.375,2.516c2.626,2.635,4.242,6.243,4.243,10.258c-0.001,4.015-1.617,7.623-4.243,10.257
		c-1.83,1.829-4.138,3.152-6.719,3.799c0.145-1.331,0.235-2.669,0.235-4.015c0-1.634-1.323-2.957-2.953-2.957
		c-1.631,0-2.953,1.324-2.953,2.957h0c0,5.29-1.379,10.582-3.871,15.573C656.529,124.808,650.275,131.577,642.681,136.426z" style="opacity: 1;"></path>
	<path class="st17" d="M628.42,115.086c-0.624-0.744-1.797-0.791-2.683-0.243c-0.735,0.46-1.151,1.256-1.072,2.025
		c-4.715,2.235-10.209,2.235-14.925,0.001c0.079-0.771-0.335-1.568-1.073-2.026c-0.887-0.551-2.062-0.498-2.682,0.243
		c-0.63,0.787-1.26,1.574-1.889,2.361c-0.621,0.738-0.154,2.146,1.133,2.947c1.052,0.655,2.224,0.628,2.802,0.089
		c5.796,2.746,12.546,2.746,18.341,0c0.576,0.536,1.749,0.57,2.804-0.089c1.287-0.799,1.753-2.209,1.133-2.947
		C629.679,116.66,629.05,115.872,628.42,115.086z" style="opacity: 1;"></path>
	<path class="st17" d="M636.571,70.13c-2.051,0-4.054,0.373-5.953,1.107c-1.168,0.452-1.751,1.771-1.3,2.941
		c0.335,0.87,1.187,1.454,2.118,1.454c0.28,0,0.555-0.051,0.818-0.153c1.375-0.532,2.828-0.802,4.318-0.802
		c3.201,0.001,6.214,1.25,8.481,3.517c2.264,2.271,3.512,5.287,3.513,8.493c-0.001,3.206-1.248,6.221-3.513,8.492
		c-2.268,2.267-5.28,3.516-8.481,3.517c-3.201-0.001-6.214-1.25-8.481-3.517c-2.264-2.27-3.512-5.286-3.513-8.492
		c0.001-2.486,0.752-4.87,2.173-6.897c0.349-0.497,0.484-1.1,0.38-1.698c-0.105-0.599-0.435-1.12-0.931-1.469
		c-0.385-0.271-0.836-0.414-1.305-0.414c-0.739,0-1.434,0.361-1.859,0.966c-1.498,2.132-2.475,4.63-2.834,7.244h-5.996
		c-0.488-3.557-2.146-6.901-4.684-9.44c-3.12-3.127-7.271-4.85-11.694-4.85c-2.051,0-4.054,0.373-5.953,1.107
		c-1.167,0.452-1.751,1.771-1.3,2.941c0.335,0.87,1.187,1.454,2.119,1.454c0.279,0,0.555-0.051,0.818-0.153
		c1.375-0.532,2.829-0.802,4.318-0.802c3.201,0.001,6.214,1.25,8.481,3.517c2.264,2.271,3.512,5.287,3.513,8.493
		c-0.001,3.206-1.248,6.221-3.513,8.492c-2.268,2.267-5.28,3.516-8.481,3.517c-3.201-0.001-6.213-1.25-8.481-3.517
		c-2.265-2.27-3.513-5.286-3.513-8.492c0.001-2.486,0.752-4.87,2.173-6.897c0.349-0.497,0.484-1.1,0.38-1.698
		c-0.104-0.599-0.435-1.12-0.931-1.469c-0.384-0.271-0.836-0.414-1.304-0.414c-0.74,0-1.435,0.361-1.859,0.966
		c-1.963,2.794-3.001,6.083-3,9.512c-0.001,4.424,1.719,8.582,4.843,11.707c3.12,3.127,7.27,4.85,11.696,4.85
		c4.417,0,8.569-1.722,11.688-4.85c2.538-2.539,4.196-5.882,4.684-9.44h5.988c0.489,3.558,2.146,6.901,4.684,9.44
		c3.12,3.127,7.271,4.85,11.693,4.85h0.004c4.417,0,8.569-1.722,11.688-4.85c3.125-3.124,4.845-7.282,4.843-11.707
		c0.001-4.425-1.719-8.583-4.843-11.707C645.145,71.853,640.994,70.13,636.571,70.13z" style="opacity: 1;"></path>
	<path class="st17" d="M8.344,350.19c4.279,4.687,10.213,7.151,16.21,7.149c0.145,0,0.279-0.001,0.402-0.003
		c0.8-0.009,1.518-0.329,2.062-0.834l-14.34,79.29h34.592l3.217,42.95c-2.191,0.593-5.386,1.722-8.778,3.821
		c-3.002,1.865-6.156,4.515-8.784,8.233c-2.631,3.713-4.712,8.485-5.627,14.434l-0.036,0.234v3.935
		c0.002,4.199,3.398,7.599,7.592,7.601h54.541c1.675-0.001,3.212-0.57,4.475-1.499c1.262,0.93,2.801,1.498,4.475,1.499h54.541
		c4.194-0.002,7.589-3.402,7.591-7.601v-3.93l-0.036-0.239c-0.915-5.949-2.996-10.721-5.627-14.434
		c-3.95-5.582-9.049-8.738-13.111-10.492c-1.712-0.739-3.23-1.226-4.452-1.556l3.217-42.956h34.593l-19.711-108.99
		c-0.314-1.736-1.974-2.887-3.707-2.573c-1.733,0.314-2.883,1.976-2.569,3.712l18.349,101.464H20.314l18.282-101.084
		c0.098-0.301,0.164-0.616,0.164-0.95v-21.999h110.038c0.815,0,1.55-0.322,2.103-0.837v9.971c0,1.711,1.386,3.098,3.095,3.098
		c1.395,0,2.561-0.931,2.947-2.2c0.388,1.267,1.552,2.195,2.945,2.195h14.892c1.709,0,3.094-1.387,3.094-3.098
		c0-0.126-0.023-0.245-0.037-0.366c0.655,2.865,1.557,5.674,2.727,8.386l1.614,3.74c0.869,2.015,1.292,4.141,1.292,6.254
		c-0.001,3.871-1.42,7.687-4.129,10.654l-2.592,2.84c-3.077,3.368-7.327,5.131-11.643,5.133c-0.203,0-0.404-0.003-0.602-0.011
		c-1.708-0.065-3.145,1.27-3.209,2.98c-0.064,1.71,1.269,3.149,2.977,3.213l0-0.001c0.281,0.01,0.56,0.015,0.835,0.015
		c2.454,0.001,4.89-0.434,7.213-1.242c0.173,0.23,0.368,0.447,0.61,0.628l0-0.001l28.168,21.048c2.308,1.727,5.03,2.565,7.703,2.563
		c4.069,0.005,8.104-1.94,10.609-5.558l2.672-3.864v28.26c0,1.711,1.386,3.098,3.095,3.098c1.709,0,3.094-1.387,3.094-3.098V363.24
		c0-0.397-0.081-0.774-0.217-1.123c0.507-1.306,0.084-2.834-1.116-3.666c-1.405-0.974-3.333-0.623-4.305,0.784l-8.31,12.014
		c-1.31,1.89-3.388,2.886-5.522,2.891c-1.398-0.002-2.786-0.427-4.002-1.333l-26.564-19.849c1.094-0.817,2.134-1.727,3.082-2.765
		l2.593-2.841c2.583-2.83,4.304-6.222,5.145-9.807l14.361,12.107l1.64-3.854c3.027-7.121,7.529-15.338,12.952-22.337
		c1.084-1.401,2.214-2.734,3.365-4.019c0.073,0.121,0.156,0.237,0.253,0.346l90.005,100.212c0.088,0.098,0.187,0.182,0.287,0.262
		v2.413h-77.702c-1.254,0-2.27,1.018-2.27,2.273c0,1.255,1.016,2.273,2.27,2.273h77.702v26.866l-92.244-0.001l9.495-45.461
		c0.32-1.537-0.663-3.042-2.197-3.362c-1.534-0.321-3.038,0.663-3.358,2.2l0-0.001l-10.926,52.306h22.985l3.053,25.094
		c-2,0.503-4.764,1.405-7.697,3.009c-2.775,1.525-5.702,3.702-8.143,6.801c-2.443,3.093-4.362,7.117-5.126,12.099l-0.036,0.234
		v3.242c0.002,3.732,3.02,6.754,6.747,6.755h44.3c0.669,0,1.306-0.125,1.918-0.308c0.403,0.192,0.848,0.308,1.323,0.308
		c0.51,0,0.983-0.135,1.407-0.354c0.659,0.214,1.351,0.354,2.077,0.354h44.3c3.727-0.001,6.745-3.023,6.747-6.755v-3.239
		l-0.036-0.237c-0.764-4.982-2.683-9.006-5.126-12.099c-3.672-4.653-8.392-7.214-12.14-8.643c-1.388-0.528-2.649-0.902-3.7-1.167
		l3.053-25.094h3.404c0.407,3.781,3.564,6.733,7.448,6.734h5.926c4.159-0.001,7.527-3.374,7.529-7.538v-32.681
		c0-0.3-0.059-0.582-0.144-0.853c3.765-0.737,7.317-2.643,10.058-5.642l2.107-2.309c3.162-3.463,4.823-7.923,4.822-12.44
		c0-2.468-0.496-4.957-1.509-7.307l-1.311-3.039c-1.818-4.213-2.755-8.753-2.755-13.341c0-0.001,0-6.914,0-28.237
		c0.009-13.107-4.02-23.624-9.72-31.546c-2.988-4.158-6.418-7.594-9.958-10.398c3.989,0.425,7.514,0.354,10.339,0.103
		c3.304-0.293,4.913-4.2,2.839-6.792l-0.337-0.421c-5.408-6.759-9.201-14.665-11.089-23.117l-0.18-0.808
		c5.261-3.301,8.769-9.141,8.771-15.818c-0.002-7.259-4.142-13.56-10.184-16.644c-0.657-0.336-1.378-0.389-2.042-0.226v-7.844
		c0-2.977-0.297-5.887-0.818-8.722c1.46,0.569,2.655,1.052,3.766,1.4l0.006,0.001c1.137,0.336,2.231,0.406,3.49,0.415
		c1.807-0.002,3.888-0.216,6.074-0.613c3.277-0.604,6.741-1.594,9.652-3.094c1.456-0.761,2.79-1.644,3.897-2.837
		c0.55-0.599,1.042-1.285,1.407-2.085c0.365-0.797,0.59-1.718,0.587-2.665c0.004-1.289-0.412-2.559-1.086-3.652
		c-0.676-1.103-1.592-2.074-2.73-3.004c-1.621-1.317-3.585-2.442-5.851-3.484c-3.963-1.815-8.865-3.364-14.355-4.714
		c-1.544-0.378-3.146-0.735-4.772-1.081c0.791-0.746,1.12-1.911,0.739-3.004l0-0.001c-3.652-10.48-10.445-19.473-19.254-25.85
		c-8.807-6.379-19.649-10.142-31.348-10.14c-12.033-0.001-23.159,3.979-32.097,10.691c-8.94,6.711-15.715,16.155-19.1,27.104
		c-0.186,0.602-0.154,1.216,0.038,1.77c-3.14,0.721-6.121,1.508-8.866,2.363c-2.813,0.877-5.382,1.824-7.648,2.863
		c-2.266,1.043-4.23,2.167-5.851,3.484c-1.137,0.929-2.054,1.9-2.73,3.003c-0.674,1.094-1.09,2.364-1.086,3.653
		c-0.004,1.269,0.401,2.467,0.992,3.429c1.051,1.693,2.545,2.818,4.181,3.769c2.468,1.403,5.394,2.375,8.305,3.058
		c2.914,0.674,5.772,1.038,8.14,1.042c1.26-0.009,2.356-0.08,3.496-0.418c0.805-0.252,1.651-0.574,2.608-0.948
		c-0.467,2.694-0.733,5.452-0.733,8.27v7.905c-0.727-0.246-1.548-0.212-2.286,0.165c-6.043,3.083-10.182,9.384-10.184,16.643
		c0.001,6.676,3.51,12.516,8.771,15.818l-0.18,0.808c-1.888,8.452-5.681,16.359-11.089,23.117l-0.337,0.421
		c-2.074,2.592-0.465,6.499,2.839,6.792c3.159,0.28,7.197,0.328,11.775-0.283c-4.499,4.173-8.521,9.213-12.01,14.493
		c-3.076,4.658-5.717,9.49-7.885,14.094l-8.985-7.574c-0.719-0.606-1.63-0.814-2.49-0.674c-0.138-2.549-0.694-5.098-1.74-7.522
		l-1.615-3.741c-2.276-5.276-3.451-10.962-3.451-16.71v-72.289c0-0.001,0-5.678,0-31.93c0.002-10.999-2.308-20.667-6.003-28.926
		c-5.545-12.397-14.154-21.609-22.699-27.747c-2.87-2.06-5.724-3.747-8.482-5.126c8.148,1.997,18.793,0.729,27.754-7.165
		c2.873-2.959,4.037-7.052,1.832-7.733c-12.71-3.929-14.018-6.982-14.018-23.237V61.384C161.179,37.683,142.541,0,93.867,0
		S26.556,36.924,26.556,61.384V99.2c0,16.255-1.307,19.308-14.018,23.237c-2.205,0.681-1.041,4.774,1.833,7.733
		c14.267,12.57,32.806,8.357,38.719,0.871c0.718,0.81,1.464,1.599,2.232,2.371c-2.484,0.406-5.201,1.226-8.118,2.445
		c-4.241,1.783-8.855,4.42-13.424,7.932c-1.356,1.042-1.611,2.988-0.569,4.345c1.041,1.357,2.984,1.612,4.34,0.57l0-0.001
		c2.643-2.033,5.285-3.699,7.822-5.07l40.097,54.251c1.845,2.503,4.693,3.785,7.484,3.776c2.789,0.009,5.637-1.272,7.483-3.775
		l40.625-54.966c0.169-0.23,0.286-0.479,0.378-0.735c2.261,1.041,4.666,2.359,7.111,3.976c6.761,4.465,13.799,11.116,19.111,19.919
		c5.314,8.811,8.94,19.758,8.945,33.054c0,26.252,0,31.929,0,31.93v72.289c0,3.396,0.364,6.773,1.068,10.078
		c-0.436-1.182-1.562-2.029-2.894-2.029h-14.892c-1.242,0-2.305,0.737-2.798,1.793V208.739c0-1.711-1.386-3.099-3.094-3.099
		c-1.709,0-3.095,1.387-3.095,3.099v91.275c-0.553-0.515-1.288-0.837-2.103-0.837H38.76v-90.437c0-1.711-1.386-3.099-3.094-3.099
		c-1.709,0-3.095,1.387-3.095,3.099v102.664H19.38c-1.709,0-3.095,1.387-3.095,3.099c0,1.711,1.386,3.098,3.095,3.098h13.19v8.575
		c-0.08,0.199-0.142,0.409-0.182,0.629l0-0.001l-4.712,26.052c-0.514-1.025-1.569-1.728-2.791-1.714l-0.333,0.002
		c-4.317-0.002-8.566-1.765-11.642-5.133l-2.593-2.84c-2.71-2.969-4.128-6.783-4.129-10.654c0-2.113,0.423-4.238,1.293-6.253
		l1.614-3.741c2.612-6.052,3.958-12.575,3.958-19.167v-72.289c0-0.001,0-5.678,0-31.93c0.006-14.54,4.341-26.278,10.483-35.472
		c0.951-1.422,0.571-3.346-0.849-4.298c-1.42-0.952-3.342-0.572-4.292,0.85l0-0.001c-6.764,10.096-11.537,23.127-11.53,38.92
		c0,26.252,0,31.929,0,31.93v72.289c0,5.748-1.174,11.435-3.451,16.71l-1.614,3.74C0.591,326.606,0,329.573,0,332.515
		c-0.001,5.386,1.979,10.704,5.75,14.835L8.344,350.19z M90.773,478.166H56.65l-3.174-42.373h37.297L90.773,478.166z
		 M131.084,478.166H96.962v-42.374h37.296L131.084,478.166z M225.001,316.746c-0.179-0.199-0.389-0.351-0.611-0.472
		c0.769-0.742,1.547-1.453,2.334-2.124c0.421-0.359,0.85-0.678,1.275-1.014l87.865,97.83v6.233
		c-0.257-0.109-0.537-0.168-0.826-0.197c-0.012-0.014-0.019-0.03-0.032-0.044L225.001,316.746z M299.304,484.875h-24.198v-21.552
		c0-1.711-1.386-3.099-3.094-3.099c-1.709,0-3.095,1.387-3.095,3.099v21.552h-23.955l-3.055-25.108h60.452L299.304,484.875z
		 M327.226,458.963c-0.002,1.024-0.831,1.854-1.854,1.856h-5.926c-1.023-0.002-1.852-0.832-1.854-1.856v-37.694
		c0.286,0.142,0.594,0.239,0.922,0.286c0.232,0.669,0.679,1.267,1.334,1.655l0-0.001c2.334,1.384,4.879,2.19,7.448,2.461
		c-0.043,0.197-0.07,0.401-0.07,0.612L327.226,458.963z M312.141,310.668c5.793,2.778,12.292,7.557,17.282,14.516
		c4.992,6.97,8.547,16.088,8.557,27.929c0,21.323,0,28.237,0,28.237c0,5.434,1.111,10.811,3.263,15.799l1.311,3.038
		c0.674,1.563,1.002,3.211,1.002,4.85c-0.001,3.002-1.101,5.959-3.201,8.26l-2.106,2.308c-2.385,2.609-5.68,3.976-9.027,3.978
		c-2.136-0.001-4.277-0.556-6.221-1.706c-0.302-0.179-0.623-0.286-0.948-0.354v-17.157h10.133c1.709,0,3.094-1.387,3.094-3.098
		c0-1.711-1.386-3.099-3.094-3.099h-10.133v-33.255c0-1.711-1.386-3.099-3.094-3.099c-1.709,0-3.095,1.387-3.095,3.099v43.253
		l-63.082-70.236c1.462,0.369,2.963,0.585,4.489,0.587c2.972,0.002,6.005-0.751,8.797-2.365c1.885-1.086,3.637-2.592,5.218-4.449
		c1.582,1.858,3.333,3.363,5.218,4.449c2.792,1.613,5.825,2.366,8.797,2.364c5.164-0.006,10.122-2.222,13.81-5.928
		c3.69-3.702,6.119-8.966,6.115-15.009c0-1.167-0.089-2.362-0.276-3.579c-0.215-1.396-1.519-2.354-2.913-2.139
		c-1.394,0.215-2.35,1.521-2.136,2.917l0-0.001c0.148,0.961,0.217,1.896,0.217,2.801c-0.004,4.664-1.841,8.59-4.627,11.4
		c-2.788,2.807-6.516,4.427-10.191,4.422c-2.123-0.002-4.236-0.524-6.246-1.682c-2.008-1.161-3.932-2.97-5.6-5.647
		c-0.012-0.02-0.029-0.035-0.042-0.054c-0.05-0.076-0.109-0.146-0.168-0.218c-0.051-0.062-0.101-0.126-0.157-0.182
		c-0.054-0.054-0.115-0.101-0.174-0.151c-0.074-0.062-0.147-0.123-0.226-0.175c-0.018-0.012-0.033-0.028-0.051-0.04
		c-0.044-0.027-0.091-0.042-0.136-0.067c-0.084-0.046-0.168-0.09-0.256-0.126c-0.073-0.03-0.148-0.052-0.223-0.075
		c-0.082-0.025-0.163-0.049-0.247-0.065c-0.08-0.015-0.159-0.024-0.239-0.032c-0.084-0.008-0.168-0.015-0.253-0.015
		c-0.078,0-0.154,0.006-0.232,0.014c-0.087,0.008-0.172,0.017-0.258,0.034c-0.078,0.016-0.154,0.038-0.231,0.061
		c-0.08,0.024-0.159,0.047-0.237,0.08c-0.085,0.034-0.165,0.077-0.245,0.121c-0.047,0.025-0.097,0.042-0.143,0.07
		c-0.019,0.012-0.034,0.028-0.053,0.041c-0.076,0.051-0.147,0.11-0.218,0.169c-0.063,0.052-0.126,0.101-0.183,0.158
		c-0.053,0.053-0.099,0.112-0.148,0.171c-0.063,0.075-0.125,0.149-0.178,0.23c-0.012,0.018-0.027,0.032-0.038,0.05
		c-1.669,2.678-3.593,4.487-5.601,5.648c-2.011,1.158-4.124,1.679-6.247,1.682c-3.675,0.006-7.403-1.614-10.191-4.422
		c-2.786-2.81-4.623-6.736-4.627-11.401c0-0.904,0.07-1.838,0.218-2.8c0.214-1.396-0.742-2.702-2.135-2.916
		c-1.394-0.215-2.698,0.742-2.913,2.138l0-0.001c-0.187,1.216-0.277,2.411-0.277,3.579c-0.001,1.204,0.12,2.365,0.303,3.5
		l-5.906-6.576c1.473-0.894,2.957-1.653,4.445-2.223c1.13-0.434,1.847-1.462,1.96-2.592c0.609-0.304,1.22-0.618,1.833-0.953
		c1.911,1.651,3.936,3.186,6.081,4.559c7.638,4.88,16.642,7.88,25.951,7.884c11.928-0.012,23.331-4.918,32.041-12.439
		c2.143,1.17,4.26,2.14,6.338,2.957C310.322,308.913,310.975,310.108,312.141,310.668z M243.32,181.708
		c8.001-6.003,17.914-9.554,28.692-9.556c10.479,0.001,20.14,3.359,28.022,9.063c7.88,5.704,13.959,13.755,17.221,23.118
		c0.028,0.08,0.071,0.15,0.105,0.226c-14.737-2.763-31.584-4.252-44.029-4.259h-1.32c-11.553,0.003-26.901,1.292-40.832,3.68
		c-1.535,0.264-3.049,0.543-4.542,0.833C229.768,195.519,235.635,187.476,243.32,181.708z M217.968,226.358
		c-0.095,0.041-0.786,0.153-1.677,0.144c-1.305,0.002-3.094-0.171-4.965-0.513c-2.808-0.506-5.845-1.419-7.915-2.501
		c-1.035-0.531-1.81-1.109-2.191-1.533c-0.194-0.21-0.29-0.371-0.327-0.455l-0.031-0.098c0.004-0.006-0.016-0.094,0.177-0.42
		c0.191-0.316,0.612-0.825,1.357-1.429c1.028-0.843,2.578-1.768,4.523-2.658c3.407-1.567,8.009-3.045,13.251-4.33
		c15.741-3.876,37.269-6.075,51.842-6.066h1.32c11.103-0.003,26.243,1.264,39.785,3.591c6.77,1.161,13.15,2.589,18.398,4.225
		c2.623,0.817,4.962,1.686,6.908,2.58c1.945,0.89,3.495,1.815,4.521,2.656c0.746,0.606,1.167,1.114,1.358,1.431
		c0.193,0.326,0.173,0.415,0.177,0.42c-0.004,0.006,0.017,0.022-0.089,0.205c-0.168,0.312-0.851,0.988-1.965,1.61
		c-1.657,0.955-4.144,1.829-6.635,2.402c-2.489,0.583-5.024,0.885-6.739,0.881c-0.891,0.009-1.585-0.103-1.682-0.144l0.006,0.001
		c-0.987-0.297-2.812-1.071-5.349-2.017c-3.83-1.425-9.367-3.231-17.245-4.659c-7.882-1.43-18.119-2.493-31.45-2.493h-1.32
		c-17.774-0.001-30.053,1.891-38.572,4.019c-4.256,1.062-7.573,2.184-10.123,3.133C220.779,225.286,218.955,226.06,217.968,226.358z
		 M221.662,253.18v3.198c0,2.153,2.608,3.23,4.115,1.694c3.553-3.62,12.876-9.473,13.233-18.997
		c0.148-3.944-0.445-7.044-1.291-9.616h32.269c3.8,0,7.134-2.442,8.342-6.016c3.165,0.068,6.128,0.198,8.896,0.381
		c1.319,3.383,4.566,5.635,8.212,5.635h11.111c-0.844,2.572-1.439,5.672-1.291,9.616c0.357,9.524,9.68,15.378,13.233,18.997
		c1.508,1.536,4.115,0.459,4.115-1.694v-3.051c3.772,2.22,6.321,6.292,6.319,10.989c-0.001,3.532-1.422,6.704-3.733,9.022
		c-1.514,1.514-3.398,2.635-5.505,3.237c0.103-1.07,0.173-2.143,0.173-3.224c0-1.634-1.323-2.957-2.953-2.957
		c-1.631,0-2.953,1.324-2.953,2.957h0c0,4.709-1.227,9.427-3.453,13.884c-3.332,6.682-8.924,12.739-15.716,17.075
		c-6.791,4.343-14.747,6.957-22.772,6.954c-10.696,0.012-21.287-4.662-29.125-11.823c-3.918-3.574-7.14-7.753-9.363-12.206
		c-2.226-4.456-3.453-9.174-3.453-13.884c0-1.634-1.323-2.957-2.953-2.957c-1.631,0-2.953,1.324-2.953,2.957
		c0,1.08,0.07,2.154,0.173,3.224c-2.106-0.603-3.99-1.724-5.505-3.237c-2.311-2.318-3.731-5.49-3.733-9.022
		C215.097,259.517,217.753,255.365,221.662,253.18z M132.63,133.22c0.695-0.706,1.368-1.431,2.021-2.169
		c0.978,1.235,2.291,2.381,3.881,3.376C136.425,133.77,134.461,133.376,132.63,133.22z M60.511,52.379
		c9.859,0,18.895-5.51,23.419-14.282l2.094-4.059c5.369,11.209,16.684,18.341,29.099,18.341h17.611v71.656
		c-3.575,4.776-8.15,9.047-13.388,12.391c-7.593,4.855-16.491,7.781-25.479,7.778c-11.98,0.012-23.818-5.217-32.582-13.222
		c-2.335-2.13-4.441-4.457-6.284-6.917V52.379H60.511z M95.873,194.505c-0.742,0.997-1.803,1.465-2.922,1.474
		c-1.12-0.009-2.181-0.478-2.922-1.474l-39.423-53.339c3.275-1.276,6.135-1.867,7.978-1.855c0.902,0,1.706-0.393,2.271-1.009
		c1.406,1.091,2.847,2.144,4.354,3.108c8.44,5.393,18.386,8.704,28.658,8.708c12.677-0.012,24.838-5.037,34.315-12.832
		c0.437,1.18,1.562,2.026,2.893,2.026c1.246-0.004,2.979,0.256,4.976,0.832l-18.13,24.53c0.302-0.69,0.5-1.442,0.529-2.242
		l0.495-12.195c0.057-1.412-1.039-2.601-2.448-2.658c-1.41-0.058-2.598,1.04-2.655,2.452l0-0.001l-0.495,12.194
		c-0.02,0.35-0.139,0.562-0.344,0.761c-0.206,0.192-0.503,0.308-0.771,0.305c-0.192-0.002-0.374-0.045-0.589-0.18l0.003,0.002
		l-5.612-3.593c-1.628-1.046-3.446-1.543-5.2-1.54c-2.538,0.003-4.936,1.001-6.73,2.712c-0.146,0.139-0.281,0.29-0.418,0.439
		c-0.138-0.149-0.273-0.301-0.419-0.44c-1.794-1.711-4.193-2.708-6.73-2.712c-1.754-0.003-3.572,0.494-5.2,1.54l-5.611,3.593
		l0.006-0.004c-0.219,0.137-0.401,0.18-0.592,0.182c-0.267,0.003-0.564-0.113-0.77-0.305c-0.205-0.198-0.324-0.41-0.344-0.76
		l-0.495-12.195c-0.058-1.412-1.246-2.508-2.656-2.451c-1.41,0.057-2.505,1.247-2.448,2.659l0-0.001l0.495,12.194
		c0.064,1.733,0.85,3.281,1.993,4.322c1.142,1.047,2.636,1.649,4.224,1.652c1.129,0.002,2.301-0.32,3.333-0.979l0.006-0.004
		l5.612-3.593c0.813-0.517,1.632-0.731,2.448-0.734c1.175-0.003,2.351,0.48,3.204,1.297c0.851,0.826,1.385,1.913,1.392,3.299v15.067
		c0,1.412,1.143,2.557,2.554,2.557c1.41,0,2.554-1.145,2.554-2.557l0-15.064c0-0.001,0-0.002,0-0.003
		c0.006-1.387,0.54-2.474,1.391-3.299c0.852-0.818,2.028-1.301,3.203-1.297c0.816,0.003,1.635,0.216,2.447,0.734l5.612,3.593
		l0.003,0.002c1.033,0.662,2.205,0.984,3.334,0.982c1.518-0.003,2.941-0.565,4.062-1.528L95.873,194.505z" style="opacity: 1;"></path>
	<path class="st17" d="M109.78,67.058c2.023-0.91,4.355-0.91,6.378,0c1.32,0.554,3.04,0.739,4.075-0.166
		c1.045-0.886,0.335-3.328-2.031-4.389c-3.32-1.493-7.146-1.493-10.466,0c-2.367,1.06-3.075,3.506-2.031,4.389
		C106.74,67.801,108.458,67.613,109.78,67.058z" style="opacity: 1;"></path>
	<path class="st17" d="M71.576,67.058c2.023-0.91,4.355-0.91,6.378,0c1.32,0.554,3.04,0.739,4.075-0.166
		c1.045-0.886,0.335-3.328-2.031-4.389c-3.32-1.493-7.146-1.493-10.466,0c-2.367,1.06-3.075,3.506-2.031,4.389
		C68.536,67.801,70.254,67.613,71.576,67.058z" style="opacity: 1;"></path>
	<ellipse class="st17" cx="74.765" cy="86.203" rx="5.501" ry="5.508" style="opacity: 1;"></ellipse>
	<path class="st17" d="M112.97,80.695c-3.026,0-5.502,2.479-5.502,5.508s2.475,5.508,5.502,5.508c3.025,0,5.5-2.479,5.5-5.508
		S115.994,80.695,112.97,80.695z" style="opacity: 1;"></path>
	<path class="st17" d="M91.016,105.894h6.178c0.781,0,1.413-0.633,1.413-1.415c0-0.781-0.633-1.414-1.413-1.414h-4.13
		c-0.972,0-1.862-0.545-2.305-1.41l-0.371-0.725c-0.32-0.625-1.263-0.397-1.263,0.305v2.767
		C89.126,105.047,89.972,105.894,91.016,105.894z" style="opacity: 1;"></path>
	<path class="st17" d="M81.894,120.393c1.052,0.656,2.224,0.629,2.802,0.089c5.796,2.747,12.546,2.747,18.341,0
		c0.576,0.536,1.749,0.57,2.804-0.089c1.287-0.798,1.753-2.209,1.133-2.946c-0.63-0.787-1.26-1.575-1.889-2.361
		c-0.624-0.744-1.797-0.791-2.683-0.243c-0.735,0.459-1.151,1.256-1.072,2.024c-4.715,2.235-10.209,2.235-14.925,0.001
		c0.079-0.771-0.335-1.567-1.073-2.025c-0.887-0.551-2.062-0.498-2.682,0.243c-0.63,0.787-1.26,1.575-1.889,2.361
		C80.14,118.185,80.607,119.593,81.894,120.393z" style="opacity: 1;"></path>
</g>
</svg>
