<!--?xml version="1.0" encoding="utf-8"?-->
<!-- Generator: Adobe Illustrator 22.1.0, SVG Export Plug-In . SVG Version: 6.00 Build 0)  -->
<svg version="1.1" id="_x31_6" xmlns="http://www.w3.org/2000/svg" xmlns:xlink="http://www.w3.org/1999/xlink" x="0px" y="0px" viewBox="0 0 720 560" style="enable-background:new 0 0 720 560;" xml:space="preserve">
<style type="text/css">
	.st0{fill:#768FA5;}
	.st1{fill:#6C859B;}
	.st2{fill:#FFFFFF;}
	.st3{fill:#FF6F3D;}
	.st4{fill:#EEEEEF;}
	.st5{fill:#FFD7C5;}
	.st6{fill:#FFF0DE;}
	.st7{fill:#231815;}
</style>
<g>
	<path class="st0" d="M394.428,287.327l19.205-11.079c3.379-1.949,6.067-4.904,7.69-8.454l21.907-47.935l27.514-38.217
		L448.1,147.254c0,0-6.285,4.046-14.051,12.916c-12.711,14.519-41.259,87.779-41.259,87.779l-38.295,19.21L394.428,287.327z" style="opacity: 1; fill: rgb(118, 143, 165);"></path>
	<polygon class="st1" points="444.566,351.178 451.564,425.079 467.779,520.5 503.601,520.5 514.415,527.393 548.965,520.5 
		565.131,421.299 572.178,351.178 506.471,296.2 	" style="opacity: 1; fill: rgb(108, 133, 155);"></polygon>
	<path class="st0" d="M607.171,240.23c0,0-1.343-6.893-4.936-30.973c-6.883-46.117-39.034-69.422-53.679-69.422l-1.439-0.773
		c-24.599-13.23-54.252-12.937-78.586,0.773c-3.43,0-8.333,1.082-13.659,3.551c-3.362,1.555-6.879,3.705-10.305,6.453v201.342
		c7.103,5.102,15.436,7.649,23.768,7.649c8.434,0,16.87-2.61,24.028-7.838l15.248-11.129l10.432,7.713
		c14.607,10.816,45.351,8.937,59.777-2.122v-12.862v-93.034c0,0,2.49,46.177,12.616,60.674c10.127,14.497,27.817,7.262,27.817,7.262
		l-8.33-56.337L607.171,240.23z" style="opacity: 1; fill: rgb(118, 143, 165);"></path>
	<path class="st2" d="M473.601,135.964c0,0-17.204,6.945-17.721,8.622c-0.516,1.676,43.655,59.038,43.655,59.038
		s4.717,3.678,8.077,3.304c3.36-0.375,7.871-6.112,7.871-6.112l43.206-59.455l-24.271-11.827
		c-15.793-11.971-37.668-11.777-53.245,0.475L473.601,135.964z" style="opacity: 1; fill: rgb(255, 255, 255); stroke: none; stroke-width: 7px;"></path>
	<path class="st3" d="M417.212,536.63H305.156c-9.917,0-17.956-8.045-17.956-17.969V367.162c0-9.924,8.039-17.97,17.956-17.97
		h112.057c9.917,0,17.956,8.046,17.956,17.97v151.499C435.168,528.585,427.129,536.63,417.212,536.63z" style="opacity: 1; stroke: none; stroke-width: 7px; fill: rgb(218, 101, 85);"></path>
	<rect x="329.578" y="308.516" class="st4" width="14.961" height="40.677" style="opacity: 1; fill: rgb(238, 238, 239);"></rect>
	<rect x="377.607" y="308.516" class="st4" width="14.962" height="40.677" style="opacity: 1; fill: rgb(238, 238, 239);"></rect>
	<path class="st2" d="M265.788,174.065c-5.921,7.556-13.502,14.83-13.502,14.83c-6.391,6.302-11.528,10.284-17.982,13.512
		L132.709,253.01c-16.008,7.995-33.614,12.29-51.533,12.541l-15.225,0.251l-11.81,0.188c-8.051,0.125-13.377-8.309-9.869-15.551
		l5.984-12.415L5.302,210.873c-2.631-1.568-2.475-5.455,0.282-6.803l13.471-6.71c3.728-1.881,8.051-2.257,12.06-1.128l52.035,14.986
		c4.166,1.192,8.646,0.784,12.5-1.16l86.902-43.298c43.106-21.476,63.594-11.318,76.25-6.709c4.01,1.442,7.394,4.985,8.177,8.59
		v0.031C267.386,170.522,267.072,172.435,265.788,174.065z" style="opacity: 1; fill: rgb(255, 255, 255); stroke: none; stroke-width: 7px;"></path>
	<path class="st3" d="M267.445,174.118c-5.921,7.556-13.502,14.83-13.502,14.83c-6.391,6.302-11.528,10.284-17.982,13.512
		l-101.594,50.603c-16.009,7.995-33.614,12.29-51.533,12.541l-15.225,0.251c56.546-27.214,151.999-73.427,201.026-97.129
		C269.042,170.575,268.729,172.488,267.445,174.118z" style="opacity: 1; stroke: none; stroke-width: 7px; fill: rgb(218, 101, 85);"></path>
	<path class="st2" d="M186.648,190.366l-92.781-42.347c-3.166-1.445-6.815-1.382-9.93,0.17l-15.313,7.628
		c-1.263,0.629-1.371,2.391-0.193,3.17l78.807,52.142" style="opacity: 1; fill: rgb(255, 255, 255); stroke: none; stroke-width: 7px;"></path>
	<polygon class="st2" points="682.988,223.523 652.941,253.593 620.674,285.886 604.901,301.671 637.083,333.878 715.169,255.73 	
		" style="opacity: 1; fill: rgb(255, 255, 255); stroke: none; stroke-width: 7px;"></polygon>
	<path class="st5" d="M610.978,292.548c-5.243-19.946,10.736-29.927,10.736-29.927l8.535-4.766c2.6-1.453,5.529-2.215,8.508-2.215
		h20.445c4.176,0,7.424,3.634,6.961,7.788c-0.396,3.549-3.393,6.232-6.961,6.232h-12.486c0,0-9.108,15.814-25.516,13.925
		L610.978,292.548z" style="opacity: 1; fill: rgb(255, 215, 197);"></path>
	<path class="st5" d="M562.7,70.51L562.7,70.51V64.82c0-25.634-26.721-50.108-55.069-50.108c-28.348,0-55.069,24.473-55.069,50.108
		v5.775c-9.799,0.899-17.474,9.142-17.474,19.183c0,10.344,8.145,18.782,18.365,19.248c4.854,22.427,28.866,41.939,54.178,41.939
		c25.303,0,49.308-19.499,54.173-41.917h0.896c10.633,0,19.254-8.627,19.254-19.27C581.954,79.138,573.333,70.51,562.7,70.51z" style="opacity: 1; fill: rgb(255, 215, 197);"></path>
	<path class="st6" d="M502.336,85.473c0,8.51-6.894,15.41-15.399,15.41c-8.504,0-15.398-6.9-15.398-15.41
		c0-8.512,6.894-15.411,15.398-15.411C495.441,70.061,502.336,76.961,502.336,85.473z" style="opacity: 1; fill: rgb(255, 240, 222);"></path>
	<path class="st6" d="M543.967,85.473c0,8.51-6.893,15.41-15.398,15.41c-8.504,0-15.398-6.9-15.398-15.41
		c0-8.512,6.894-15.411,15.398-15.411C537.074,70.061,543.967,76.961,543.967,85.473z" style="opacity: 1; fill: rgb(255, 240, 222);"></path>
	<path class="st5" d="M376.459,300.29v-2.741l-1.036,0.061v2.68c0,3.477-2.844,6.323-6.319,6.323c-3.475,0-6.318-2.846-6.318-6.323
		v-1.939l-1.973,0.116v0.79c0,3.478-2.844,9.717-6.319,9.717c-3.475,0-6.318-6.239-6.318-9.717v-0.048l-1.976,0.116
		c-0.036,3.447-2.862,6.256-6.314,6.256c-3.475,0-6.319-2.845-6.319-6.323v-24.305c1.715-3.483,5.3-6.911,11.374-6.911h22.945
		c9.811,0.152,16.575,0.784,21.291,3.003c0.595,0.876,0.955,1.869,0.955,2.924l-1.036,26.323c0,3.477-2.844,6.323-6.319,6.323
		C379.302,306.613,376.459,303.767,376.459,300.29z" style="opacity: 1; fill: rgb(255, 215, 197);"></path>
	<path class="st7" d="M578.15,345.875L578.15,345.875l-21.239,5.295l-0.107,0.034c-3.556,1.108-7.209,1.65-10.841,1.65
		c-7.823,0-15.543-2.52-21.946-7.346l-7.678-5.79c-2.918-2.201-6.4-3.305-9.868-3.304c-3.469-0.002-6.951,1.103-9.868,3.304
		l-7.678,5.79c-6.403,4.827-14.123,7.345-21.946,7.345c-3.633,0-7.286-0.543-10.841-1.65l-9.491-2.958V219.858
		c0-0.084-0.019-0.162-0.025-0.245c-0.009-0.126-0.015-0.252-0.037-0.376c-0.021-0.113-0.056-0.22-0.088-0.33
		c-0.03-0.102-0.055-0.204-0.094-0.303c-0.044-0.109-0.099-0.21-0.153-0.314c-0.048-0.093-0.093-0.187-0.149-0.275
		c-0.061-0.095-0.132-0.18-0.202-0.268c-0.067-0.086-0.131-0.172-0.207-0.251c-0.08-0.083-0.169-0.155-0.257-0.23
		c-0.08-0.068-0.155-0.139-0.241-0.2c-0.112-0.079-0.234-0.142-0.356-0.208c-0.064-0.034-0.12-0.079-0.187-0.109
		c-0.013-0.006-0.026-0.008-0.039-0.013c-0.126-0.056-0.26-0.094-0.394-0.135c-0.087-0.026-0.172-0.061-0.259-0.08
		c-0.097-0.021-0.199-0.026-0.299-0.038c-0.128-0.017-0.255-0.038-0.384-0.039c-0.015,0-0.03-0.005-0.045-0.005
		c-0.081,0-0.158,0.018-0.237,0.024c-0.129,0.009-0.258,0.015-0.384,0.039c-0.111,0.021-0.216,0.055-0.324,0.087
		c-0.104,0.03-0.208,0.056-0.308,0.096c-0.108,0.043-0.208,0.098-0.311,0.151c-0.094,0.049-0.188,0.093-0.277,0.151
		c-0.094,0.06-0.179,0.131-0.266,0.2c-0.086,0.068-0.173,0.133-0.253,0.209c-0.083,0.08-0.154,0.169-0.229,0.256
		c-0.068,0.08-0.139,0.155-0.2,0.243c-0.08,0.113-0.144,0.236-0.21,0.358c-0.034,0.064-0.078,0.119-0.108,0.185l-21.907,47.935
		c-1.327,2.903-3.525,5.32-6.289,6.914l-18.345,10.582v-5.861c-0.002-7.579-6.137-13.719-13.709-13.72h-12.028l20.327-10.197
		c4.685-2.349,8.33-6.36,10.206-11.266c3.48-9.097,10.352-26.642,17.737-43.236c3.691-8.293,7.512-16.352,11.076-22.958
		c1.781-3.302,3.497-6.241,5.078-8.644c1.575-2.4,3.039-4.271,4.17-5.372c1.348-1.321,1.371-3.486,0.051-4.834
		c-1.32-1.349-3.483-1.372-4.83-0.051l0-0.001c-1.699,1.672-3.353,3.855-5.096,6.497c-3.035,4.616-6.285,10.632-9.599,17.364
		c-9.924,20.173-20.36,46.757-24.966,58.791c-1.265,3.306-3.716,6.006-6.886,7.598l-27.741,13.916
		c-0.981,0.491-1.608,1.395-1.807,2.395H343.16c-7.573,0.002-13.708,6.141-13.709,13.72v4.25v13.225h-11.84
		c-4.139,0-7.526,3.389-7.526,7.53c0,4.143,3.387,7.532,7.526,7.532h8.835v35.229h-21.29c-11.805,0.002-21.37,9.576-21.372,21.389
		v151.499c0.002,11.813,9.567,21.385,21.372,21.388h2.815c-1.299,1.901-2.06,4.198-2.06,6.675c0,6.541,5.298,11.843,11.833,11.843
		c6.536,0,11.834-5.301,11.834-11.843c0-2.477-0.762-4.774-2.06-6.675h67.333c-1.299,1.901-2.06,4.198-2.06,6.675
		c0,6.541,5.298,11.843,11.833,11.843c6.535,0,11.833-5.301,11.833-11.843c0-2.477-0.762-4.774-2.06-6.675h2.816
		c11.805-0.002,21.37-9.575,21.372-21.388V367.162c-0.002-11.814-9.567-21.387-21.372-21.389h-21.51v-35.229h9.055
		c4.139,0,7.526-3.389,7.526-7.532c0-4.141-3.387-7.53-7.526-7.53h-11.174v-4.846c0.834,0.214,1.747,0.117,2.552-0.347l0-0.001
		l19.205-11.079c3.994-2.303,7.172-5.797,9.09-9.994l15.384-33.663l0,117.725l1.51,0.471l1.625,22.915
		c0.014,2.932,0.358,7.169,0.938,12.544c2.068,19.053,7.194,51.963,11.81,80.186c3.503,21.418,6.709,40.094,8.051,47.857
		c-1.005,0.284-4.027,1.225-7.699,3.177c-0.977,0.439-1.979,0.928-2.998,1.485c-3.699,2.031-7.589,4.925-10.827,9.035
		c-3.24,4.103-5.787,9.429-6.806,16.067l-0.04,0.258v4.342c0.002,4.633,3.751,8.385,8.381,8.387h60.21
		c0.945-0.001,1.847-0.182,2.698-0.474c0.504,0.294,1.082,0.474,1.707,0.474c0.625,0,1.203-0.181,1.707-0.474
		c0.852,0.292,1.753,0.473,2.699,0.474h60.21c4.63-0.002,8.378-3.754,8.381-8.387v-4.338l-0.04-0.261
		c-1.019-6.638-3.566-11.964-6.806-16.067c-4.122-5.223-9.253-8.458-13.771-10.49c-3.697-1.972-6.744-2.921-7.754-3.206
		c1.594-9.222,5.82-33.857,10.049-60.184c2.68-16.677,5.359-34.025,7.373-48.567c1.007-7.272,1.847-13.842,2.438-19.293
		c0.581-5.375,0.924-9.612,0.938-12.544l1.636-23.063l4.371-1.09c1.831-0.457,2.945-2.312,2.489-4.144
		C581.834,346.533,579.98,345.418,578.15,345.875z M335.191,278.007c0.002-2.212,0.888-4.188,2.334-5.64
		c1.451-1.448,3.425-2.335,5.635-2.336h36.714c2.21,0.002,4.184,0.888,5.635,2.336c1.446,1.452,2.332,3.428,2.334,5.64v21.108
		c-0.046,1.386-0.587,2.899-1.429,3.903c-0.421,0.511-0.902,0.902-1.441,1.172c-0.542,0.268-1.148,0.429-1.92,0.432
		c-1.086,0-2.548-0.343-4.414-1.426c-0.09-0.052-0.185-0.085-0.278-0.126c0.042-0.369,0.07-0.743,0.07-1.124v-10.453
		c0-1.587-1.285-2.873-2.87-2.873c-1.585,0-2.87,1.286-2.87,2.873l0,10.453c-0.001,1.141-0.46,2.166-1.222,2.932
		c-0.766,0.762-1.79,1.222-2.929,1.223c-1.14-0.001-2.164-0.461-2.93-1.223c-0.761-0.766-1.221-1.792-1.222-2.932v-10.453
		c0-1.587-1.285-2.873-2.87-2.873c-1.585,0-2.87,1.286-2.87,2.873h0v10.453c-0.001,1.141-0.46,2.166-1.222,2.932
		c-0.766,0.762-1.79,1.222-2.93,1.223c-1.14-0.001-2.164-0.461-2.93-1.223c-0.762-0.766-1.221-1.792-1.222-2.932v-10.453
		c0-1.587-1.285-2.873-2.87-2.873c-1.585,0-2.87,1.286-2.87,2.873l0,10.453c0.001,0.381,0.028,0.755,0.07,1.125
		c-0.092,0.041-0.187,0.073-0.276,0.125c-1.869,1.083-3.332,1.426-4.417,1.426c-0.772-0.002-1.378-0.164-1.92-0.432
		c-0.805-0.4-1.496-1.092-2.014-2.013c-0.513-0.908-0.816-2.022-0.854-3.056v-16.863V278.007z M332.71,311.649h8.696l0,34.124
		h-8.696V311.649z M427.493,356.873c2.637,2.645,4.257,6.26,4.259,10.29v151.499c-0.002,4.029-1.622,7.644-4.259,10.288
		c-2.642,2.638-6.255,4.26-10.281,4.262H305.156c-4.026-0.002-7.639-1.623-10.281-4.262c-2.637-2.644-4.257-6.26-4.259-10.288
		V367.162c0.002-4.029,1.622-7.645,4.259-10.29c2.642-2.638,6.255-4.26,10.281-4.262h112.057
		C421.238,352.612,424.851,354.234,427.493,356.873z M380.739,345.773v-34.124h8.697l0,34.124H380.739z M374.475,345.773h-26.803
		v-35.229h1.946c1.44,0.821,3.101,1.298,4.877,1.301c1.776-0.003,3.438-0.48,4.877-1.301h4.29c1.44,0.821,3.101,1.298,4.877,1.301
		c1.775-0.003,3.437-0.48,4.876-1.301h1.059V345.773z M566.965,376.394v0.119c0.003,2.407-0.319,6.62-0.9,11.955
		c-2.031,18.736-7.153,51.658-11.76,79.82c-2.304,14.086-4.481,26.994-6.081,36.379c-0.8,4.693-1.456,8.505-1.912,11.143
		c-0.085,0.494-0.161,0.932-0.232,1.34h-34.292V411.797c0-1.888-1.53-3.419-3.416-3.419c-1.887,0-3.416,1.531-3.416,3.419V517.15
		h-34.291c-0.125-0.722-0.27-1.562-0.439-2.542c-2.048-11.87-7.17-41.852-11.776-71.183c-2.303-14.665-4.478-29.168-6.073-41.146
		c-0.797-5.987-1.45-11.344-1.901-15.76c-0.452-4.406-0.698-7.904-0.695-10.007v-0.119l-1.451-20.464l5.78,1.801
		c4.218,1.313,8.558,1.959,12.871,1.959c9.286,0,18.454-2.99,26.057-8.721l7.679-5.79c1.707-1.287,3.725-1.926,5.756-1.927
		c2.031,0.002,4.049,0.64,5.757,1.927l7.679,5.79c7.602,5.729,16.77,8.722,26.057,8.722c4.248,0,8.522-0.633,12.682-1.908l0,0.002
		l9.812-2.447L566.965,376.394z" style="opacity: 1; fill: rgb(35, 24, 21);"></path>
	<path class="st7" d="M507.482,251.158c-2.473,0-4.479,2.006-4.479,4.482c0,2.475,2.005,4.482,4.479,4.482
		c2.473,0,4.478-2.007,4.478-4.482C511.96,253.164,509.955,251.158,507.482,251.158z" style="opacity: 1; fill: rgb(35, 24, 21);"></path>
	<path class="st7" d="M507.482,283.584c-2.473,0-4.479,2.007-4.479,4.482c0,2.475,2.005,4.482,4.479,4.482
		c2.473,0,4.478-2.006,4.478-4.482C511.96,285.591,509.955,283.584,507.482,283.584z" style="opacity: 1; fill: rgb(35, 24, 21);"></path>
	<path class="st7" d="M329.578,492.479c1.585,0,2.87-1.286,2.87-2.872v-98.884c0-1.587-1.285-2.873-2.87-2.873
		c-1.585,0-2.87,1.286-2.87,2.873v98.884C326.708,491.193,327.993,492.479,329.578,492.479z" style="opacity: 1; fill: rgb(35, 24, 21);"></path>
	<path class="st7" d="M361.184,492.479c1.585,0,2.87-1.286,2.87-2.872v-98.884c0-1.587-1.285-2.873-2.87-2.873
		c-1.585,0-2.87,1.286-2.87,2.873v98.884C358.313,491.193,359.598,492.479,361.184,492.479z" style="opacity: 1; fill: rgb(35, 24, 21);"></path>
	<path class="st7" d="M392.79,492.479c1.585,0,2.87-1.286,2.87-2.872v-98.884c0-1.587-1.285-2.873-2.87-2.873
		c-1.585,0-2.87,1.286-2.87,2.873v98.884C389.92,491.193,391.204,492.479,392.79,492.479z" style="opacity: 1; fill: rgb(35, 24, 21);"></path>
	<path class="st7" d="M525.048,63.526c2.233-1.004,4.808-1.004,7.041,0c1.457,0.611,3.356,0.816,4.499-0.184
		c1.153-0.977,0.37-3.672-2.242-4.843c-3.665-1.646-7.889-1.646-11.554,0c-2.613,1.17-3.394,3.869-2.242,4.843
		C521.692,64.345,523.589,64.138,525.048,63.526z" style="opacity: 1; fill: rgb(35, 24, 21);"></path>
	<path class="st7" d="M482.874,63.526c2.233-1.004,4.808-1.004,7.041,0c1.457,0.611,3.356,0.816,4.499-0.184
		c1.153-0.977,0.37-3.672-2.242-4.843c-3.665-1.646-7.889-1.646-11.554,0c-2.613,1.17-3.394,3.869-2.242,4.843
		C479.518,64.345,481.415,64.138,482.874,63.526z" style="opacity: 1; fill: rgb(35, 24, 21);"></path>
	<path class="st7" d="M492.467,84.65L492.467,84.65c0-3.343-2.732-6.078-6.073-6.078c-3.34,0-6.073,2.734-6.073,6.077v0.001
		c0,3.342,2.733,6.078,6.073,6.078C489.735,90.728,492.467,87.992,492.467,84.65z" style="opacity: 1; fill: rgb(35, 24, 21);"></path>
	<path class="st7" d="M534.642,84.65L534.642,84.65c0-3.343-2.733-6.078-6.073-6.078s-6.073,2.734-6.073,6.077v0.001
		c0,3.342,2.733,6.078,6.073,6.078S534.642,87.992,534.642,84.65z" style="opacity: 1; fill: rgb(35, 24, 21);"></path>
	<path class="st7" d="M511.155,106.378c0.861,0,1.56-0.699,1.56-1.561c0-0.862-0.699-1.561-1.56-1.561h-4.559
		c-1.073,0-2.055-0.6-2.545-1.556l-0.409-0.8c-0.353-0.69-1.394-0.438-1.394,0.337v3.054c0,1.153,0.934,2.088,2.086,2.088H511.155z" style="opacity: 1; fill: rgb(35, 24, 21);"></path>
	<path class="st7" d="M450.734,113.102c0.833,3.02,1.964,5.97,3.381,8.806c4.724,9.439,12.414,17.702,21.731,23.66
		c9.317,5.95,20.297,9.605,31.637,9.608c15.123-0.014,29.589-6.481,40.361-16.293c5.387-4.913,9.859-10.681,13.006-16.975
		c1.417-2.836,2.548-5.787,3.381-8.806c11.223-1.279,19.942-10.801,19.945-22.374c-0.002-9.779-6.234-18.076-14.932-21.194
		c0-2.135,0-4.27,0-6.404c0-1.579,0.014-3.158-0.04-4.737c-0.333-9.873-3.131-19.672-8.138-28.192
		c-4.784-8.141-11.379-15.156-19.289-20.335c-8.353-5.469-18.03-8.811-27.981-9.626c-3.437-0.282-6.962-0.295-10.411-0.14
		c-5.007,0.224-9.985,1.078-14.78,2.541c-8.633,2.633-16.63,7.238-23.275,13.346c-6.831,6.28-12.202,14.116-15.557,22.773
		c-2.849,7.353-4.05,15.062-4.05,22.923c0,2.616,0,5.233,0,7.85c-8.699,3.118-14.932,11.415-14.934,21.195
		C430.79,102.301,439.51,111.823,450.734,113.102z M441.994,79.41c1.1-1.099,2.355-2.035,3.729-2.778
		c-0.001,1.419-0.007,2.837,0,4.257c0.005,1.053,0.418,2.018,1.321,2.61c1.407,0.923,2.885,0.433,3.995-0.657
		c2.012-1.977,4.249-3.717,6.313-5.64c2.525-2.355,4.901-4.925,6.688-7.896c2.023-3.365,2.986-7.007,2.99-10.925
		c0.005-4.176-0.731-8.303-2.261-12.19c-0.132-0.337,0.054-0.405,0.3-0.636c0.171-0.16,0.344-0.318,0.524-0.468
		c0.291-0.243,0.595-0.469,0.923-0.66c0.665-0.387,1.403-0.596,2.152-0.753c3.358-0.703,6.775-1.076,10.126-1.832
		c9.662-2.181,18.56-7.295,26.604-12.929c0.479-0.334,0.955-0.673,1.429-1.014c0.176-0.127,0.506-0.477,0.704-0.511
		c0.199-0.034,0.466,0.448,0.629,0.654c0.724,0.915,1.483,1.804,2.278,2.659c1.657,1.782,3.474,3.42,5.454,4.834
		c1.53,1.094,3.254,1.639,5.127,1.179c1.728-0.424,3.189-1.626,3.949-3.233c0.837-1.774,1.583-3.598,2.372-5.392
		c0.45-1.023,0.899-2.046,1.348-3.069c0.39-0.886,0.822-1.695,1.803-2.056c2.151-0.791,3.551,1.347,4.795,2.723
		c1.68,1.86,3.312,3.764,4.867,5.73c2.83,3.576,5.509,7.383,7.365,11.569c0.759,1.713,1.381,3.509,1.667,5.366
		c0.136,0.884-0.281,1.78-0.473,2.648c-0.233,1.049-0.412,2.11-0.539,3.177c-0.498,4.185-0.35,8.444,1.325,12.358
		c2.671,6.238,7.993,10.55,12.937,14.931c0.91,0.806,1.843,2.071,3.038,2.416c1.46,0.423,3.085-0.406,3.597-1.839
		c0.192-0.54,0.171-1.092,0.171-1.652c0-0.778,0-1.555,0-2.332c0-0.476,0-0.952,0-1.428c1.373,0.742,2.627,1.678,3.726,2.776
		c2.899,2.906,4.683,6.887,4.684,11.318c-0.002,4.43-1.785,8.411-4.684,11.317c-2.021,2.018-4.568,3.479-7.417,4.192
		c0.16-1.469,0.259-2.946,0.259-4.432c0-1.803-1.46-3.263-3.26-3.263c-1.801,0-3.26,1.46-3.26,3.263h0
		c0,5.837-1.522,11.677-4.273,17.184c-4.12,8.258-11.025,15.728-19.407,21.078c-8.382,5.358-18.205,8.587-28.127,8.583
		c-13.225,0.014-26.294-5.756-35.969-14.59c-4.837-4.409-8.816-9.566-11.566-15.071c-2.751-5.507-4.274-11.347-4.273-17.184
		c0-1.803-1.46-3.263-3.26-3.263c-1.801,0-3.26,1.46-3.26,3.263c0,1.486,0.099,2.963,0.259,4.432
		c-2.85-0.713-5.397-2.173-7.418-4.192c-2.899-2.906-4.683-6.887-4.684-11.317C437.311,86.297,439.095,82.316,441.994,79.41z" style="opacity: 1; fill: rgb(35, 24, 21);"></path>
	<path class="st7" d="M519.865,116.52c-0.688-0.821-1.984-0.873-2.961-0.269c-0.811,0.507-1.27,1.386-1.183,2.234
		c-5.205,2.466-11.27,2.466-16.477,0c0.087-0.85-0.37-1.729-1.185-2.234c-0.979-0.607-2.276-0.549-2.961,0.269
		c-0.696,0.868-1.39,1.737-2.086,2.606c-0.685,0.814-0.17,2.367,1.25,3.25c1.161,0.723,2.455,0.694,3.094,0.1
		c6.398,3.03,13.85,3.03,20.248,0c0.636,0.591,1.93,0.628,3.095-0.1c1.421-0.88,1.935-2.437,1.25-3.25
		C521.255,118.257,520.56,117.388,519.865,116.52z" style="opacity: 1; fill: rgb(35, 24, 21);"></path>
	<path class="st7" d="M486.102,103.453c4.877,0,9.459-1.901,12.903-5.351c2.802-2.801,4.632-6.49,5.171-10.416h6.61
		c0.54,3.926,2.369,7.615,5.171,10.416c3.445,3.451,8.027,5.351,12.908,5.351h0.005c4.877,0,9.459-1.901,12.903-5.351
		c3.449-3.448,5.348-8.036,5.347-12.917c0.002-4.882-1.898-9.47-5.346-12.917c-3.444-3.451-8.027-5.352-12.909-5.352
		c-2.265,0-4.476,0.412-6.572,1.222c-1.289,0.499-1.933,1.954-1.435,3.244c0.37,0.961,1.31,1.606,2.339,1.606
		c0.308,0,0.613-0.057,0.902-0.169c1.518-0.587,3.122-0.884,4.767-0.884c3.534,0.001,6.86,1.379,9.363,3.881
		c2.499,2.505,3.877,5.833,3.878,9.37c-0.001,3.537-1.378,6.864-3.878,9.37c-2.503,2.502-5.829,3.88-9.363,3.882
		c-3.534-0.002-6.859-1.379-9.362-3.881c-2.5-2.506-3.878-5.833-3.878-9.37c0.001-2.743,0.831-5.374,2.399-7.61
		c0.385-0.548,0.534-1.214,0.419-1.874c-0.115-0.66-0.48-1.235-1.028-1.621c-0.424-0.299-0.922-0.456-1.439-0.456
		c-0.817,0-1.584,0.398-2.053,1.065c-1.654,2.352-2.732,5.11-3.128,7.994h-6.619c-0.539-3.926-2.369-7.615-5.171-10.416
		c-3.444-3.451-8.027-5.352-12.909-5.352c-2.265,0-4.476,0.412-6.572,1.222c-1.289,0.499-1.933,1.954-1.435,3.244
		c0.371,0.961,1.31,1.606,2.339,1.606c0.309,0,0.613-0.057,0.902-0.169c1.519-0.587,3.123-0.884,4.768-0.884
		c3.533,0.001,6.859,1.379,9.362,3.881c2.499,2.505,3.877,5.833,3.878,9.37c-0.001,3.537-1.378,6.864-3.878,9.37
		c-2.503,2.502-5.829,3.88-9.362,3.882c-3.534-0.002-6.86-1.379-9.363-3.881c-2.5-2.506-3.877-5.833-3.878-9.37
		c0.002-2.743,0.831-5.374,2.399-7.61c0.385-0.548,0.534-1.214,0.419-1.874s-0.48-1.235-1.028-1.621
		c-0.424-0.299-0.922-0.456-1.439-0.456c-0.817,0-1.584,0.398-2.053,1.065c-2.168,3.083-3.312,6.712-3.312,10.496
		c-0.001,4.882,1.898,9.47,5.347,12.917C476.634,101.553,481.217,103.453,486.102,103.453z" style="opacity: 1; fill: rgb(35, 24, 21);"></path>
	<path class="st7" d="M682.987,218.687l-32.461,32.487c-0.31,0.31-0.54,0.667-0.706,1.046h-11.063
		c-3.562,0-7.063,0.912-10.173,2.648l-8.597,4.801l-0.081,0.051c-0.214,0.139-3.454,2.173-6.754,6.285
		c-1.647,2.057-3.306,4.642-4.559,7.768c-1.253,3.124-2.089,6.795-2.088,10.934c0,2.715,0.359,5.627,1.169,8.71
		c0.043,0.165,0.11,0.316,0.175,0.468l-7.779,7.784l6.444,6.449c-0.37,0.067-0.734,0.109-1.093,0.111
		c-1.465,0.002-3.042-0.537-4.725-1.653c-2.514-1.653-5.059-4.577-7.057-7.674c-2.008-3.082-3.51-6.355-4.178-8.457
		c-0.559-1.738-1.314-4.622-2.095-7.877c-1.177-4.896-2.44-10.688-3.405-15.245c-0.483-2.279-0.892-4.25-1.18-5.651
		c-0.186-0.906-0.315-1.537-0.387-1.894v-39.92c0-1.888-1.53-3.419-3.416-3.419c-1.887,0-3.416,1.531-3.416,3.419v40.245
		c0,0.003,0,0.007,0,0.01v81.751c0,1.888,1.53,3.418,3.416,3.418c1.886,0,3.416-1.531,3.416-3.418v-51.212
		c0.194,0.682,0.383,1.321,0.564,1.885c0.612,1.901,1.569,4.133,2.833,6.498c1.9,3.539,4.465,7.348,7.674,10.44
		c1.609,1.542,3.387,2.909,5.377,3.925c1.985,1.012,4.212,1.667,6.581,1.666c2.001,0.004,4.066-0.48,6.027-1.464
		c0.12-0.06,0.224-0.139,0.335-0.211l25.301,25.321l64.013-64.064c0.001-0.001,0.002-0.002,0.003-0.002
		c0.001-0.001,0.002-0.002,0.002-0.003L720,255.729L682.987,218.687z M682.987,228.357l27.35,27.372l-11.655,11.664l-27.35-27.372
		L682.987,228.357z M643.811,267.86c-0.006,0.01-0.104,0.165-0.31,0.455c-0.743,1.049-2.805,3.669-5.985,5.94
		c-3.195,2.278-7.409,4.208-12.776,4.213c-0.844,0-1.725-0.05-2.644-0.153c-1.875-0.211-3.566,1.138-3.777,3.015
		c-0.024,0.209-0.021,0.414-0.007,0.616l-4.923,4.318c-0.033-0.53-0.052-1.05-0.052-1.557c0.002-3.222,0.639-5.993,1.597-8.391
		c1.435-3.589,3.626-6.339,5.461-8.17c0.915-0.915,1.737-1.597,2.31-2.038c0.287-0.22,0.511-0.38,0.654-0.478l0.121-0.082
		l8.433-4.709c2.092-1.169,4.447-1.782,6.844-1.782h20.445c1.017,0.003,1.884,0.4,2.544,1.059c0.654,0.663,1.045,1.548,1.045,2.521
		c0,0.13-0.007,0.266-0.023,0.414c-0.204,1.815-1.74,3.19-3.566,3.188H644.81L643.811,267.86z M609.732,301.67l13.357-13.367
		c0.412-0.413,0.681-0.908,0.839-1.43c4.169-0.002,7.896-1.01,11.067-2.493c4.678-2.19,8.176-5.361,10.569-8.019
		c0.151-0.151,0.312-0.305,0.455-0.452c1.054-1.087,1.863-2.064,2.454-2.833h10.729c5.309-0.002,9.766-3.992,10.356-9.272
		l0.001-0.009c0.042-0.385,0.064-0.772,0.064-1.159c0-2.842-1.157-5.456-3.029-7.339c-1.865-1.888-4.501-3.082-7.392-3.079h-0.059
		l7.358-7.364l27.35,27.372l-56.769,56.814L609.732,301.67z" style="opacity: 1; fill: rgb(35, 24, 21);"></path>
	<path class="st7" d="M558.386,134.711c-1.74-0.732-3.742,0.086-4.473,1.828c-0.731,1.741,0.087,3.745,1.826,4.476l0-0.001
		c0.897,0.377,1.762,0.788,2.62,1.203c-1.414-0.583-3.092-0.168-4.042,1.118l0-0.001l-38.833,52.516v-27.633h-9.011h-9.012v27.634
		l-37.186-50.289c1.211-0.221,2.397-0.305,3.686-0.311c1.886,0,3.416-1.531,3.416-3.418c0-1.888-1.529-3.418-3.416-3.418
		c-3.257-0.011-6.618,0.498-10.262,2.018c-3.654,1.516-7.599,3.957-12.55,7.76c-1.497,1.15-1.778,3.297-0.629,4.795
		c1.149,1.497,3.294,1.779,4.791,0.629l0-0.001c3.302-2.54,6-4.319,8.304-5.564l44.368,60.001c1.041,1.41,2.379,2.495,3.844,3.21
		c1.467,0.716,3.057,1.071,4.645,1.071c1.587,0,3.177-0.354,4.644-1.071c1.465-0.714,2.803-1.8,3.845-3.21l44.848-60.65
		c1.122-1.518,0.803-3.659-0.714-4.782c-0.154-0.114-0.317-0.203-0.482-0.287c7.441,3.65,13.445,8.695,18.354,14.53
		c8.285,9.844,13.393,21.957,16.581,32.807c1.596,5.422,2.718,10.522,3.542,14.854c0.826,4.339,1.35,7.886,1.78,10.328
		c2.234,12.666,8.755,45.298,8.758,45.315c0.369,1.852,2.169,3.053,4.019,2.683c1.85-0.37,3.05-2.171,2.681-4.022
		c-0.001-0.006-0.408-2.04-1.054-5.297c-1.937-9.762-6.026-30.51-7.676-39.867c-0.538-3.041-1.319-8.521-2.763-15.164
		c-2.174-9.983-5.844-22.697-12.676-34.579c-3.418-5.94-7.634-11.672-12.867-16.713C572.061,142.171,565.807,137.83,558.386,134.711
		z" style="opacity: 1; fill: rgb(35, 24, 21);"></path>
	<path class="st7" d="M265.773,160.376c-1.653-1.524-3.616-2.762-5.796-3.555c-6.545-2.37-16.158-6.673-30.197-6.657
		c-12.403-0.003-28.194,3.301-48.756,13.55l-20.806,10.367c-0.154,0.077-0.29,0.174-0.427,0.269l-64.507-29.442
		c-1.971-0.901-4.09-1.35-6.205-1.35c-2.285,0-4.571,0.524-6.668,1.571l0.003-0.002l-15.313,7.628
		c-0.924,0.456-1.686,1.184-2.175,2.015c-0.493,0.834-0.735,1.76-0.735,2.688c0,0.817,0.189,1.648,0.587,2.416
		c0.394,0.767,1.008,1.464,1.77,1.964l50.817,33.622c-0.081,0.033-0.164,0.052-0.243,0.092l-22.98,11.449l0.004-0.002
		c-1.948,0.967-4.074,1.46-6.208,1.46c-1.291,0-2.584-0.178-3.841-0.54l-52.037-14.962l0.005,0.001
		c-1.828-0.528-3.702-0.786-5.565-0.786c-3.09,0-6.163,0.713-8.972,2.113l-13.471,6.712c-1.306,0.645-2.356,1.653-3.036,2.809
		c-0.684,1.158-1.019,2.451-1.02,3.742c0,1.191,0.287,2.394,0.881,3.491c0.59,1.095,1.502,2.077,2.652,2.768l42.304,25.543
		l-4.651,9.605l0.002-0.004c-0.98,2.014-1.442,4.144-1.441,6.208c0.003,3.767,1.505,7.3,4.026,9.916
		c2.513,2.619,6.135,4.328,10.203,4.321l0.22-0.001h0.008l27.038-0.416c18.404-0.284,36.511-4.692,52.989-12.902l101.6-50.62
		c6.819-3.39,12.335-7.696,18.831-14.094l0,0.001c0.059-0.062,7.694-7.363,13.823-15.181c1.408-1.78,2.09-3.948,2.077-6.001
		c-0.001-1.554-0.353-3.04-0.925-4.409C268.774,163.719,267.423,161.903,265.773,160.376z M263.107,171.967
		c-2.85,3.641-6.163,7.282-8.748,9.99c-1.293,1.355-2.405,2.478-3.19,3.26c-0.392,0.39-0.703,0.696-0.914,0.902l-0.24,0.233
		l-0.076,0.073l-0.033,0.032c-6.272,6.164-11.048,9.846-17.119,12.879l-101.6,50.62c-15.563,7.754-32.666,11.919-50.049,12.186
		L54.1,262.558h0.008l-0.131,0.001c-2.169-0.007-3.954-0.863-5.288-2.233c-1.325-1.372-2.112-3.248-2.109-5.167
		c0.002-1.059,0.228-2.136,0.753-3.219l0.002-0.004l7.369-15.218l-47.64-28.765l-0.176-0.172l-0.055-0.232l0.066-0.258l0.193-0.168
		l0.005-0.002l13.476-6.714c1.857-0.925,3.886-1.396,5.926-1.396c1.234,0,2.468,0.171,3.669,0.518l0.005,0.001l52.037,14.963
		c1.879,0.54,3.808,0.806,5.728,0.806c3.184,0,6.351-0.735,9.245-2.173l0.004-0.002l22.98-11.449c1.216-0.606,1.9-1.84,1.882-3.114
		l23.305,15.42c1.573,1.041,3.692,0.609,4.733-0.966c1.041-1.574,0.608-3.696-0.965-4.737l-76.515-50.626l12.852-6.403l0.003-0.002
		c1.137-0.567,2.375-0.852,3.618-0.852c1.149,0,2.297,0.243,3.369,0.733l92.782,42.347c1.716,0.783,3.742,0.026,4.525-1.692
		c0.783-1.718,0.026-3.745-1.69-4.528l0-0.001l-20.332-9.28l16.336-8.14c19.863-9.892,34.54-12.831,45.711-12.834
		c3.242,0.004,6.191,0.252,8.906,0.658l-14.452,7.187c-2.145,1.066-2.063,4.155,0.135,5.107l4.373,1.894
		c2.28,0.987,4.88,0.911,7.098-0.209l16.341-8.253c0.74-0.374,1.178-0.985,1.388-1.654c1.421,0.527,2.774,1.044,4.081,1.519
		c1.661,0.593,3.301,1.774,4.418,3.126c0.561,0.673,0.993,1.379,1.267,2.039c0.277,0.661,0.396,1.264,0.395,1.767
		C263.718,170.854,263.572,171.353,263.107,171.967z" style="opacity: 1; fill: rgb(35, 24, 21);"></path>
	<polygon class="st7" points="4.051,201 4.055,200.998 4.055,200.998 	" style="opacity: 1; fill: rgb(35, 24, 21);"></polygon>
</g>
</svg>
