<?xml version="1.0" encoding="utf-8"?>
<!-- Generator: Adobe Illustrator 26.5.0, SVG Export Plug-In . SVG Version: 6.00 Build 0)  -->
<svg version="1.1" id="_x31_2" xmlns="http://www.w3.org/2000/svg" xmlns:xlink="http://www.w3.org/1999/xlink" x="0px" y="0px"
	 viewBox="0 0 603 660.3" style="enable-background:new 0 0 603 660.3;" xml:space="preserve">
<style type="text/css">
	.st0{fill:#768FA5;}
	.st1{fill:#FFFFFF;}
	.st2{fill:#FFFF00;}
	.st3{fill:#FFE6D4;}
	.st4{fill:#FFD7C5;}
	.st5{fill:#FFF0DE;}
	.st6{fill:#231815;}
</style>
<g>
	<path class="st0" d="M469.8,584.2c0,0,42,0,51.5,0s26.1,1.2,32.1-29.7c5.9-30.9-38-138.9-38-138.9
		C474.2,314.4,431,281.2,393.7,269.7H209.4c-37.3,11.4-80.5,44.7-121.7,145.9c0,0-44,108-38,138.9s22.5,29.7,32,29.7s51.5,0,51.5,0
		H469.8L469.8,584.2z"/>
	<path class="st1" d="M212.9,270.7c0,0,0.9,7.5,0,10.4c-0.9,3,77.1,104.2,77.1,104.2s8.3,6.5,14.3,5.8c5.9-0.7,13.9-10.8,13.9-10.8
		l82.1-110.7L360,254.5c-34.1-22-77.8-22.7-112.6-1.8L212.9,270.7z"/>
	<path class="st2" d="M301.5,449.7c-51.5-33.3-130.9-35.9-161.6-33.4v185c30.7-2.5,110.1,0.1,161.6,33.4
		c51.5-33.3,130.9-35.9,161.6-33.4v-185C432.4,413.8,353,416.4,301.5,449.7z"/>
	<ellipse class="st3" cx="303.1" cy="118.1" rx="97.3" ry="92.1"/>
	<path class="st4" d="M400.9,150.7L400.9,150.7v-10c0-45.2-47.2-88.4-97.3-88.4s-97.3,43.2-97.3,88.4v10.2
		c-17.3,1.6-30.9,16.1-30.9,33.9c0,18.3,14.4,33.2,32.4,34c8.6,39.6,51,74,95.7,74s87.1-34.4,95.7-74h1.6c18.8,0,34-15.2,34-34
		C435,165.9,419.7,150.7,400.9,150.7z"/>
	<path class="st5" d="M294,175.4c0,15-12.2,27.2-27.2,27.2s-27.2-12.2-27.2-27.2s12.2-27.2,27.2-27.2S294,160.4,294,175.4z"/>
	<path class="st5" d="M367.5,175.4c0,15-12.2,27.2-27.2,27.2s-27.2-12.2-27.2-27.2s12.2-27.2,27.2-27.2
		C355.4,148.2,367.5,160.4,367.5,175.4z"/>
	<path class="st4" d="M441.5,544.3h5.1l-0.1-1.9h-5c-6.5,0-11.8-5.3-11.8-11.8s5.3-11.8,11.8-11.8h3.6l-0.2-3.7h-1.5
		c-6.5,0-18.1-5.3-18.1-11.8s11.6-11.8,18.1-11.8h0.1l-0.2-3.7c-6.4-0.1-11.6-5.3-11.6-11.8s5.3-11.8,11.8-11.8h45.2
		c6.5,3.2,12.9,9.9,12.9,21.2v42.7c-0.3,18.3-1.5,30.9-5.6,39.6c-1.6,1.1-3.5,1.8-5.4,1.8l-49-1.9c-6.5,0-11.8-5.3-11.8-11.8
		S435.1,544.3,441.5,544.3z"/>
	<path class="st4" d="M161.5,544.3h-5.1l0.1-1.9h5c6.5,0,11.8-5.3,11.8-11.8s-5.3-11.8-11.8-11.8h-3.6l0.2-3.7h1.5
		c6.5,0,18.1-5.3,18.1-11.8s-11.6-11.8-18.1-11.8h-0.1l0.2-3.7c6.4-0.1,11.6-5.3,11.6-11.8s-5.3-11.8-11.8-11.8h-45.2
		c-6.5,3.2-12.9,9.9-12.9,21.2v42.7c0.3,18.3,1.5,30.9,5.6,39.6c1.6,1.1,3.5,1.8,5.4,1.8l49-1.9c6.5,0,11.8-5.3,11.8-11.8
		S167.9,544.3,161.5,544.3z"/>
	<path class="st6" d="M549.2,493.3c-11.5-39-28.2-79.9-28.2-80c-20.8-51-42.2-85.3-63.5-108.4c-10.6-11.5-21.2-20.3-31.7-26.9
		c-10.4-6.6-20.6-11.1-30.4-14.1c-3.2-1-6.6,0.8-7.5,4c-0.9,2.9,0.5,5.9,3.2,7.2c-2-0.1-4,0.7-5.2,2.4l0,0l-68.6,92.7v-48.8h-15.9
		h-15.9v48.3l-59.9-83.5c-1.9-2.7-5.7-3.3-8.4-1.4s-3.3,5.7-1.4,8.4l70.6,98.4l0,0c1.8,2.5,4.2,4.4,6.8,5.7c2.6,1.3,5.4,1.9,8.2,1.9
		s5.6-0.6,8.2-1.9s5-3.2,6.8-5.7l79.2-107.1c2-2.7,1.4-6.5-1.3-8.4c-0.1,0-0.1-0.1-0.2-0.1c8.2,2.7,16.6,6.5,25.3,12
		c14.2,9,29.1,22.6,44.4,43.4c15.2,20.8,30.8,48.7,46.1,86.3c0,0,0,0.1,0.1,0.3c1.1,2.7,10.7,26.6,20,54.1
		c4.6,13.8,9.2,28.5,12.6,41.9c1.7,6.7,3.1,13.1,4,18.8c1,5.7,1.5,10.8,1.5,14.8c0,2.2-0.2,4.2-0.4,5.6c-1.3,6.7-3.1,11.5-5,14.9
		c-1.4,2.6-2.9,4.4-4.4,5.7c-2.2,2-4.5,2.9-6.9,3.5s-5.1,0.7-7.7,0.7c-0.7,0-1.4,0-2.1,0c-4.8,0-17.6,0-29.3,0c-5.8,0-11.4,0-15.5,0
		s-6.7,0-6.7,0c-0.2,0-0.5,0-0.7,0.1v-1.6c0-0.2,0-0.5-0.1-0.7h14c7,0,13.3-2.8,17.9-7.4c4.6-4.6,7.4-10.9,7.4-17.9v-68.3
		c0-7-2.8-13.3-7.4-17.9s-10.9-7.4-17.9-7.4h-7.9h-7.5c0.9-1.1,1.5-2.4,1.5-3.9v-42.4l-5.6-0.4c-5.4-0.4-12.2-0.7-20-0.7
		c-19,0-44.2,1.6-70.2,6.8c-24.7,4.9-50.2,13-71.8,26.2c-21.6-13.2-47.1-21.3-71.8-26.2c-26-5.2-51.1-6.8-70.2-6.8
		c-7.8,0-14.6,0.3-20,0.7l-5.6,0.4V453c0,1.5,0.6,2.9,1.5,3.9h-7.5H120c-7,0-13.3,2.8-17.9,7.4s-7.4,10.9-7.4,17.9v68.3
		c0,7,2.8,13.3,7.4,17.9c4.6,4.6,10.9,7.4,17.9,7.4h14.9c-0.5,0.7-0.8,1.5-0.9,2.3c-0.3,0-0.5-0.1-0.8-0.1c0,0-42,0-51.5,0
		c-0.7,0-1.4,0-2.1,0c-2.3,0-4.6-0.1-6.9-0.5c-1.7-0.3-3.2-0.8-4.8-1.6c-2.3-1.2-4.5-3.1-6.7-6.5c-2.2-3.5-4.3-8.6-5.7-16.2
		c-0.3-1.5-0.4-3.4-0.4-5.6c0-4.2,0.6-9.4,1.6-15.4c1.8-10.4,5-22.9,8.7-35.6c5.6-19.1,12.6-38.9,18.2-53.8
		c2.8-7.5,5.2-13.8,6.9-18.2c0.9-2.2,1.6-3.9,2-5.1c0.2-0.6,0.4-1,0.5-1.3s0.2-0.5,0.2-0.5c20.4-50.1,41.2-83.1,61.2-104.8
		c10-10.8,19.8-18.9,29.2-24.9c9.5-6,18.6-10,27.5-12.7c3.2-1,5-4.4,4-7.5c-1-3.2-4.4-5-7.5-4l0,0c-9.8,3-20,7.5-30.4,14.1
		c-15.6,9.9-31.7,24.6-47.6,46.4c-16,21.8-31.9,50.6-47.5,88.9c0,0.1-9.7,23.8-19.4,52.4c-4.9,14.3-9.7,29.8-13.4,44.1
		c-1.8,7.2-3.4,14.1-4.5,20.5s-1.7,12.2-1.7,17.4c0,2.8,0.2,5.4,0.7,7.9c1.5,7.6,3.6,13.7,6.3,18.5c2,3.6,4.4,6.6,7,8.8
		c3.9,3.4,8.2,5.3,12.2,6.2s7.6,1,10.4,1c0.8,0,1.5,0,2.1,0c9.5,0,51.5,0,51.5,0c0.2,0,0.5,0,0.7-0.1v17.6l6.5-0.5
		c5-0.4,11.5-0.7,19.1-0.7c18.3,0,42.8,1.6,67.8,6.6s50.5,13.3,70.9,26.6l3.3,2.1l3.3-2.1c20.4-13.2,45.9-21.6,70.9-26.6
		s49.5-6.6,67.8-6.6c7.5,0,14,0.3,19.1,0.7l6.5,0.5v-17.6c0.2,0,0.5,0.1,0.7,0.1c0,0,2.6,0,6.7,0c12.3,0,37.7,0,44.8,0
		c0.6,0,1.4,0,2.1,0c2.5,0,5.7-0.1,9.1-0.7c2.6-0.5,5.4-1.3,8.1-2.8c4.1-2.2,8.1-5.7,11.3-10.8s5.7-11.7,7.3-20.3
		c0.5-2.5,0.7-5.1,0.7-7.9c0-5.2-0.7-11-1.7-17.4C556.3,519.1,553.1,506.3,549.2,493.3z M483,467.2c4.2,0,7.9,1.7,10.7,4.4
		c2.7,2.7,4.4,6.5,4.4,10.7v68.3c0,4.2-1.7,7.9-4.4,10.7c-2.8,2.7-6.5,4.4-10.7,4.4h-39.3c-1.3-0.1-2.7-0.3-4-0.8
		c-1.9-0.7-3.6-1.9-4.8-3.2c-0.6-0.7-1-1.4-1.3-2.3c-0.3-0.8-0.5-1.8-0.5-2.9c0-2.1,0.7-4.8,2.7-8.4c0.1-0.2,0.2-0.4,0.3-0.7
		c0.7,0.1,1.5,0.2,2.3,0.2h19.4c2.8,0,5.1-2.3,5.1-5.1s-2.3-5.1-5.1-5.1h-19.4c-2.2,0-4.2-0.9-5.6-2.4c-1.5-1.5-2.4-3.5-2.4-5.6
		c0-2.2,0.9-4.2,2.4-5.6c1.5-1.5,3.5-2.4,5.6-2.4h19.4c2.8,0,5.1-2.3,5.1-5.1s-2.3-5.1-5.1-5.1l0,0h-19.4c-2.2,0-4.2-0.9-5.6-2.4
		c-1.5-1.5-2.4-3.5-2.4-5.6c0-2.2,0.9-4.2,2.4-5.6c1.5-1.5,3.5-2.4,5.6-2.4h19.4c2.8,0,5.1-2.3,5.1-5.1s-2.3-5.1-5.1-5.1h-19.4
		c-0.8,0-1.5,0.1-2.3,0.2c-0.1-0.2-0.2-0.5-0.3-0.7c-2-3.5-2.7-6.3-2.7-8.4c0-1.5,0.3-2.7,0.8-3.7c0.8-1.6,2.1-2.9,3.9-3.9
		c1.7-1,3.8-1.6,5.8-1.6H475L483,467.2L483,467.2z M109.3,561.3c-2.7-2.8-4.4-6.5-4.4-10.7v-68.3c0-4.2,1.7-7.9,4.4-10.7
		c2.8-2.7,6.5-4.4,10.7-4.4h7.9h31.4c1.3,0.1,2.7,0.3,4,0.8c1.9,0.7,3.6,1.9,4.8,3.2c0.6,0.7,1,1.4,1.3,2.3c0.3,0.8,0.5,1.8,0.5,2.9
		c0,2.1-0.7,4.8-2.7,8.4c-0.1,0.2-0.2,0.5-0.3,0.7c-0.7-0.1-1.5-0.2-2.3-0.2h-19.4c-2.8,0-5.1,2.3-5.1,5.1s2.3,5.1,5.1,5.1h19.4
		c2.2,0,4.2,0.9,5.6,2.4c1.5,1.5,2.4,3.5,2.4,5.6c0,2.2-0.9,4.2-2.4,5.6c-1.5,1.5-3.5,2.4-5.6,2.4h-19.4c-2.8,0-5.1,2.3-5.1,5.1
		s2.3,5.1,5.1,5.1l0,0h19.4c2.2,0,4.2,0.9,5.6,2.4c1.5,1.5,2.4,3.5,2.4,5.6c0,2.2-0.9,4.2-2.4,5.6c-1.5,1.5-3.5,2.4-5.6,2.4h-19.4
		c-2.8,0-5.1,2.3-5.1,5.1s2.3,5.1,5.1,5.1h19.4c0.8,0,1.5-0.1,2.3-0.2c0.1,0.2,0.2,0.5,0.3,0.7l0,0c2,3.5,2.7,6.3,2.7,8.4
		c0,1.5-0.3,2.7-0.8,3.7c-0.8,1.6-2.1,2.9-3.9,3.9c-1.7,1-3.8,1.6-5.8,1.6H120C115.8,565.7,112.1,564.1,109.3,561.3z M159.5,594.5
		c-5,0-9.5,0.1-13.5,0.3v-15.5c0-1.3-0.4-2.4-1-3.4h14.6h0.1c2.4-0.1,4.8-0.6,7.1-1.4c3.4-1.3,6.7-3.3,9.2-6.4
		c1.2-1.5,2.3-3.3,3-5.2c0.7-2,1.1-4.1,1.1-6.3c0-4.1-1.3-8.5-3.8-13c0.4-0.4,0.9-0.8,1.3-1.2c3.3-3.3,5.3-7.8,5.3-12.8
		s-2.1-9.6-5.3-12.8c-0.1-0.1-0.2-0.2-0.3-0.3c0.1-0.1,0.2-0.2,0.3-0.3c3.3-3.3,5.3-7.8,5.3-12.8s-2.1-9.6-5.3-12.8
		c-0.4-0.4-0.8-0.8-1.3-1.2c2.6-4.5,3.8-8.9,3.8-13c0-3-0.7-5.8-1.9-8.2c-1.8-3.6-4.7-6.4-8-8.2c-3.2-1.8-6.8-2.8-10.4-2.9h-0.1
		h-15.1c0.9-1.1,1.5-2.4,1.5-3.9V422c4-0.2,8.5-0.3,13.5-0.3c18.3,0,42.8,1.6,67.8,6.6c24.1,4.8,48.6,12.8,68.7,25.2v171
		c-20.4-11.3-43.7-18.5-66.3-23C203.7,596.2,178.5,594.5,159.5,594.5z M373.3,601.3c-22.6,4.5-45.9,11.7-66.3,23v-171
		c20-12.4,44.6-20.4,68.7-25.2c25-5,49.5-6.6,67.8-6.6c5,0,9.6,0.1,13.5,0.3V453c0,1.5,0.6,2.9,1.5,3.9h-15.1h-0.1
		c-2.4,0.1-4.8,0.6-7.1,1.4c-3.4,1.3-6.7,3.3-9.2,6.4c-1.2,1.5-2.3,3.3-3,5.2c-0.7,2-1.1,4.1-1.1,6.3c0,4.1,1.3,8.5,3.8,13
		c-0.4,0.4-0.9,0.8-1.3,1.2c-3.3,3.3-5.3,7.8-5.3,12.8s2.1,9.6,5.3,12.8c0.1,0.1,0.2,0.2,0.3,0.3c-0.1,0.1-0.2,0.2-0.3,0.3
		c-3.3,3.3-5.3,7.8-5.3,12.8s2.1,9.6,5.3,12.8c0.4,0.4,0.8,0.8,1.3,1.2c-2.6,4.5-3.8,8.9-3.8,13c0,3,0.7,5.8,1.9,8.2
		c1.8,3.6,4.7,6.4,8,8.2c3.2,1.8,6.8,2.8,10.4,2.9h0.1H457c0,0.2-0.1,0.5-0.1,0.7v18.2c-4-0.2-8.6-0.3-13.5-0.3
		C424.5,594.5,399.3,596.2,373.3,601.3z"/>
	<path class="st6" d="M319.4,233.7c-1.6,0-2.9,1-3.3,2.5H290c-0.4-1.4-1.7-2.5-3.3-2.5c-1.9,0-3.4,1.5-3.4,3.4v5.9
		c0,1.9,1.5,3.4,3.4,3.4c1.6,0,2.9-1,3.3-2.5h26.1c0.4,1.4,1.7,2.5,3.3,2.5c1.9,0,3.4-1.5,3.4-3.4v-5.9
		C322.8,235.2,321.3,233.7,319.4,233.7z"/>
	<path class="st6" d="M276.5,174L276.5,174c0-5.9-4.8-10.7-10.7-10.7c-5.9,0-10.7,4.8-10.7,10.7l0,0c0,5.9,4.8,10.7,10.7,10.7
		C271.7,184.7,276.5,179.9,276.5,174z"/>
	<path class="st6" d="M351.1,174L351.1,174c0-5.9-4.8-10.7-10.7-10.7s-10.7,4.8-10.7,10.7l0,0c0,5.9,4.8,10.7,10.7,10.7
		C346.2,184.7,351.1,179.9,351.1,174z"/>
	<path class="st6" d="M309.6,212.3c1.5,0,2.8-1.2,2.8-2.8c0-1.5-1.2-2.8-2.8-2.8h-8.1c-1.9,0-3.6-1.1-4.5-2.7l-0.7-1.4
		c-0.6-1.2-2.5-0.8-2.5,0.6v5.4c0,2,1.7,3.7,3.7,3.7H309.6L309.6,212.3z"/>
	<path class="st6" d="M334.5,134.9h11.7c2.7,0,4.9-2.2,4.9-4.9c0-2.7-2.2-4.9-4.9-4.9h-11.7c-2.7,0-4.9,2.2-4.9,4.9
		C329.6,132.7,331.8,134.9,334.5,134.9z"/>
	<path class="st6" d="M259.9,134.9h11.7c2.7,0,4.9-2.2,4.9-4.9c0-2.7-2.2-4.9-4.9-4.9h-11.7c-2.7,0-4.9,2.2-4.9,4.9
		C255.1,132.7,257.3,134.9,259.9,134.9z"/>
	<path class="st6" d="M340.9,142.7c-4,0-7.9,0.7-11.6,2.2c-2.3,0.9-3.4,3.4-2.5,5.7c0.7,1.7,2.3,2.8,4.1,2.8c0.5,0,1.1-0.1,1.6-0.3
		c2.7-1,5.5-1.6,8.4-1.6c6.2,0,12.1,2.4,16.5,6.9c4.4,4.4,6.9,10.3,6.9,16.5s-2.4,12.1-6.9,16.5c-4.4,4.4-10.3,6.8-16.5,6.9
		c-6.2,0-12.1-2.4-16.5-6.9c-4.4-4.4-6.9-10.3-6.9-16.5c0-4.8,1.5-9.5,4.2-13.4c0.7-1,0.9-2.1,0.7-3.3c-0.2-1.2-0.8-2.2-1.8-2.9
		c-0.8-0.5-1.6-0.8-2.5-0.8c-1.4,0-2.8,0.7-3.6,1.9c-2.9,4.2-4.8,9-5.5,14.1h-11.7c-1-6.9-4.2-13.4-9.1-18.4
		c-6.1-6.1-14.2-9.4-22.8-9.4c-4,0-7.9,0.7-11.6,2.2c-2.3,0.9-3.4,3.4-2.5,5.7c0.7,1.7,2.3,2.8,4.1,2.8c0.5,0,1.1-0.1,1.6-0.3
		c2.7-1,5.5-1.6,8.4-1.6c6.2,0,12.1,2.4,16.5,6.9c4.4,4.4,6.9,10.3,6.9,16.5s-2.4,12.1-6.9,16.5c-4.4,4.4-10.3,6.8-16.5,6.9
		c-6.2,0-12.1-2.4-16.5-6.9c-4.4-4.4-6.9-10.3-6.9-16.5c0-4.8,1.5-9.5,4.2-13.4c0.7-1,0.9-2.1,0.7-3.3s-0.8-2.2-1.8-2.9
		c-0.8-0.5-1.6-0.8-2.5-0.8c-1.4,0-2.8,0.7-3.6,1.9c-3.8,5.4-5.9,11.8-5.9,18.5c0,8.6,3.4,16.7,9.4,22.8c6.1,6.1,14.2,9.4,22.8,9.4
		s16.7-3.4,22.8-9.4c5-4.9,8.2-11.5,9.1-18.4h11.7c1,6.9,4.2,13.4,9.1,18.4c6.1,6.1,14.2,9.4,22.8,9.4l0,0c8.6,0,16.7-3.4,22.8-9.4
		c6.1-6.1,9.4-14.2,9.4-22.8s-3.4-16.7-9.4-22.8C357.6,146,349.5,142.7,340.9,142.7z"/>
	<path class="st6" d="M412.1,127.6c-0.6-17.4-5.5-34.7-14.4-49.8c-8.5-14.4-20.1-26.8-34.1-35.9c-14.8-9.7-31.9-15.6-49.4-17
		c-6.1-0.5-12.3-0.5-18.4-0.2c-8.8,0.4-17.6,1.9-26.1,4.5c-15.3,4.6-29.4,12.8-41.1,23.6C216.5,63.9,207,77.7,201.1,93
		c-5,13-7.2,26.6-7.2,40.5c0,4.6,0,9.2,0,13.8c-5.6,2-10.6,5.2-14.7,9.3c-7.2,7.2-11.7,17.2-11.7,28.1l0,0c0,11,4.5,20.9,11.7,28.1
		c6.2,6.2,14.4,10.3,23.6,11.4c1.5,5.3,3.5,10.5,6,15.5c8.3,16.7,21.9,31.2,38.4,41.8c16.5,10.5,35.9,17,55.9,17
		c13.4,0,26.4-2.9,38.5-7.9c18.2-7.5,34.2-19.9,45.7-34.9c5.8-7.5,10.5-15.7,13.7-24.4c0.9-2.3,1.6-4.7,2.3-7
		c9.2-1,17.4-5.2,23.6-11.4c7.2-7.2,11.7-17.2,11.7-28.1l0,0c0-11-4.5-20.9-11.7-28.1c-4.1-4.1-9.1-7.3-14.7-9.3c0-3.8,0-7.5,0-11.3
		C412.2,133.2,412.2,130.4,412.1,127.6z M418.8,164.7c5.1,5.1,8.3,12.2,8.3,20l0,0c0,7.8-3.2,14.8-8.3,20c-3.6,3.6-8.1,6.1-13.1,7.4
		c0.3-2.6,0.4-5.2,0.4-7.8c0-3.2-2.6-5.8-5.8-5.8s-5.8,2.6-5.8,5.8c0,10.3-2.7,20.6-7.6,30.3c-7.3,14.6-19.5,27.8-34.3,37.2
		c-14.8,9.5-32.2,15.2-49.7,15.1c-11.7,0-23.3-2.5-34.1-7c-16.2-6.7-30.7-17.9-41-31.3c-5.2-6.7-9.3-13.9-12.1-21.4
		s-4.3-15.2-4.3-22.9c0-3.2-2.6-5.8-5.8-5.8s-5.8,2.6-5.8,5.8c0,2.6,0.2,5.2,0.5,7.8c-5-1.3-9.5-3.8-13.1-7.4
		c-5.1-5.1-8.3-12.2-8.3-20l0,0c0-7.8,3.2-14.8,8.3-20c1.9-1.9,4.2-3.6,6.6-4.9c0,2.5,0,5,0,7.5c0,1.9,0.7,3.6,2.3,4.6
		c2.5,1.6,5.1,0.8,7.1-1.2c3.6-3.5,7.5-6.6,11.2-10c4.5-4.2,8.7-8.7,11.8-13.9c3.6-5.9,5.3-12.4,5.3-19.3c0-7.4-1.3-14.7-4-21.5
		c-0.2-0.6,0.1-0.7,0.5-1.1c0.3-0.3,0.6-0.6,0.9-0.8c0.5-0.4,1.1-0.8,1.6-1.2c1.2-0.7,2.5-1.1,3.8-1.3c5.9-1.2,12-1.9,17.9-3.2
		c17.1-3.8,32.8-12.9,47-22.8c0.8-0.6,1.7-1.2,2.5-1.8c0.3-0.2,0.9-0.8,1.2-0.9c0.4-0.1,0.8,0.8,1.1,1.2c1.3,1.6,2.6,3.2,4,4.7
		c2.9,3.1,6.1,6,9.6,8.5c2.7,1.9,5.8,2.9,9.1,2.1c3.1-0.7,5.6-2.9,7-5.7c1.5-3.1,2.8-6.3,4.2-9.5c0.8-1.8,1.6-3.6,2.4-5.4
		c0.7-1.6,1.5-3,3.2-3.6c3.8-1.4,6.3,2.4,8.5,4.8c3,3.3,5.9,6.6,8.6,10.1c5,6.3,9.7,13,13,20.4c1.3,3,2.4,6.2,2.9,9.5
		c0.2,1.6-0.5,3.1-0.8,4.7c-0.4,1.9-0.7,3.7-1,5.6c-0.9,7.4-0.6,14.9,2.3,21.8c4.7,11,14.1,18.6,22.9,26.4c1.6,1.4,3.3,3.7,5.4,4.3
		c2.6,0.7,5.5-0.7,6.4-3.2c0.3-1,0.3-1.9,0.3-2.9c0-1.4,0-2.7,0-4.1c0-0.8,0-1.7,0-2.5C414.6,161.1,416.8,162.8,418.8,164.7z"/>
</g>
</svg>
