<!--?xml version="1.0" encoding="utf-8"?-->
<!-- Generator: Adobe Illustrator 22.1.0, SVG Export Plug-In . SVG Version: 6.00 Build 0)  -->
<svg version="1.1" id="_x31_2" xmlns="http://www.w3.org/2000/svg" xmlns:xlink="http://www.w3.org/1999/xlink" x="0px" y="0px" viewBox="0 0 603 720" style="enable-background:new 0 0 603 720;" xml:space="preserve">
<style type="text/css">
	.st0{fill:#768FA5;}
	.st1{fill:#FFFFFF;}
	.st2{fill:#FF6F3D;}
	.st3{fill:#FFE6D4;}
	.st4{fill:#FFD7C5;}
	.st5{fill:#FFF0DE;}
	.st6{fill:#231815;}
</style>
<g>
	<path class="st0" d="M497.813,652.722c0,0,48.995,0,60.082,0s30.491,1.385,37.421-34.642c6.93-36.028-44.35-162.012-44.35-162.012
		c-48.052-117.986-98.483-156.782-141.997-170.128H194.031c-43.513,13.346-93.944,52.143-141.997,170.128
		c0,0-51.279,125.984-44.35,162.012s26.332,34.642,37.42,34.642s60.082,0,60.082,0H497.813z" style="opacity: 1;"></path>
	<path class="st1" d="M198.216,287.128c0,0,1.074,8.706,0.009,12.158c-1.065,3.452,89.967,121.547,89.967,121.547
		s9.719,7.573,16.644,6.801c6.923-0.771,16.22-12.583,16.22-12.583l95.765-129.111l-46.992-17.654
		c-39.807-25.617-90.699-26.451-131.324-2.154L198.216,287.128z" style="opacity: 1;"></path>
	<path class="st2" d="M301.498,495.855c-60.088-38.863-152.658-41.849-188.458-38.98v215.762c35.8-2.868,128.37,0.117,188.458,38.98
		c60.092-38.863,152.661-41.848,188.462-38.98V456.875C454.159,454.007,361.591,456.992,301.498,495.855z" style="opacity: 1; stroke: none; stroke-width: 7px; fill: rgb(255, 255, 0);"></path>
	<ellipse class="st3" cx="303.334" cy="109.11" rx="113.488" ry="107.475" style="opacity: 1; stroke: none; stroke-width: 7px;"></ellipse>
	<path class="st4" d="M417.49,147.118L417.49,147.118v-11.714c0-52.776-55.067-103.161-113.488-103.161
		S190.514,82.628,190.514,135.404v11.89c-20.193,1.852-36.011,18.823-36.011,39.495c0,21.296,16.784,38.668,37.847,39.625
		c10.003,46.174,59.488,86.345,111.651,86.345c52.146,0,101.615-40.144,111.641-86.298h1.846c21.914,0,39.679-17.762,39.679-39.672
		C457.168,164.88,439.403,147.118,417.49,147.118z" style="opacity: 1;"></path>
	<path class="st5" d="M292.728,175.969c0,17.523-14.208,31.728-31.733,31.728c-17.526,0-31.734-14.205-31.734-31.728
		c0-17.522,14.208-31.727,31.734-31.727C278.52,144.242,292.728,158.447,292.728,175.969z" style="opacity: 1;"></path>
	<path class="st5" d="M378.525,175.969c0,17.523-14.208,31.728-31.733,31.728c-17.526,0-31.734-14.205-31.734-31.728
		c0-17.522,14.208-31.727,31.734-31.727C364.317,144.242,378.525,158.447,378.525,175.969z" style="opacity: 1;"></path>
	<path class="st4" d="M464.837,606.2h5.947l-0.132-2.25h-5.815c-7.547,0-13.722-6.174-13.722-13.72s6.175-13.719,13.722-13.719
		h4.207l-0.251-4.282h-1.715c-7.547,0-21.084-6.173-21.084-13.719s13.538-13.719,21.084-13.719h0.106l-0.251-4.29
		c-7.479-0.08-13.576-6.215-13.576-13.711c0-7.546,6.175-13.72,13.721-13.72h52.741c7.557,3.723,14.994,11.507,14.994,24.694v49.821
		c-0.329,21.3-1.7,35.988-6.516,46.227c-1.898,1.292-4.055,2.075-6.344,2.075l-57.117-2.25c-7.547,0-13.722-6.173-13.722-13.719
		S457.29,606.2,464.837,606.2z" style="opacity: 1;"></path>
	<path class="st4" d="M138.163,606.2h-5.948l0.132-2.25h5.816c7.547,0,13.721-6.174,13.721-13.72s-6.175-13.719-13.721-13.719
		h-4.207l0.251-4.282h1.714c7.548,0,21.084-6.173,21.084-13.719s-13.537-13.719-21.084-13.719h-0.106l0.251-4.29
		c7.48-0.08,13.576-6.215,13.576-13.711c0-7.546-6.174-13.72-13.721-13.72h-52.74c-7.558,3.723-14.995,11.507-14.995,24.694v49.821
		c0.329,21.3,1.7,35.988,6.517,46.227c1.898,1.292,4.054,2.075,6.343,2.075l57.117-2.25c7.547,0,13.721-6.173,13.721-13.719
		S145.71,606.2,138.163,606.2z" style="opacity: 1;"></path>
	<path class="st6" d="M590.416,546.731c-13.462-45.508-32.887-93.201-32.93-93.316c-24.251-59.533-49.231-99.471-74.042-126.419
		c-12.403-13.468-24.769-23.673-36.916-31.378c-12.145-7.707-24.066-12.904-35.494-16.407c-3.717-1.14-7.655,0.948-8.795,4.665
		c-1.038,3.383,0.617,6.925,3.724,8.398c-2.305-0.146-4.634,0.831-6.11,2.826v0l-80.028,108.12v-56.891h-18.572h-18.572v56.356
		l-69.875-97.411c-2.266-3.159-6.665-3.883-9.824-1.618c-3.16,2.266-3.884,6.663-1.618,9.822l82.36,114.815l0.034,0.046
		c2.146,2.904,4.903,5.139,7.923,6.61c3.022,1.475,6.301,2.205,9.572,2.205c3.271,0,6.55-0.73,9.572-2.205
		c3.02-1.471,5.778-3.707,7.923-6.61l92.423-124.866c2.313-3.125,1.654-7.533-1.471-9.845c-0.063-0.047-0.134-0.074-0.199-0.118
		c9.524,3.138,19.355,7.571,29.484,13.995c16.566,10.513,33.959,26.345,51.733,50.567c17.767,24.215,35.877,56.815,53.728,100.651
		c0-0.001,0.04,0.097,0.123,0.303c1.288,3.182,12.465,30.984,23.276,63.125c5.405,16.065,10.718,33.218,14.649,48.842
		c1.966,7.809,3.586,15.235,4.703,21.912c1.12,6.672,1.727,12.609,1.723,17.308c0.002,2.618-0.189,4.845-0.517,6.538
		c-1.499,7.805-3.581,13.432-5.814,17.422c-1.679,2.998-3.426,5.084-5.159,6.616c-2.603,2.281-5.225,3.426-8.09,4.114
		c-2.855,0.676-5.914,0.792-8.949,0.787c-0.833,0-1.664-0.007-2.495-0.007c-5.544,0-20.564,0-34.199,0c-6.817,0-13.288,0-18.055,0
		c-4.767,0-7.821,0-7.829,0c-0.278,0-0.543,0.05-0.813,0.082v-1.856c0-0.29-0.051-0.567-0.086-0.848h16.274
		c8.115,0.003,15.516-3.305,20.827-8.625c5.321-5.311,8.629-12.71,8.626-20.822v-79.715c0.003-8.113-3.306-15.512-8.626-20.823
		c-5.311-5.32-12.712-8.628-20.827-8.625h-9.223h-8.701c1.067-1.234,1.735-2.822,1.735-4.581v-49.492l-6.477-0.519
		c-6.331-0.507-14.251-0.831-23.381-0.831c-22.204,0.003-51.546,1.912-81.854,7.94c-28.836,5.752-58.552,15.209-83.789,30.597
		c-25.235-15.388-54.951-24.845-83.786-30.597c-30.308-6.029-59.65-7.937-81.854-7.94c-9.13,0-17.05,0.323-23.382,0.831l-6.477,0.52
		v49.492c0,1.759,0.668,3.347,1.735,4.581h-8.7h-9.224c-8.115-0.003-15.515,3.305-20.826,8.625c-5.321,5.31-8.63,12.71-8.627,20.823
		v79.715c-0.003,8.113,3.306,15.512,8.627,20.822c5.311,5.32,12.712,8.628,20.826,8.625h17.407
		c-0.546,0.801-0.916,1.725-1.093,2.717c-0.31-0.042-0.617-0.095-0.938-0.095c0,0-48.995,0-60.082,0
		c-0.831,0-1.662,0.007-2.495,0.007c-2.698,0.004-5.415-0.085-7.99-0.583c-1.934-0.373-3.775-0.96-5.547-1.893
		c-2.647-1.414-5.247-3.565-7.816-7.617c-2.549-4.046-4.972-10.064-6.659-18.847c-0.328-1.692-0.52-3.92-0.517-6.538
		c-0.004-4.851,0.643-11.02,1.833-17.956c2.076-12.155,5.78-26.685,10.173-41.534c6.589-22.287,14.72-45.334,21.194-62.77
		c3.237-8.72,6.061-16.04,8.073-21.174c1.006-2.567,1.809-4.587,2.359-5.963c0.275-0.688,0.487-1.214,0.63-1.567
		c0.142-0.353,0.213-0.526,0.213-0.527c23.802-58.453,48.064-96.906,71.359-122.189c11.65-12.648,23.054-22.018,34.102-29.028
		c11.051-7.008,21.751-11.665,32.079-14.835c3.717-1.14,5.806-5.077,4.665-8.793c-1.14-3.716-5.078-5.805-8.795-4.665l0,0
		c-11.428,3.503-23.349,8.7-35.494,16.407c-18.227,11.56-36.919,28.736-55.543,54.128C82.3,375.143,63.701,408.76,45.514,453.413
		c-0.032,0.08-11.319,27.807-22.642,61.11c-5.662,16.657-11.335,34.703-15.622,51.465c-2.143,8.384-3.942,16.447-5.216,23.896
		c-1.271,7.455-2.03,14.279-2.034,20.328c0.002,3.274,0.221,6.327,0.771,9.197c1.718,8.922,4.199,15.989,7.351,21.632
		c2.361,4.227,5.117,7.644,8.131,10.301c4.518,4.004,9.567,6.19,14.182,7.263c4.624,1.084,8.854,1.157,12.175,1.162
		c0.905,0,1.743-0.007,2.495-0.007c11.088,0,60.082,0,60.082,0c0.278,0,0.543-0.05,0.813-0.082v20.584l7.603-0.609
		c5.875-0.472,13.462-0.786,22.254-0.786c21.398-0.003,49.954,1.863,79.105,7.669c29.158,5.79,58.892,15.563,82.713,30.991
		l3.824,2.473l3.824-2.473c23.822-15.427,53.558-25.2,82.716-30.99c29.152-5.806,57.708-7.673,79.105-7.669
		c8.792,0,16.379,0.314,22.253,0.786l7.604,0.61v-20.584c0.27,0.031,0.535,0.082,0.813,0.082c0.008,0,3.062,0,7.829,0
		c14.299,0,43.938,0,52.254,0c0.752,0,1.59,0.007,2.495,0.007c2.952-0.004,6.622-0.065,10.649-0.836
		c3.018-0.579,6.25-1.574,9.453-3.263c4.816-2.518,9.459-6.639,13.173-12.58c3.733-5.947,6.631-13.645,8.564-23.68
		c0.549-2.869,0.769-5.922,0.771-9.196c-0.004-6.05-0.763-12.874-2.034-20.328C598.735,576.854,594.904,561.916,590.416,546.731z
		 M513.189,516.278c4.885,0.003,9.254,1.963,12.462,5.161c3.199,3.207,5.159,7.575,5.162,12.46v79.715
		c-0.003,4.884-1.963,9.252-5.162,12.459c-3.208,3.198-7.576,5.158-12.462,5.161h-45.832c-1.522-0.06-3.123-0.369-4.613-0.912
		c-2.272-0.821-4.242-2.163-5.543-3.776c-0.657-0.81-1.163-1.686-1.518-2.665c-0.353-0.981-0.563-2.072-0.564-3.366
		c-0.001-2.424,0.766-5.654,3.139-9.744c0.149-0.256,0.252-0.524,0.359-0.792c0.864,0.108,1.737,0.182,2.628,0.182h22.684
		c3.267,0,5.915-2.648,5.915-5.914c0-3.266-2.648-5.913-5.915-5.913l-22.684,0c-2.563-0.002-4.868-1.036-6.587-2.746
		c-1.71-1.718-2.745-4.024-2.747-6.586c0.001-2.562,1.037-4.868,2.747-6.586c1.719-1.711,4.024-2.745,6.587-2.747h22.684
		c3.267,0,5.915-2.648,5.915-5.913c0-3.266-2.648-5.913-5.915-5.913v0h-22.684c-2.563-0.002-4.868-1.036-6.587-2.746
		c-1.71-1.719-2.745-4.024-2.747-6.586c0.001-2.562,1.036-4.867,2.747-6.586c1.719-1.71,4.024-2.745,6.587-2.746h22.684
		c3.267,0,5.915-2.648,5.915-5.913c0-3.266-2.648-5.914-5.915-5.914l-22.684,0c-0.891,0-1.764,0.074-2.628,0.182
		c-0.107-0.268-0.21-0.536-0.359-0.792c-2.373-4.092-3.14-7.321-3.139-9.745c0.005-1.724,0.367-3.091,0.97-4.312
		c0.902-1.813,2.453-3.359,4.498-4.509c2.017-1.14,4.485-1.812,6.781-1.896h36.6H513.189z M77.349,626.073
		c-3.199-3.208-5.159-7.575-5.162-12.459v-79.715c0.003-4.884,1.963-9.252,5.162-12.46c3.208-3.198,7.577-5.158,12.462-5.161h9.224
		h36.609c1.521,0.06,3.122,0.369,4.613,0.911c2.272,0.821,4.241,2.162,5.543,3.775c0.657,0.81,1.163,1.686,1.518,2.665
		c0.353,0.981,0.563,2.072,0.564,3.366c0.001,2.423-0.766,5.653-3.139,9.745c-0.149,0.256-0.252,0.525-0.359,0.792
		c-0.864-0.109-1.737-0.183-2.628-0.182h-22.684c-3.267,0-5.915,2.647-5.915,5.914c0,3.266,2.648,5.914,5.915,5.914l22.684,0
		c2.563,0.002,4.868,1.036,6.587,2.746c1.71,1.719,2.745,4.024,2.747,6.586c-0.001,2.562-1.036,4.867-2.747,6.586
		c-1.719,1.71-4.024,2.745-6.587,2.746h-22.684c-3.267,0-5.915,2.647-5.915,5.914c0,3.266,2.648,5.914,5.915,5.914v0h22.684
		c2.562,0.002,4.868,1.036,6.587,2.747c1.711,1.719,2.746,4.024,2.747,6.586c-0.001,2.562-1.036,4.867-2.747,6.586
		c-1.719,1.71-4.024,2.745-6.587,2.746h-22.684c-3.267,0-5.915,2.647-5.915,5.914c0,3.266,2.648,5.914,5.915,5.914l22.684,0
		c0.891,0,1.764-0.074,2.628-0.182c0.107,0.267,0.211,0.536,0.359,0.792v0c2.373,4.09,3.14,7.32,3.139,9.744
		c-0.005,1.724-0.367,3.091-0.97,4.312c-0.902,1.813-2.453,3.359-4.499,4.509c-2.018,1.14-4.485,1.813-6.781,1.897H89.811
		C84.926,631.231,80.557,629.271,77.349,626.073z M135.856,664.79c-5.777,0-11.065,0.13-15.776,0.354v-18.128
		c0-1.467-0.45-2.827-1.218-3.955h17.064l0.099-0.004c2.796-0.104,5.591-0.647,8.269-1.618c4.007-1.458,7.798-3.89,10.688-7.435
		c1.439-1.77,2.636-3.819,3.46-6.097c0.826-2.277,1.272-4.776,1.271-7.392c-0.001-4.807-1.491-9.926-4.484-15.218
		c0.515-0.426,1.009-0.875,1.48-1.347c3.817-3.808,6.213-9.126,6.212-14.949c0.001-5.823-2.394-11.141-6.212-14.95
		c-0.104-0.104-0.22-0.195-0.326-0.297c0.106-0.102,0.223-0.193,0.326-0.297c3.817-3.808,6.213-9.126,6.212-14.949
		c0.001-5.823-2.395-11.141-6.212-14.949c-0.471-0.472-0.965-0.921-1.48-1.347c2.993-5.293,4.483-10.411,4.484-15.218
		c0.005-3.488-0.799-6.766-2.214-9.592c-2.126-4.256-5.524-7.431-9.296-9.544c-3.787-2.116-7.987-3.246-12.179-3.405l-0.106-0.004
		h-17.573c1.067-1.234,1.735-2.822,1.735-4.581v-36.392c4.632-0.232,9.931-0.373,15.778-0.373
		c21.398-0.003,49.953,1.863,79.104,7.67c28.099,5.581,56.718,14.876,80.079,29.349v199.432
		c-23.769-13.192-50.923-21.56-77.332-26.828C187.402,666.701,158.06,664.793,135.856,664.79z M385.289,672.73
		c-26.41,5.267-53.564,13.636-77.335,26.827V500.125c23.363-14.474,51.982-23.769,80.082-29.35
		c29.151-5.806,57.707-7.673,79.105-7.669c5.847,0,11.146,0.141,15.778,0.373v36.392c0,1.759,0.668,3.347,1.735,4.581h-17.569
		l-0.11,0.004c-2.796,0.104-5.591,0.647-8.269,1.617c-4.007,1.458-7.798,3.889-10.688,7.435c-1.439,1.77-2.636,3.819-3.46,6.097
		c-0.826,2.277-1.272,4.776-1.271,7.392c0.001,4.807,1.491,9.925,4.484,15.218c-0.515,0.426-1.009,0.875-1.48,1.347
		c-3.817,3.808-6.213,9.126-6.212,14.949c-0.001,5.823,2.395,11.141,6.212,14.949c0.104,0.104,0.22,0.195,0.326,0.297
		c-0.106,0.102-0.223,0.193-0.326,0.297c-3.817,3.808-6.213,9.126-6.211,14.95c-0.001,5.823,2.395,11.141,6.212,14.949
		c0.471,0.472,0.965,0.92,1.48,1.347c-2.993,5.292-4.483,10.411-4.484,15.217c-0.005,3.488,0.799,6.766,2.214,9.592
		c2.126,4.256,5.524,7.431,9.295,9.545c3.787,2.116,7.986,3.246,12.178,3.406l0.106,0.004h15.925
		c-0.034,0.281-0.086,0.557-0.086,0.848v21.235c-4.712-0.224-10-0.353-15.776-0.354C444.94,664.793,415.597,666.701,385.289,672.73z
		" style="opacity: 1;"></path>
	<path class="st6" d="M322.38,243.946c-1.81,0-3.343,1.213-3.826,2.877h-30.438c-0.481-1.66-2.015-2.877-3.829-2.877
		c-2.196,0-3.983,1.786-3.983,3.982v6.872c0,2.197,1.787,3.984,3.983,3.984c1.81,0,3.343-1.214,3.826-2.877h30.438
		c0.48,1.659,2.014,2.877,3.828,2.877c2.196,0,3.983-1.787,3.983-3.984v-6.872C326.363,245.733,324.576,243.946,322.38,243.946z" style="opacity: 1;"></path>
	<path class="st6" d="M272.391,174.278L272.391,174.278c0-6.882-5.631-12.513-12.514-12.513c-6.884,0-12.516,5.631-12.516,12.512
		v0.001c0,6.881,5.632,12.512,12.516,12.512C266.76,186.789,272.391,181.159,272.391,174.278z" style="opacity: 1;"></path>
	<path class="st6" d="M359.307,174.278L359.307,174.278c0-6.882-5.632-12.513-12.515-12.513c-6.883,0-12.516,5.631-12.516,12.512
		v0.001c0,6.881,5.632,12.512,12.516,12.512C353.674,186.789,359.307,181.159,359.307,174.278z" style="opacity: 1;"></path>
	<path class="st6" d="M310.905,219.011c1.776,0,3.215-1.44,3.215-3.215s-1.439-3.214-3.215-3.214h-9.396
		c-2.21,0-4.235-1.238-5.242-3.205l-0.845-1.646c-0.727-1.421-2.873-0.903-2.873,0.693v6.288c0,2.374,1.925,4.299,4.299,4.299
		H310.905z" style="opacity: 1;"></path>
	<path class="st6" d="M339.948,128.749h13.688c3.118,0,5.67-2.552,5.67-5.67c0-3.119-2.552-5.67-5.67-5.67h-13.688
		c-3.119,0-5.672,2.551-5.672,5.67C334.276,126.197,336.829,128.749,339.948,128.749z" style="opacity: 1;"></path>
	<path class="st6" d="M253.033,128.749h13.688c3.119,0,5.67-2.552,5.67-5.67c0-3.119-2.551-5.67-5.67-5.67h-13.688
		c-3.119,0-5.672,2.551-5.672,5.67C247.361,126.197,249.914,128.749,253.033,128.749z" style="opacity: 1;"></path>
	<path class="st6" d="M347.399,137.766c-4.667,0-9.223,0.847-13.543,2.515c-2.657,1.027-3.984,4.023-2.958,6.679
		c0.764,1.977,2.701,3.305,4.82,3.305c0.637,0,1.263-0.117,1.861-0.348c3.129-1.208,6.435-1.82,9.825-1.821
		c7.283,0.002,14.136,2.841,19.295,7.99c5.151,5.158,7.99,12.01,7.991,19.292c-0.002,7.281-2.84,14.132-7.991,19.29
		c-5.16,5.152-12.012,7.989-19.295,7.99c-7.284-0.002-14.137-2.839-19.296-7.99c-5.152-5.158-7.99-12.01-7.992-19.291
		c0.002-5.646,1.712-11.064,4.944-15.667c0.794-1.129,1.1-2.499,0.863-3.858c-0.236-1.359-0.989-2.544-2.118-3.338
		c-0.875-0.615-1.902-0.94-2.967-0.94c-1.683,0-3.263,0.82-4.23,2.195c-3.408,4.841-5.631,10.52-6.447,16.457h-13.639
		c-1.112-8.082-4.881-15.677-10.657-21.445c-7.098-7.104-16.542-11.017-26.604-11.017c-4.667,0-9.224,0.847-13.543,2.515
		c-2.657,1.027-3.985,4.023-2.958,6.679c0.764,1.977,2.701,3.305,4.819,3.305c0.637,0,1.263-0.117,1.861-0.348
		c3.129-1.208,6.434-1.82,9.824-1.821c7.284,0.002,14.135,2.841,19.294,7.99c5.152,5.158,7.99,12.01,7.993,19.292
		c-0.002,7.281-2.84,14.132-7.991,19.29c-5.16,5.152-12.012,7.989-19.296,7.99c-7.283-0.002-14.136-2.839-19.295-7.99
		c-5.152-5.158-7.99-12.01-7.993-19.291c0.002-5.646,1.713-11.064,4.945-15.667c0.794-1.129,1.1-2.499,0.863-3.858
		c-0.237-1.359-0.989-2.544-2.118-3.338c-0.875-0.615-1.901-0.94-2.966-0.94c-1.683,0-3.263,0.82-4.23,2.195
		c-4.468,6.346-6.827,13.818-6.826,21.608c-0.002,10.052,3.911,19.497,11.019,26.594c7.097,7.105,16.541,11.017,26.609,11.017
		c10.05,0,19.494-3.912,26.591-11.016c5.776-5.768,9.545-13.363,10.658-21.444h13.622c1.112,8.081,4.882,15.676,10.657,21.444
		c7.098,7.105,16.542,11.017,26.601,11.017h0.009c10.05,0,19.495-3.913,26.591-11.016c7.108-7.099,11.021-16.544,11.019-26.595
		c0.002-10.052-3.911-19.498-11.018-26.596C366.905,141.678,357.462,137.766,347.399,137.766z" style="opacity: 1;"></path>
	<path class="st6" d="M430.532,120.221c-0.687-20.327-6.452-40.502-16.772-58.045c-9.86-16.76-23.451-31.201-39.751-41.865
		c-17.213-11.26-37.158-18.14-57.664-19.819c-7.084-0.58-14.349-0.607-21.455-0.288c-10.321,0.463-20.578,2.221-30.46,5.232
		c-17.791,5.422-34.272,14.901-47.965,27.478c-14.078,12.928-25.148,29.061-32.06,46.885c-5.871,15.137-8.346,31.01-8.346,47.194
		c0,5.371,0,10.742,0,16.113c-6.532,2.336-12.395,6.085-17.186,10.881c-8.386,8.374-13.593,20.014-13.589,32.802v0.001
		c-0.003,12.788,5.204,24.428,13.589,32.802c7.203,7.211,16.827,12.061,27.517,13.278c1.717,6.212,4.046,12.282,6.965,18.117
		c9.734,19.434,25.584,36.444,44.783,48.71c19.201,12.25,41.829,19.773,65.197,19.781c15.575-0.001,30.833-3.355,44.954-9.21
		c21.18-8.794,39.843-23.189,53.356-40.74c6.753-8.779,12.214-18.359,16.002-28.452c1.013-2.7,1.896-5.441,2.661-8.209
		c10.679-1.222,20.292-6.069,27.489-13.274c8.386-8.374,13.593-20.014,13.589-32.802v-0.001
		c0.003-12.789-5.204-24.428-13.589-32.802c-4.79-4.795-10.651-8.544-17.182-10.88c0-4.379,0-8.758,0-13.136
		C430.614,126.72,430.643,123.469,430.532,120.221z M438.293,163.488c5.975,5.984,9.65,14.18,9.653,23.301v0.001
		c-0.003,9.121-3.678,17.316-9.653,23.301c-4.16,4.152-9.405,7.156-15.27,8.626c0.329-3.023,0.517-6.063,0.517-9.12
		c0-3.71-3.008-6.718-6.719-6.718s-6.719,3.008-6.719,6.718c0.001,12.018-3.137,24.041-8.807,35.379
		c-8.491,17.001-22.719,32.38-39.995,43.394c-17.274,11.03-37.519,17.678-57.966,17.67c-13.636,0.001-27.168-2.944-39.804-8.185
		c-18.953-7.851-35.845-20.897-47.853-36.521c-6.008-7.808-10.798-16.25-14.072-24.979c-3.276-8.732-5.039-17.742-5.039-26.758
		c0-3.71-3.008-6.718-6.719-6.718s-6.719,3.008-6.719,6.718c0,3.059,0.205,6.1,0.535,9.124c-5.872-1.468-11.122-4.474-15.287-8.63
		c-5.975-5.984-9.65-14.18-9.653-23.301v-0.001c0.003-9.121,3.678-17.317,9.653-23.301c2.267-2.262,4.853-4.191,7.684-5.719
		c-0.002,2.921-0.014,5.844,0,8.765c0.011,2.169,0.863,4.156,2.723,5.374c2.899,1.9,5.945,0.894,8.233-1.352
		c4.148-4.07,8.757-7.652,13.009-11.611c5.206-4.849,10.101-10.138,13.784-16.257c4.17-6.928,6.153-14.425,6.162-22.492
		c0.009-8.597-1.507-17.092-4.659-25.096c-0.273-0.693,0.11-0.833,0.618-1.31c0.351-0.329,0.708-0.652,1.079-0.961
		c0.598-0.5,1.227-0.967,1.902-1.359c1.37-0.796,2.893-1.228,4.435-1.551c6.919-1.448,13.961-2.216,20.869-3.774
		c19.912-4.49,38.25-15.017,54.828-26.617c0.986-0.689,1.968-1.386,2.944-2.088c0.363-0.262,1.043-0.982,1.452-1.051
		c0.41-0.07,0.96,0.921,1.297,1.347c1.492,1.886,3.055,3.715,4.694,5.475c3.414,3.669,7.158,7.039,11.24,9.953
		c3.154,2.252,6.707,3.374,10.567,2.427c3.56-0.874,6.573-3.346,8.138-6.658c1.727-3.651,3.263-7.404,4.889-11.1
		c0.926-2.106,1.853-4.212,2.78-6.318c0.803-1.824,1.694-3.49,3.714-4.232c4.433-1.63,7.318,2.774,9.882,5.607
		c3.463,3.828,6.825,7.749,10.03,11.796c5.832,7.362,11.353,15.202,15.179,23.819c1.566,3.526,2.847,7.223,3.436,11.046
		c0.281,1.821-0.578,3.667-0.976,5.453c-0.481,2.16-0.85,4.343-1.111,6.54c-1.025,8.615-0.721,17.383,2.732,25.442
		c5.503,12.842,16.473,21.72,26.66,30.74c1.875,1.66,3.799,4.264,6.261,4.976c3.009,0.871,6.358-0.838,7.412-3.785
		c0.397-1.11,0.352-2.248,0.352-3.401c0-1.601,0-3.201,0-4.802c0-0.981,0-1.961,0-2.942
		C433.443,159.299,436.028,161.227,438.293,163.488z" style="opacity: 1;"></path>
</g>
</svg>
