<?xml version="1.0" encoding="utf-8"?>
<!-- Generator: Adobe Illustrator 26.5.0, SVG Export Plug-In . SVG Version: 6.00 Build 0)  -->
<svg version="1.1" id="圖層_1" xmlns="http://www.w3.org/2000/svg" xmlns:xlink="http://www.w3.org/1999/xlink" x="0px" y="0px"
	 viewBox="0 0 44.9 139.8" style="enable-background:new 0 0 44.9 139.8;" xml:space="preserve">
<style type="text/css">
	.st0{fill:#0E0D6A;}
</style>
<rect x="19.4" y="11.6" class="st0" width="2" height="120.3"/>
<polygon class="st0" points="21.4,11.6 32,31.8 19.4,31.8 19.4,8.1 "/>
<g>
	<g>
		<path class="st0" d="M30.1,79.5c0.1,0.3,0.1,0.7,0.1,1.1c0,0.7-0.1,1.1-0.4,1.4c-0.2,0.2-0.5,0.3-0.9,0.3c-0.6,0-1-0.4-1.2-0.9
			l0,0c-0.1,0.4-0.5,1.1-1.4,1.1c-0.4,0-0.8-0.2-1-0.4c-0.4-0.4-0.5-0.9-0.5-1.7c0-0.4,0-0.7,0.1-0.9H30.1L30.1,79.5z M25.1,79.9
			c0,0.2,0,0.4,0,0.7c0,0.8,0.3,1.6,1.2,1.6s1.2-0.7,1.2-1.6v-0.7H25.1L25.1,79.9z M27.8,79.9v0.7c0,0.8,0.5,1.3,1.1,1.3
			c0.8,0,1-0.6,1-1.4c0-0.4,0-0.6-0.1-0.7L27.8,79.9L27.8,79.9z"/>
		<path class="st0" d="M24.8,87.2l0.6-0.1l0,0c-0.3-0.2-0.6-0.6-0.6-1.2c0-0.8,0.5-1.1,1.1-1.1c0.9,0,1.4,0.8,1.4,2.3h0.1
			c0.4,0,1.1-0.1,1.1-1c0-0.3-0.1-0.7-0.3-1l0.3-0.1c0.2,0.4,0.3,0.8,0.3,1.1c0,1.1-0.8,1.3-1.5,1.3h-1.6c-0.3,0-0.6,0-0.9,0.1V87.2
			L24.8,87.2z M26.9,87.1c0-0.8-0.1-1.9-1-1.9c-0.6,0-0.8,0.4-0.8,0.8c0,0.6,0.4,1,0.8,1.1c0.1,0,0.2,0,0.2,0H26.9L26.9,87.1z"/>
		<path class="st0" d="M25,93c-0.1-0.2-0.2-0.6-0.2-1.1c0-1.1,0.8-1.8,2-1.8s2.1,0.8,2.1,2c0,0.5-0.1,0.9-0.2,1L28.4,93
			c0.1-0.2,0.2-0.5,0.2-0.9c0-1-0.8-1.6-1.7-1.6c-1,0-1.7,0.6-1.7,1.5c0,0.5,0.1,0.8,0.2,1H25z"/>
		<path class="st0" d="M26.8,95.9L26.8,95.9c0.1,0.1,0.3,0.3,0.4,0.4l1.4,1.4v0.5L27,96.6l-2.2,1.8v-0.5l2-1.6l-0.4-0.4h-1.6v-0.4
			h5.7v0.4L26.8,95.9L26.8,95.9z"/>
		<path class="st0" d="M29.9,104.9v-1.8h0.3v3.9h-0.3v-1.8h-5.1v-0.4L29.9,104.9L29.9,104.9z"/>
		<path class="st0" d="M26.8,112.5c-1.4,0-2-1-2-1.8c0-1,0.8-1.8,2-1.8c1.3,0,2,0.9,2,1.8C28.7,111.7,27.9,112.5,26.8,112.5z
			 M26.7,109.2c-1,0-1.7,0.6-1.7,1.4s0.7,1.4,1.7,1.4c0.7,0,1.7-0.4,1.7-1.4C28.4,109.7,27.5,109.2,26.7,109.2z"/>
		<path class="st0" d="M29.9,119.4v-1.8h0.3v3.9h-0.3v-1.8h-5.1v-0.4L29.9,119.4L29.9,119.4z"/>
		<path class="st0" d="M26.8,127c-1.4,0-2-1-2-1.8c0-1,0.8-1.8,2-1.8c1.3,0,2,0.9,2,1.8C28.7,126.2,27.9,127,26.8,127z M26.7,123.8
			c-1,0-1.7,0.6-1.7,1.4c0,0.8,0.7,1.4,1.7,1.4c0.7,0,1.7-0.4,1.7-1.4C28.4,124.2,27.5,123.8,26.7,123.8z"/>
		<path class="st0" d="M27.4,129.5c0.5,0,0.9,0,1.2,0v0.4h-0.7l0,0c0.5,0.3,0.8,0.8,0.8,1.4c0,1-0.8,1.6-1.9,1.6
			c-1.4,0-2.1-0.8-2.1-1.8c0-0.6,0.2-1,0.7-1.3l0,0h-2.2v-0.4L27.4,129.5L27.4,129.5z M26.3,129.9c-0.1,0-0.2,0-0.3,0
			c-0.6,0.2-1,0.7-1,1.3c0,0.9,0.7,1.4,1.7,1.4c0.9,0,1.6-0.5,1.6-1.4c0-0.6-0.4-1.1-1-1.3c-0.1,0-0.2-0.1-0.3-0.1L26.3,129.9
			L26.3,129.9z"/>
	</g>
</g>
</svg>
