<?xml version="1.0" encoding="utf-8"?>
<!-- Generator: Adobe Illustrator 26.5.0, SVG Export Plug-In . SVG Version: 6.00 Build 0)  -->
<svg version="1.1" id="圖層_1" xmlns="http://www.w3.org/2000/svg" xmlns:xlink="http://www.w3.org/1999/xlink" x="0px" y="0px"
	 viewBox="0 0 500 500" style="enable-background:new 0 0 500 500;" xml:space="preserve">
<style type="text/css">
	.st0{fill:#0E0D6A;}
</style>
<rect x="203.69" y="102.01" class="st0" width="2" height="120.35"/>
<polygon class="st0" points="205.69,102.01 216.28,122.24 203.69,122.24 203.69,98.49 "/>
<g>
	<g>
		<path class="st0" d="M214.42,169.88c0.07,0.3,0.12,0.68,0.12,1.08c0,0.67-0.15,1.11-0.45,1.41c-0.22,0.22-0.51,0.33-0.89,0.33
			c-0.55,0-1.02-0.39-1.2-0.93h-0.02c-0.1,0.45-0.49,1.14-1.37,1.14c-0.44,0-0.78-0.16-1.03-0.4c-0.37-0.36-0.52-0.94-0.52-1.7
			c0-0.41,0.03-0.73,0.05-0.94H214.42z M209.43,170.26c-0.03,0.16-0.04,0.38-0.04,0.66c0,0.83,0.3,1.6,1.21,1.6
			c0.85,0,1.22-0.73,1.22-1.58v-0.68H209.43z M212.13,170.26v0.79c0,0.78,0.46,1.27,1.06,1.27c0.76,0,1.03-0.57,1.03-1.37
			c0-0.36-0.03-0.56-0.06-0.68H212.13z"/>
		<path class="st0" d="M209.11,177.61l0.55-0.06v-0.02c-0.3-0.19-0.64-0.61-0.64-1.22c0-0.77,0.54-1.13,1.06-1.13
			c0.89,0,1.42,0.78,1.4,2.34h0.1c0.38,0,1.14-0.07,1.13-0.98c0-0.34-0.09-0.69-0.29-0.96l0.28-0.12c0.24,0.35,0.33,0.78,0.33,1.12
			c0,1.11-0.83,1.32-1.52,1.32h-1.5c-0.3,0-0.62,0.01-0.91,0.06V177.61z M211.16,177.52c0.02-0.84-0.1-1.94-1.02-1.94
			c-0.55,0-0.8,0.36-0.8,0.76c0,0.64,0.4,1,0.77,1.14c0.08,0.03,0.16,0.04,0.23,0.04H211.16z"/>
		<path class="st0" d="M209.27,183.39c-0.08-0.16-0.25-0.57-0.25-1.12c0-1.11,0.81-1.84,1.96-1.84c1.22,0,2.05,0.83,2.05,1.98
			c0,0.47-0.13,0.86-0.24,1.01l-0.32-0.14c0.11-0.19,0.22-0.48,0.22-0.91c0-1.03-0.79-1.56-1.69-1.56c-1.01,0-1.66,0.63-1.66,1.52
			c0,0.46,0.13,0.75,0.22,0.96L209.27,183.39z"/>
		<path class="st0" d="M211.1,186.29v0.02c0.12,0.1,0.3,0.25,0.42,0.37l1.43,1.35v0.47l-1.59-1.55l-2.25,1.77v-0.46l2.01-1.57
			l-0.41-0.39h-1.6v-0.38h5.68v0.38H211.1z"/>
		<path class="st0" d="M214.18,195.28v-1.76h0.32v3.89h-0.32v-1.76h-5.07v-0.38H214.18z"/>
		<path class="st0" d="M211.06,202.85c-1.43,0-2.04-0.98-2.04-1.84c0-0.99,0.77-1.76,1.98-1.76c1.31,0,2.04,0.86,2.04,1.81
			C213.03,202.13,212.24,202.85,211.06,202.85z M211.02,199.64c-0.96,0-1.68,0.61-1.68,1.4c0,0.8,0.73,1.43,1.71,1.43
			c0.7,0,1.67-0.4,1.67-1.41C212.72,200.08,211.84,199.64,211.02,199.64z"/>
		<path class="st0" d="M214.18,209.8v-1.76h0.32v3.89h-0.32v-1.76h-5.07v-0.38H214.18z"/>
		<path class="st0" d="M211.06,217.37c-1.43,0-2.04-0.98-2.04-1.84c0-0.99,0.77-1.76,1.98-1.76c1.31,0,2.04,0.86,2.04,1.81
			C213.03,216.65,212.24,217.37,211.06,217.37z M211.02,214.16c-0.96,0-1.68,0.61-1.68,1.4c0,0.8,0.73,1.43,1.71,1.43
			c0.7,0,1.67-0.4,1.67-1.41C212.72,214.61,211.84,214.16,211.02,214.16z"/>
		<path class="st0" d="M211.72,219.95c0.48,0,0.86-0.01,1.23-0.03v0.36l-0.73,0.03v0.02c0.51,0.28,0.82,0.75,0.82,1.42
			c0,0.99-0.82,1.65-1.94,1.65c-1.37,0-2.07-0.82-2.07-1.75c0-0.55,0.25-1.04,0.71-1.3v-0.02h-2.2v-0.38H211.72z M210.62,220.33
			c-0.1,0-0.21,0.01-0.31,0.03c-0.59,0.16-0.98,0.67-0.98,1.26c0,0.88,0.72,1.38,1.74,1.38c0.86,0,1.64-0.48,1.64-1.35
			c0-0.56-0.39-1.1-1.02-1.27c-0.1-0.03-0.22-0.06-0.33-0.06H210.62z"/>
	</g>
</g>
</svg>
