<?xml version="1.0" encoding="utf-8"?>
<!-- Generator: Adobe Illustrator 26.5.0, SVG Export Plug-In . SVG Version: 6.00 Build 0)  -->
<svg version="1.1" id="圖層_1" xmlns="http://www.w3.org/2000/svg" xmlns:xlink="http://www.w3.org/1999/xlink" x="0px" y="0px"
	 viewBox="0 0 1920 1080" style="enable-background:new 0 0 1920 1080;" xml:space="preserve">
<style type="text/css">
	.st0{fill:none;stroke:#EDB6AF;stroke-miterlimit:10;}
	.st1{fill:#0E0D6A;}
</style>
<g>
	<g>
		<path class="st0" d="M26.7,903.5"/>
	</g>
</g>
<g>
	<g>
		<g>
			<g>
				<g>
					<path class="st1" d="M2699.7,164.9c1.4-1.4-0.2-2.1-4.8,0.6l-2.2,3.8L2699.7,164.9z"/>
					<path class="st1" d="M2666.2,178.1c-5,4-10.4,9.1-5.8,9.1c4.4-4.9,6.1-4.8,10.8-10.3c4.6-2.8,8.5-3.8,8.1-2.6
						c1.4-1.4,7.5-3.5,9.3-6.1c-6.9,1.7-14.7,5.8-22.1,11.5C2664.6,180.1,2666,178.7,2666.2,178.1z"/>
					<path class="st1" d="M2205.5,419.3l3.1-1.3C2207.7,418.2,2206.6,418.7,2205.5,419.3z"/>
					<path class="st1" d="M1916.8,562.2c2.2-1.1,3-1.8,3-2C1917.9,561.3,1916.3,562.3,1916.8,562.2z"/>
					<path class="st1" d="M1866.2,583.7c1.1-0.5,2-0.8,3-1.3C1868,582.8,1866.8,583.2,1866.2,583.7z"/>
					<path class="st1" d="M2205.5,419.3l-8,3.3C2197.3,423.5,2201.7,421.1,2205.5,419.3z"/>
					<path class="st1" d="M2605.8,217.1c1.5-1,2.8-1.9,3.8-2.8c-1.3,0.8-2.5,1.5-3.8,2.3C2605.9,216.8,2605.8,217,2605.8,217.1z"/>
					<path class="st1" d="M2330.5,351.8l2.3-1.2c0.6-0.6,1.1-1.2,1.5-1.9L2330.5,351.8z"/>
					<path class="st1" d="M2426.6,300.4c-2.2,1.1-2.1,3.2-2.5,4.4c0.9-1.4,2.3-2.6,4.1-3.7C2428.1,300.8,2427.6,300.5,2426.6,300.4z
						"/>
					<path class="st1" d="M2580.5,221.7l2.6-1.7C2582.4,220.5,2581.2,221.2,2580.5,221.7z"/>
					<path class="st1" d="M2261.2,387.7c-0.3-0.2-0.8-0.2-1.2-0.2C2260.1,387.7,2260.6,387.8,2261.2,387.7z"/>
					<path class="st1" d="M-301.5,919.1c0-0.2-0.2-0.2-0.2-0.3C-302.1,919.4-302.2,919.6-301.5,919.1z"/>
					<path class="st1" d="M-407.2,988.5l1.3-1.2c-0.1-0.4-0.2-0.8-0.4-1.1L-407.2,988.5z"/>
					<path class="st1" d="M1774,624c0.2-0.1,0.2-0.1,0.4-0.2C1776.7,622.5,1775.4,623.2,1774,624z"/>
					<path class="st1" d="M905,908c2.5,0.6,2.7,0.9,1.9,1.2c-0.8,0.3-2.8,0.5-4.5,0.6c-3.5,0.3-6.5,0.7,1.2,2.3
						c-0.3-0.2,0.4-0.4,1.4-0.7c1.1-0.3,2.5-0.6,3.5-1C910.6,909.7,911.3,908.8,905,908z"/>
					<path class="st1" d="M2603.2,218.2c-1.3,0.7-2.6,1.4-3.9,2.1C2601.1,219.5,2602.3,218.8,2603.2,218.2z"/>
					<path class="st1" d="M903.5,912.1L903.5,912.1c0.5,0.1,1,0.2,1.6,0.3C904.5,912.3,904.1,912.2,903.5,912.1z"/>
					<path class="st1" d="M1562.4,718.4c0.6,0.1,1.5,0,2.5-0.1C1564.8,718.2,1564.2,718.1,1562.4,718.4z"/>
					<path class="st1" d="M1721.8,652l-4,1.5C1719.4,653,1720.7,652.5,1721.8,652z"/>
					<path class="st1" d="M1480.6,755.2c-2.2,0.7-3,0.8-5.9,2.2c0.3,0,0.6-0.1,1-0.1C1476.7,756.6,1478.1,755.9,1480.6,755.2z"/>
					<path class="st1" d="M1393.9,789.5c0.5,0,1.2-0.2,1.8-0.2c0.8-0.4,1.8-0.8,2.7-1.2L1393.9,789.5z"/>
					<path class="st1" d="M-63.7,766.6c-2.1,0.5-3.5,0.6-4.6,0.5C-66.3,767.7-78.1,774.7-63.7,766.6z"/>
					<path class="st1" d="M2605.2,216.2c-0.2,0.7-0.8,1.3-2,2.1c0.9-0.5,1.8-1.1,2.7-1.6C2606,216.3,2605.9,216,2605.2,216.2z"/>
					<path class="st1" d="M1482.9,771l-13.9,5.3C1473,774.9,1478,773,1482.9,771z"/>
					<path class="st1" d="M559.9,535l-3.3,1C557.9,535.7,559.1,535.4,559.9,535z"/>
					<path class="st1" d="M1428.2,792.8c-2.7,0.3-5.5,1-8.3,1.8c-0.5,0.4-1.1,0.7-1.4,1.1L1428.2,792.8z"/>
					<path class="st1" d="M-68.3,767.1C-68.3,767.1-68.3,767.1-68.3,767.1C-68.3,767.1-68.3,767.1-68.3,767.1z"/>
					<path class="st1" d="M-150.1,820.2c12-7.3,4.3-5.6,6.1-8.5c7-4.7,8.9-5.2,9.8-4.9c0.9,0.3,0.6,1.6,3.5,0.7
						c8.7-5.9,14.4-12.1,21.2-16c0.7,0.1,2.1-0.6,0.8,0.8c4.3-3.7,11.4-7.8,18.8-12c7.3-4.3,14.8-8.7,19.8-12.9
						c1-0.3,1.5-0.3,1.8-0.2c-2.5-0.1-3.4-1.1-3.5-2.2c5.5-3.1,9.5-7.1,12.4-6.8c-3.4,1.8-3.4,2.6-4.7,3.9l5.5-3.8
						c6.4-0.7-7.5,5.1-6.7,6.7c5.5-3.5,11.3-7.4,16.8-11.1c5.6-3.6,11-6.8,15.5-8.8c2.9,1.1-20.1,11.5-7.4,7.2
						c-4.7,2.1-9.3,4.3-13.9,6.5c12-2.3-8.3,4.2,3.1,2.6c9-4.6,13.8-7.4,18.6-10.3c4.8-2.9,9.7-5.8,18.7-10.2c3.4-3.3-2.2-1,1.2-4.3
						c12.2-7.5,17.9-8.7,22.7-9.6c4.8-0.8,8.7-1.5,17.4-7.4c4.2-3.8,4.8-7.4,18.9-12.6l-3.4,4.7c4.4-2.1,7.1-3.7,9-4.9
						c1.9-1.3,3-2.2,4.2-3.2c2.3-1.9,4.8-3.7,14.4-7.2c-2.8,2.5-13.5,7.3-10.7,6.3c12.9-3.7,7.8-5.3,17-9.7l2.9,1.3
						c4.7-2.3,9.4-4.7,14.3-7c4.8-2.5,9.8-4.9,14.8-7.5c2.5-1.3,5-2.5,7.5-3.8c2.6-1.2,5.1-2.5,7.7-3.7c5.2-2.5,10.3-4.9,15.6-7.3
						c-0.9,1.2-4.2,3.4,1,1.9c3.3-1.6,6.6-3.1,10-4.6c3.4-1.5,6.9-3,10.4-4.4c7-2.9,14.2-5.7,21.4-8.5c7.2-2.6,14.4-5.2,21.5-7.6
						c7.1-2.4,14-4.8,20.7-6.9l9.3-5.7c2.3-0.8,4.6-0.8,2.3,0.6c10.5-3.1,0.1-1.4,4.7-4c5.8-2.3,8.1-1.8,4.6,0.2
						c4.3-2.1,9.7-4.5,15.5-7c5.9-2.5,12.2-5.2,18.7-7.7c12.9-5,26.2-9.3,36.1-11.6l-3.5,1.8c3.8-1.1,6.7-2.2,9.1-3.3
						c2.4-1.1,4.3-2.2,6.3-3.3c3.8-2.2,7.6-4.2,14.8-5.5l-2.6,1.2c16.4-4.9,33.7-10.1,50-15c16.4-4.6,31.8-8.8,44.9-10.6
						c2-2.1,10.3-4,18.2-5.9c7.9-1.9,15.5-3.7,16-6c19.5-2.7,14.2-0.8,41.3-5.8c3.6-0.7,6.1-2,8.8-3.4s5.6-2.9,10-4.1l0.7,2.1
						l11.6-4.8l7,1.1l8.2-2.3c-3.3,0.6-7.3,0.6-6.9-0.1c3.2-0.9,6.8-1.8,10.4-2.4c3.6-0.6,7.3-1.1,10.5-1.4
						c6.5-0.7,11.5-0.7,11.7-0.2c5.1-1.3,10.2-2.7,15.3-4l15.3-3.7c-0.5,1-5.7,2.2-9.7,3.5c16.1-5.2,3.4,1.7,18.2-3.1
						c-2.1-0.1,0.9-1.5,1.1-2c3.9,0,10.2-0.9,16.8-1.8c6.7-0.9,13.9-1.8,19.9-2.2l-2.2,1.6c10.8-0.3,21.7,0.6,30.9,5.2
						c2.3,1.1,4.5,2.5,6.5,4c2.1,1.6,4,3.5,5.8,5.5c3.6,4.1,6.7,9,9.2,14.5c-1.5-4-1.7-5.8-0.9-5.9c0.4-0.1,1,0.3,1.8,1.1
						c0.7,0.8,1.6,2,2.4,3.7c-0.3,1.2-0.5,2.4-0.9,3.6c1.6,1.9,1,0,0.8-1.2c-0.2-0.6-0.2-1.1,0.1-1c0.3,0.2,1,1,2.3,3.1
						c1.7,4.4,1.5,6.2,0.8,6.2c-0.8,0-2.2-1.7-3.5-4c1.6,3.3,3.2,6.8,4.6,10.4c-0.4,0.8-1.6-1.6-2.7-2c1.4,2,2.3,7,3.3,12.1
						c0.6,2.6,1,5.2,1.6,7.6c0.6,2.4,1.4,4.5,2.4,6l-0.5,0.8c0.7,3.1,1.3,6,1.9,8.8c0.6,2.7,1.1,5.3,1.6,7.8c1,4.9,1.8,9.4,2.6,13.7
						c0.4,2.2,0.8,4.3,1.1,6.4c0.3,2.2,0.7,4.3,1,6.5c0.7,4.4,1.3,9.1,1.9,14.4c2,0.2,2.5,8.5,4.7,14.7c1,15.7,1,33.3,3.3,52.3
						c2.6,13.2,2.1,3.7,4,9.6c-1.8,1.2,1.2,20.2-1.5,10.5c0.5,2.8,0.8,5.5,1.3,7.9c0.4,2.4,0.8,4.6,1.2,6.8
						c0.8,4.2,1.6,8.1,2.5,12.1c1,4,2,8.2,3.5,13.1c1.4,4.9,3.3,10.6,5.8,17.5c-0.3-3.3-0.9-6.8,0.2-5.2c0.9,2.5,1.6,5.4,2,7.7
						c0.4,2.3,0.4,3.8-0.1,3.6l-0.6-1.3c3.2,7.7,6.4,16,9.8,24.5s7.1,17.2,11.4,25.4c4.2,8.3,9,16.1,14.2,22.9
						c5.2,6.8,10.9,12.4,16.5,16.4c-0.4-0.3-0.8-0.6-1.2-0.9c7.2,6.1,15.1,11.4,23.3,15.8c1.3,0.9,2.2,1.5,2.8,1.9
						c0.6,0.4,0.8,0.6,0.8,0.7c-0.1,0.2-1.1-0.2-2.2-0.7c-2.2-0.9-4.9-2-1.1,1.1c7,3.4,13.3,6.1,19.2,8.5c3,1.1,5.8,2.3,8.6,3.2
						c1.4,0.5,2.8,1,4.2,1.4c1.4,0.4,2.8,0.8,4.1,1.2c10.8,3.2,21.4,5.3,33.7,5.3c2.3,0.9,5.1,1.5,8.3,2c3.2,0.4,6.7,0.8,10.5,0.9
						c7.6,0.3,16.2-0.1,24.9-0.9c4.3-0.4,8.7-0.8,13-1.3c4.3-0.5,8.5-1,12.6-1.4c4.1-0.4,8.1-0.7,11.8-0.9c3.7-0.3,7.2-0.5,10.4-0.4
						l-1.6-1c6.3-2,7.8-0.3,12.6-0.6c-0.8-0.9-7.1-0.2-3.2-1.4c27-4.4,54.9-8.8,82.8-14c27.9-5.3,55.9-11.2,83-18.3
						c9.9-2.7,12.2-5,15.3-7.2c3.1-2.2,6.8-4.4,19.6-6.7l-6.3,4.3c38.7-14.7,80.4-25.8,117.5-41.9c-2.1,1.3-1.9,2-5.6,3.3
						c8.6-1.3,29.6-10.7,29.2-12.1c5.9-2,1.8,0.7,5.7,0c4.2-1,9-3.4,13.4-5.5c4.4-2.1,8.3-4.1,10.7-4.1c0.8,0-2,1.4-3.4,2.1
						c4.9-2.8,24.2-9.1,18.6-9c14.4-4.6,26.7-11.2,38.3-14.5c6.5-4.9,24.5-8.3,25.7-12.1c0.2,3.3,25.5-7.6,33.8-12.5
						c-2.6,2.1,8.1-2.2,5.1,0.4c10.1-4.1,19.1-8.4,16.8-9.2c10-2,19.1-6.5,27.2-10.5c8.1-4,15.1-7.6,21.3-7.5
						c14.6-7.1,28.7-13.8,42.4-20.2c6.9-3.2,13.7-6.4,20.4-9.5c6.7-3.1,13.3-6.3,19.9-9.4c0.2,1.7-7.2,5-14.3,8.2
						c-7.1,3.1-13.9,6.1-12.7,7.4c12.5-5.9,22.1-11.3,31.7-16.3c9.7-5,19.4-9.8,32.1-15c6.7-2.5-3.1,2.9-5.1,4.3
						c12.4-6.1,24.6-11.4,36.5-16.6c11.8-5.3,23.3-10.5,34.1-16.4c0.1,0.3-2.2,1.7-4.4,2.9c4.4-2.1,10.4-4.2,9.4-5.3l-4.1,2.3
						c-7.9,1.3,15.7-11.9,16-13.3c-5.8,7.1,22.5-9.1,12.8,1c2.8-1.6,6.2-3.8,5.1-4.4c4.4-1.7,6-1.8,2.1,1.2c7.7-3.9,10-5.6,12.2-7.1
						c2.2-1.5,4.2-2.8,11.3-6.2c0.2,0.7-2.5,2.2-3.7,3.7c6.6-4.6,13.3-9.2,25.6-14.3c-0.6,0.7,1.1,0.6-2.5,2.2
						c20.6-9.8,33.7-19.7,56.9-29.1c-5.4,5.9,8.1-2.8,10.4-1l11.8-6.5l-5.4,1.2c10.6-5.1,19.2-11.3,28.7-14.9l-7.4,4.8l19.7-10
						l-11.7,4.5c10.2-6.4-2.6-2.4,11.8-8.6c-2.8,1.6,10.6-5.1,16.8-6.3c0,0,0,0,0,0c2.4-1.6,4.9-3.3,7.8-5c2.9-1.7,6.1-3.4,10.2-5
						c2.4-0.2-0.4,3.4,1.2,3.2c4.2-4.5,24.5-12.7,30-18c-1.9,1.6-1.4,2.8-0.6,2.8l3.5-3.7c5.1-1.9,6-2,5.7-0.6c14.9-7-6.1-0.7,12-8
						c-1.3,0.8-0.5,0.7-3.3,2.4c8.9-4,17.3-8.4,25.5-12.7c8.1-4.4,16.1-8.7,24.3-12.3c5.9,0-13.7,7.6-7.3,6.9
						c22.9-12.1,46.5-26.9,69.2-37.7l-4.3,1.9c1.4-4.9,17.4-6.9,27.9-14.2c-2.6,1.7-2.7,3.7-2.1,2.9c15.6-7.3,30.8-16.8,53.4-29.7
						l-2.4,2.3c9.4-3.8,23.9-11.8,33.8-16.5c2.4-2.3,8.1-5.1,4.1-4.6c16.2-5.4,30.1-13.4,43.6-21.4c13.5-7.9,26.4-15.9,40.6-20.8
						c-3.2,1.7-7.1,4.7-4.6,3.4l22.1-12.6c-2.5-0.5-3.4,0.7-8.7,2.1c2.4-2.4,8.4-6.4,14-9.3c-9.6,6.3,1.3,2.2,6.1,0.7
						c-1,0,0.3-1.3-0.3-1.6c13.1-3.7,0.4-3.9,17.4-10.7l-0.4,1.2c5.8-3.5,10.8-7.5,17.4-10.7c3.6,0.2-6,4.2-5.7,5.8
						c9-4.9,16.3-12.7,25.4-15.4c-3.6,2.5-9.2,5.5-12.8,8c10-2.8,10.8-3.9,17.6-7.1l-0.7,0.3l15.9-7.3l-4.2,1.6
						c9.1-10.4,22.7-13.1,36.6-24.1c-13.5,10.6-1.6,2.9-1.8,5.3c4.2-1.6,10.4-4.2,9-2.7c6.4-5.4,12.7-5.3,21.7-13
						c0.8,0.4,7.8-4.1,6.9-1.7c9.1-5.5-2.8,0.1-2.4-1c13.4-9.8,35.4-15.8,54.7-29.8c17.3-10.8,19.6-14.7,35.7-24.6
						c6.1-2.1-3.4,4.7-3.4,4.7c9.6-4,16.3-7.9,24.4-13.1c-1.4,1.5,0.6,0.9,3.5,0.2c6.8-3.9,3.4-4.7,12.9-8.6
						c-1.2,1.5-2.6,3.6-5.6,6.1c7.8-4.9,15.1-10.4,23.2-15.4c2.8-0.1-4.2,4.3-6.8,6.6c9.1-5.6,23.8-14.1,25.8-17.3l-6.4,2.7
						c3.4-1.9,2.5,0.5,0.2,2.1c-7.4,5.6-11.9,5.7-12.7,5.4l5.8-3.6c-8-0.2-23.6,13.5-35.7,19.8l3.6-5.3l-11.1,8.8
						c-3,0.7-5.5,0.3,0.2-3.3c-9.3,3.4-7.1,5-15.3,7.6c-0.9,0.2-0.6-0.1,0.1-0.6l-8,5.3c1.4-1.4-2.4-1.1,3-3.5
						c-15.9,6.6-23.3,15-30,16.1l1.2-0.8c-20.4,12.1-1,3-15.5,13.6l-13.1,1l-1.1,3c-2.2,1.1-6.6,3.2-6.2,2.1
						c-7.4,5.6,1.8,0.1-2.2,3.8c-11.3,3.9-28.2,16.2-32.2,14.5c-3,3.4,10.5-4.2,0,2.7c-4.9-1.5-12.5,7.4-22.8,11.1
						c2-3.2,11.5-7.2,1.2-3.6c-4.2,5.9-18.9,9.3-26.6,14.1c0.8,2.4-17,10.2-30,18.1c0.4-1.2-26,12.3-39,18.1l0.2-0.6
						c-1.2,3.5-14.4,10-23.6,15.4c-0.4-1.6,1.1-3,5.9-6.3l-8.9,4.7c-1.7,1.8-4.3,3.7-9.9,7l1.3-2.9c-11.8,6.3-22.7,14.5-38.5,21.4
						c0,2,14.4-1.9-1.1,7.6c-1.1-0.5-2.4-1.7,1.6-4.3c-1.3,0.8-4.6,3.3-7.5,4.4l5.7-4.8c-7.3,3-3,3.1-8.6,5.8
						c-0.5-1.3-4.6,1.3-4.3-0.1c1.4-0.9,5.1-2,7-3.6c-6.4,3-14.3,6.2-17.3,6.6c0.9,0.4,0.9,1.6-3.6,4.2c-11.8,6.2-4.8,0.6-12.1,3.6
						c-2.4,2.3-10.4,5.4-9.7,7.3c-3.5,1.8-4.6,1.3-6.1,1.5c-5.7,4-28.5,15.1-20.6,13.5l1.6-0.7c-0.3,0.2-0.6,0.4-1,0.6
						c0.1,0,0,0,0.1,0l-0.1,0c-19.1,12.2-42.4,20.4-61.9,31.5l-0.3-0.6c-11.6,6.8-26.3,14.1-34.2,19.7c-3.5,1.8-8.9,3.1-7.8,1.6
						c-8.9,5.1-9.6,6.3-23.3,11.9c8.7-5.7-3.7,0.6,9-5.5c-12.2,5.5-15.4,5.8-27.3,13.9c3.6-3.8-9.9,2.5-15.4,5.8l8.9-3.1
						c-6.2,3.4-11.9,6.1-17.6,8.8l2-3.6c-3.2,1.2-6.2,2.5-9.2,3.9c-2.9,1.4-5.8,2.8-8.5,4.3c-5.5,3-10.5,6.1-15.5,9
						c-9.9,5.9-19.1,11.3-29.4,13.7c-5.7,4.6,13.8-5.5,8.8-1c-11.4,5.2-24.6,8-28.1,9.7c-15.9,6.4-12.9,10.1-29.5,17.1
						c2.4-0.2,5.3,0.8-6.4,7.3c-11.4,5.2-15.4,3.5-8.6-0.5c2.7-1.4,4.1-1.8,4.1-1.5c3.5-2,8.2-4.7,3.3-3.3l-1.1,1.5
						c-6,1.9-21.5,9.5-18.4,6.5c-8.2,4.8-3.1,3,3.4,0.3c-15,5.9-22.7,10.8-37.9,17.3c2.6-0.7,5.2-0.9,2.8,0.2
						c-5.6,2.4-8.9,3.9-11.1,5c-2.1,1.1-3,1.8-3.7,2.4c-1.3,1.2-1.6,2.2-9,5.8c-9,2.8,1.7-4.2-12.8,3.8c-9.5,3.5-2.9-1.1,0.5-3.4
						c-13,7.8-26,11-33.9,14.4l6.9-4c-4.1,2.4-7.7,4-11.2,5.7l4.8-0.4c-4.3,1.7-7.9,3.4-8.1,2.7c-3.9,3,4.5,1-3.5,6.3
						c-3,0.9-7.2,3.2-11,5c-3.8,1.8-7.3,3.2-8.7,2.7c18.1-7.4-2.9-1.1,12-8.3c-2.8,1.6-6.3,3.2-10.7,4.8c-0.7,0.1,0.4-0.7,1.5-1.3
						c-17.8,5.9-6.8,5.8-24.5,13.8c1.7-2.2-5.1-0.3-7.8,1.3c7.1-3.2,4.3,0.3-1.9,4.2c-11.7,4.3-12,6.2-18,8.8l7-2.7
						c-1.8,2.2-7.5,4.6-15.2,8.5c-1.1-0.6,6.9-3.9,3.9-3c-7.9,6-20.7,7-32.4,13.7c-6,1.7-1.5-1.9-6.7-0.2
						c-13.1,7.5-15.6,5-29.5,12.5c4.8-0.3,5.4-1-4.1,5l23.3-11.5l-14.3,8.9c7.2-3.1,14.7-7.6,19.2-9.2c-6.7,4.4-6.2,3.7-2.2,3.5
						c-10.8,2-18.9,9.9-31,13.3l-1.3-3.9c-8.9,2.9-16.3,6.7-24.2,10.9c-8,4.2-16.6,8.5-28,12.8l7.4-2.4c-2.3,2.8-13.7,6-20.7,9.7
						c0.1-1.6-4.6-0.1-8,0.4c0.8,0.8-16.4,6.8-17.3,10.2L1537,731c-4.6,1.7-8.1,3.4-11,5c-2.9,1.5-5.3,3-7.7,4.5
						c-4.7,3-9.3,6-18.1,9.3c4.7-3.5-3.6-1.2,7.7-6.9c-5.8,2.3-11.2,4.2-10.9,5.2c-3.7,0.6-15.4,8.2-21.3,9.2
						c-2.2,1.6-2.5,3.2-9.1,5.8c-0.8,0-0.2-0.7-0.2-0.7c0.2,0.6-9.9,5-3.6,4.1c-19.4,3.4-50.2,20.1-67.2,22.7
						c-12.6,5.4-27.8,11.7-39.4,16.3c0.6-0.7-0.2-0.7,2-1.4c-8.2,2.5-10.4,4.3-12.8,6.2c-2.4,1.9-5.1,4-14.5,6.7
						c-10.1,1.4,9.3-4.8,3.2-3.4c-2.1-1.7-7.5,0.5-14.1,3.4c-6.6,2.8-14.4,6.4-21,7.3l2.9-1.3c-10,1.9-22.4,9.9-38.1,14.9
						c0,0,0.6-0.6-0.1-0.7c-2.5,1.5-5.5,3.1-9,4.7c-3.5,1.6-7.3,3.2-11.4,4.9c-4,1.6-8.2,3.3-12.3,4.8c-4.1,1.5-8.1,3-11.8,4.4
						c4.1-3.2,6.5-3.1,3.1-3.9c-6.7,2.4,2.9,2.1-10.4,6.9c-4.7,0.5-14.7,2.6-16.5,1.2l12.7-4c-7.2-0.4-16.4,5.1-23.2,6.8l0.5-1.3
						c-9.7,3.1-14.4,5.2-19.4,7.4c-2.5,1.1-5,2.2-8.2,3.3c-3.2,1.1-7.2,2.3-12.5,3.7l2.4,0.2c-5.4,2.9-7.9,3.2-10.5,3.4
						c-1.3,0.1-2.5,0.2-4.2,0.5c-1.7,0.3-3.7,1-6.4,2.2l-4.2-1.8c-1.9,0.7-4.4,1.5-7.5,2.6c-3,1-6.5,2.3-10.2,3.4
						c-7.3,2.3-15.5,4.9-22.3,6.7c3.7-1.8,9.5-4,15.6-6.1c3.1-1,6.2-2.1,9.2-3.1c3-1,5.8-2,8.2-3c-3.8,1-10.2,2.6-16.2,4.1
						c-6,1.6-11.4,3.2-13.3,4.4c3-1,6.7-2.5,9.9-2.8c-2.2,1.1-4.6,2.1-7.2,3.1c-2.6,1-5.4,2-8.5,2.9c-6.1,1.8-12.9,3.5-20.6,5
						c0.8-2.8-9.2-1.4-20.9,0.6c-5.9,1-12.2,1.9-17.8,2.5c-5.6,0.6-10.4,0.8-13.3,0.2c-6.7,1.4-13.5,2.4-20.3,3.3
						c-1.7,0.2-3.4,0.4-5.1,0.6c-1.7,0.2-3.5,0.3-5.2,0.5c-3.5,0.3-7,0.5-10.5,0.8c-3.5,0.2-7.1,0.5-10.7,0.7
						c-3.6,0.2-7.3,0.3-11,0.5c-7.4,0.3-15,0.5-22.8,0.6c2.8,1.1,3.6,1.5,3.3,1.8c-0.3,0.3-1.8,0.3-3.5,0.3c-3.5,0.1-8.1,0-7.2,2.2
						c-3.7,0.1-6.2-0.1-8-0.2s-2.6-0.2-2.9-0.4c-7.4-1.3-14.6-3.2-21.6-5.4c-4.8-2.2,6.9,0.4,6.4-0.8c-7.7-1.5-9.1-2.3-10-3.1
						c-0.4-0.4-0.7-0.8-1.4-1.2c-0.7-0.5-2-1-4.3-2c0.8,1-0.6,1.2-3.3,0.7c-2.6-0.5-6.5-1.7-10.4-3.7c3.5,2.1,7.2,4.1,11,5.9
						c-0.7-0.1-1.3-0.2-2-0.3c-0.6-0.2-1.2-0.3-1.8-0.4c-1.1-0.3-2.2-0.6-3.2-0.9c-2-0.6-3.5-1.3-5-2c-1.4-0.6-2.6-1.3-3.7-2
						c-1.1-0.7-2-1.4-3-2.1c-1.9-1.5-3.8-2.8-6.3-4.6c-0.6-0.4-1.3-0.9-2.1-1.3c-0.8-0.5-1.5-1-2.4-1.5c-0.9-0.5-1.8-1-2.8-1.6
						c-1-0.6-2.1-1.2-3.3-1.9c2.1,0.9,4.2,1.9,6.4,2.7c-4.8-2.5-13.1-8.4-20.6-15.4c-3.8-3.4-7.4-7.1-10.7-10.2
						c-1.6-1.6-3.2-3.1-4.6-4.4c-1.4-1.3-2.7-2.5-3.9-3.3c-0.8-2-1.3-4.8,1.8-0.9c-7.8-11-16-23.7-22.6-36.8
						c-3.3-6.5-6.1-13-8.4-19.3c-2.3-6.2-3.9-12.2-4.9-17.5c0.5,0.6,1,1.2,1.6,1.7c-1.7-4.9-4.3-8.2-4.8-14.7c0.5,0.2,1.5,1.8,1-0.5
						c-1-2.6-4.7-13-5.2-20l2.2,5.6c-1.7-13.5-3.8-23.7-6-33.5c-2.2-9.8-4.4-19.1-5.9-30.6c3.1-0.2,2-22,1.3-33l0.5,0.3
						c-1.5-16.2-3.9-29.9-7-43.2c-3.1-13.3-6.8-26.2-11.5-40.7c-0.3-2.4-0.7-5.2-1.4-8.2c-0.7-3.1-1.6-6.5-2.8-10.1
						c-2.4-7.2-5.9-15.4-11.4-23.4c-2.7-4-6-7.8-9.8-11.3s-8.1-6.4-12.7-8.7l-1.7-0.9l-1.7-0.7c-1.2-0.5-2.3-1-3.4-1.4
						c-1.2-0.4-2.3-0.8-3.5-1.2c-1.1-0.4-2.3-0.6-3.4-1c-2.3-0.7-4.5-1-6.7-1.5c-1.1-0.2-2.2-0.3-3.2-0.5c-1.1-0.2-2.1-0.3-3.1-0.4
						c1.2,0.2,1.8,0.5,1.9,0.8s-0.4,0.5-1.2,0.7c-1.6,0.5-4.5,0.8-7.3,1c-1.9-0.2-4.1,0-6.3,0.2c-2.2,0.3-4.5,0.6-6.4,0.9
						c-2,0.3-3.7,0.5-4.8,0.5c-1.2,0-1.8-0.3-1.6-1l2.6-0.3c-2.9-1.1-8-0.9-13.8-0.1c-2.9,0.4-5.9,0.9-8.8,1.5
						c-3,0.5-5.9,1.1-8.7,1.6l-1.2,4c-3.7,0-7.7,0.2-11.9,0.7c-4.1,0.4-8.5,1-12.8,1.8c-8.7,1.6-17.7,3.7-26.3,5.7
						c-4.3,1-8.5,2-12.5,3c-4,1-7.8,1.8-11.3,2.6c-7,1.5-13,2.3-17.2,2c-6.7,2.5-15.3,4.5-21.9,7l-0.1-2c-4.8,1-9,1.9-13,2.7
						c-4,0.9-7.7,1.8-11.6,2.7c-3.9,0.9-7.9,1.9-12.4,3.1c-4.5,1.2-9.5,2.4-15.4,4.2l4.4-2.7c-13.3,3.4-15.3,10-27.5,13.4l-4.5-1.9
						c-11.5,3.2-23.3,6-34.9,9c-11.6,3.1-23.1,6.7-34,11.4c0.2-0.5,0.7-1.5,4.3-2.8c-5.4,1.5-16,4.4-24.5,7.2
						c-8.6,2.8-15.1,5.4-12.5,6.7c-1.1-2.5-23.5,7.6-35.4,12.8l1.3-2.5c-4.8,2.9-7.1,4.6-10.1,6.3s-6.5,3.3-13.6,6.2
						c-3.5,1-3.5-0.4,1.2-1.5c-5.8,1.5-7.9,2.8-10.2,4.1c-2.4,1.3-5,2.7-12,4.8l4.7-3.1c-11.6,4.2-10.5,4.5-16.4,8.2
						c-3.5,1.7-9,3.7-14,5.1c-4.9,1.4-9.3,2.3-10.4,1.8c-1.2,1.6-6.9,5.4-13.9,7.6c-1.2-0.3,1.2-1.6,2.3-2.3
						c-4.9,1.6-9.1,3.2-12.9,4.8c-3.7,1.7-7,3.3-10.1,4.8c-6.2,3.1-11.6,5.8-18.6,7.6c-0.5-0.5-1.5-0.4-2.7-0.2
						c15.2-6.2,27.5-11.2,26.4-10.5c-0.7-1.7-13.1,3.1-4.2-3.2c-9.4,5.3-25.1,14.9-37.3,19.3c-0.6,0.1-1.3,0.2-1.8,0.1l1.1-0.7
						c-2.8,1-5.2,2.2-7.4,3.5c-3.9,1.4-6.4,2.2-10.1,3.7c-2-0.8-14.2,5.5-20.3,8.1c1.3,1.6-6.7,4.8,1.3,3c-1,0.3,1.1-0.7,5-2.6
						c0.9-0.5,1.9-1,2.5-1.3c-0.1,0.1-0.2,0.2-0.3,0.3c3.9-1.8,9.1-4.2,15-6.8c-4.4,3-9.1,6-16.2,8c-2.6,2.5-5.5,5.3-7.1,6.7
						c-4.7,0.6-11.2,2.3-16.8,3.9c-5.6,1.6-10.5,3-11.9,2.8c-17.9,9.4-42.7,21.2-52.4,30.2c-4.9,3-6.4,2-8.5,2.5
						c2.8-1.8,6.3-3.6,7.7-4.9c-9.8,6.1-30.2,15.7-31.4,19.3c-13.3,5.7,6.1-5.9-11.3,3.8l2-2c-9.1,3.7-17.1,7.7-24.4,12
						c-7.3,4.4-14,9-20.8,13.6c-6.9,4.6-13.7,9.4-21.5,14c-7.7,4.6-16.3,9.1-26.3,13.5c2.8-1.2,4.1-1.9,4.9-1.8
						c-5.5,2.9-10.9,5.9-16.4,9c-5.4,3.1-10.9,6.2-16.3,9.6c-5.4,3.3-10.8,6.7-16.1,10.1l-8.1,5.1l-8,5.2
						c-5.3,3.5-10.6,6.9-15.9,10.4c-2.7,1.7-5.3,3.4-8,5.1c-2.6,1.7-5.3,3.4-7.9,5.1c-10.5,6.8-21.2,13.2-31.8,19.4
						c-11.9,7.2-12.2,9.4-18.5,15.2l-3.7,0l-10.4,10.3c-7.9,6.7-15.9,10.7-24.2,15.5c-4.2,2.4-8.5,4.9-12.9,8
						c-4.4,3.1-9,6.6-13.7,11.2l3.5-0.9c-7.6,5.4-23.1,18.5-22.8,16.2c-0.6,0.8-1.6,3-4.9,4.7l-0.9-0.7l-16.9,15.6
						c-7.2,5.2-7.4,3.9-8.3,3.3c-0.5-0.3-1.1-0.4-2.9,0.5c-1.8,1-4.8,3-9.8,7c-7.2,6.4-19.3,19.8-16.1,18.1c3.1-2.4,8.2-5.7,9.1-5
						l-6.5,6c0.8,3.5-2.3,10.3,15.9-1.4l10.4-11l4.8-1.8l-9.8,8c6.5-3.3,9.2-7.3,12.6-11.1c1.5-0.1,3.5-0.9,6-2.5l9.7-11.5
						c2.2-0.1-3.6,6.1,4.6,0.5c4.5-5.4-7,1.8,1.5-6c3.3-1.6,4.7-1.9,6-2.5c1.3-0.6,2.6-1.6,5.6-4.6c1.5,0,0.4,1.5-2.1,3.8
						c5.4-5.3,15.6-12.3,17.6-16c1.8-0.8,3.9-2.1,6.1-3.7c2.2-1.5,4.6-3.3,6.7-4.8c4.3-3.1,7.9-5.5,8.5-4c1.5-2,9.2-9.8,14.8-13.9
						c-8.1,10.3,21.2-14.7,20.8-9.5c1.4-2,3.8-4.3,6.8-6.8c3-2.5,6.6-5,10.4-7.8c7.6-5.4,16-11.2,22.4-16.5
						c-0.6,0.7-1.9,2.2-3.1,2.8c7.9-4.9,10.7-5.5,16-8.3c-0.3-1.5,2.6-4.3,6.1-7.5c3.6-3.2,7.9-6.8,10.8-9.5c11-3.9-4.1,6.4,0.3,6.6
						c-1.7-1.6,15.5-12.5,11.2-12c8.2-3.3,6.8-3.3,11.8-3.8c-0.3-1.9,1.4-3.1,3.7-4.5s5.4-3.1,7.9-5.9c11.6-5.1,4.4,1,15.7-7.1
						C-140.2,812.7-150.1,820.2-150.1,820.2z M139.4,664.3C139.4,664.4,139.4,664.4,139.4,664.3c-2.6,1.2-4.8,2.2-6.2,2.8
						C134.5,666.6,136.3,665.8,139.4,664.3z M165,653.6c-3.1,1.2-7,2.8-11.1,4.5c-1.2-0.3-0.5-1.3,2.1-2.3
						C154.8,656.8,160.9,654.7,165,653.6z M105.6,664.1c3.9-2.1,5.4-2.3,6.1-2.2c-1.9,0.8-4.1,1.9-6.9,3.3c-0.1,0.1-0.3,0.3-0.4,0.4
						C104.6,665.2,104.9,664.7,105.6,664.1z"/>
					<path class="st1" d="M99.4,669.7c-0.6,0.3-0.8,0.5-1.6,0.9c0.9-0.2,1.7-0.4,2.6-0.7c0.4-0.4,0.8-0.8,1.2-1.2
						C100.8,669,100.1,669.4,99.4,669.7z"/>
					<path class="st1" d="M2209.1,417.7l-0.5,0.2c0.5-0.1,0.9-0.3,1.2-0.3C2209.4,417.7,2209.4,417.7,2209.1,417.7z"/>
					<polygon class="st1" points="530,542.5 529.8,542 527.6,543 					"/>
					<path class="st1" d="M2347.7,352.9c0.3,0,0.9-0.1,2-0.5C2349.6,352.3,2348.7,352.5,2347.7,352.9z"/>
					<path class="st1" d="M2406.2,322.3l8.6-3.8C2411.1,320.1,2408.4,321.3,2406.2,322.3z"/>
					<path class="st1" d="M2451.5,299.3c0.4-0.6,0.4-0.9,0.5-1.2c0,0-0.1,0-0.1,0L2451.5,299.3z"/>
					<path class="st1" d="M1730.4,662.6c-0.6,0.3-1.2,0.6-1.8,0.9C1724.6,665.7,1727.4,664.3,1730.4,662.6z"/>
					<path class="st1" d="M1946.1,556.5c-2.1,1.4-4.2,2.8-6.6,4.2C1943.5,558.9,1946.5,557.5,1946.1,556.5z"/>
					<path class="st1" d="M1484.4,770.4C1484.5,770.4,1484.4,770.4,1484.4,770.4c-0.5,0.2-1,0.4-1.5,0.6L1484.4,770.4z"/>
					<path class="st1" d="M1929.5,565.5c4-1.5,7.2-3.1,10.1-4.8C1936.3,562,1932.5,563.7,1929.5,565.5z"/>
					<path class="st1" d="M2645.7,195.8l2.2-1.1c-0.1-0.1,0-0.3,0.1-0.4L2645.7,195.8z"/>
					<path class="st1" d="M2648,194.3l2.3-1.5C2649.2,193.4,2648.2,193.9,2648,194.3z"/>
					<path class="st1" d="M2655.1,189.6l-4.8,3.1C2652,191.8,2654.2,190.7,2655.1,189.6z"/>
					<path class="st1" d="M2586.1,226.9l-0.3,1C2586.1,227.6,2586.2,227.2,2586.1,226.9z"/>
					<path class="st1" d="M2568.2,236.8c4.4-2.2,11.5-4.5,17.2-8.1l0.3-0.8C2583.5,230.4,2571.8,233.5,2568.2,236.8z"/>
					<path class="st1" d="M2489,269.4l15.4-7.6c-3,0.7-6.9,1.7-0.2-2.1C2484.1,267.9,2508.9,259.1,2489,269.4z"/>
					<path class="st1" d="M2441.7,293.5c7.9-4.6-0.6-0.9-0.4-1.5C2436.5,295.3,2435.3,296.1,2441.7,293.5z"/>
					<path class="st1" d="M2101.9,470.8l0-2C2095.7,472.2,2102.1,469.5,2101.9,470.8z"/>
					<polygon class="st1" points="2040.5,512 2047.2,509.9 2049.4,507 					"/>
					<polygon class="st1" points="1996,519.8 1998.7,518.2 1988.4,524 					"/>
					<path class="st1" d="M1408.7,781.9l2.8,1.3C1415.8,781.1,1415.9,778.4,1408.7,781.9z"/>
					<path class="st1" d="M1147.3,874.4c-3.2-0.3-10.9,1.1-15.3,3.4C1138.1,876.3,1144.3,875.5,1147.3,874.4z"/>
					<polygon class="st1" points="598.6,510.3 604,508.6 593.7,511.1 					"/>
				</g>
			</g>
		</g>
	</g>
</g>
</svg>
