<?xml version="1.0" encoding="utf-8"?>
<!-- Generator: Adobe Illustrator 26.5.0, SVG Export Plug-In . SVG Version: 6.00 Build 0)  -->
<svg version="1.1" id="圖層_1" xmlns="http://www.w3.org/2000/svg" xmlns:xlink="http://www.w3.org/1999/xlink" x="0px" y="0px"
	 viewBox="0 0 2578.8 599.6" style="enable-background:new 0 0 2578.8 599.6;" xml:space="preserve">
<style type="text/css">
	.st0{fill:none;stroke:#000000;stroke-width:9;stroke-miterlimit:10;}
	.st1{fill:#E9E9E9;}
</style>
<g>
	<g>
		<path class="st0" d="M-198.6,761.2"/>
	</g>
</g>
<g>
	<g>
		<g>
			<g>
				<g>
					<path class="st1" d="M2469.8,47.9c0.4-1.6-1.4-2.2-4,1.1l0.2,4.2L2469.8,47.9z"/>
					<path class="st1" d="M2447,64.6c-2.2,4.5-4.2,10.3-0.1,9.9c1.2-5.5,2.9-5.5,3.9-11.6c2.5-3.3,5.6-4.7,5.9-3.4
						c0.4-1.6,4.8-4.3,4.9-7.2c-5.3,2.4-10,7.4-13.4,13.9C2446.7,66.9,2447.1,65.3,2447,64.6z"/>
					<path class="st1" d="M2143.4,327.7l2.3-1.2C2145,326.7,2144.2,327.2,2143.4,327.7z"/>
					<path class="st1" d="M1918.7,424.3c1.8-0.3,2.6-0.7,2.7-1C1919.6,423.7,1918.2,424,1918.7,424.3z"/>
					<path class="st1" d="M1876.7,423.2c0.9,0.1,1.7,0.1,2.5,0.2C1878.2,423.1,1877.3,422.9,1876.7,423.2z"/>
					<path class="st1" d="M2143.4,327.7l-6,3C2137.6,331.7,2140.6,329.3,2143.4,327.7z"/>
					<path class="st1" d="M2413.9,110c0.9-1.1,1.5-2.1,1.9-3.2c-0.7,0.9-1.4,1.8-2.1,2.7C2413.8,109.7,2413.9,109.8,2413.9,110z"/>
					<path class="st1" d="M2229.8,260.2l1.6-1.3c0.2-0.6,0.4-1.3,0.5-2L2229.8,260.2z"/>
					<path class="st1" d="M2293.6,205.4c-1.5,1.2-0.3,3.5-0.1,4.8c0.1-1.5,0.8-2.8,1.9-4.1C2295.1,205.7,2294.5,205.5,2293.6,205.4z
						"/>
					<path class="st1" d="M2393.3,116.4l1.4-1.9C2394.4,114.9,2393.7,115.7,2393.3,116.4z"/>
					<path class="st1" d="M2181.9,296.6c-0.3-0.2-0.8-0.3-1.2-0.3C2181,296.6,2181.4,296.7,2181.9,296.6z"/>
					<path class="st1" d="M110.2,414.6c-0.1-0.2-0.2-0.2-0.3-0.3C109.7,414.9,109.7,415.1,110.2,414.6z"/>
					<path class="st1" d="M33.5,476.4l0.8-1.1c-0.2-0.4-0.5-0.9-0.8-1.2L33.5,476.4z"/>
					<path class="st1" d="M1802.4,411.7c0.1,0.1,0.2,0.1,0.3,0.1C1804.7,412,1803.6,411.8,1802.4,411.7z"/>
					<path class="st1" d="M1120.1,339.8c8.4-0.6-11.4,7.2,0.9,5.4C1119.7,344.7,1130.1,337.7,1120.1,339.8z"/>
					<path class="st1" d="M2412.1,111.3c-0.8,0.8-1.6,1.7-2.4,2.5C2410.9,112.8,2411.6,112,2412.1,111.3z"/>
					<path class="st1" d="M1121,345.2L1121,345.2l1.3-0.2C1121.8,345.1,1121.5,345.2,1121,345.2z"/>
					<path class="st1" d="M1646,331.2c0.1,0.6,0.6,1.2,1.1,1.9C1647.2,332.8,1647,332.3,1646,331.2z"/>
					<path class="st1" d="M1759.1,402.1l-2.8-1.7C1757.4,401.1,1758.3,401.6,1759.1,402.1z"/>
					<path class="st1" d="M1579.7,305.9c-1.7-0.8-2.1-1.4-4.6-1.8c0.2,0.2,0.4,0.4,0.6,0.5C1576.7,304.6,1577.9,304.8,1579.7,305.9z
						"/>
					<path class="st1" d="M1508.8,287c0.3,0.3,0.8,0.5,1.2,0.8c0.7,0.1,1.6,0.2,2.3,0.3L1508.8,287z"/>
					<path class="st1" d="M275.2,273.1c-1.7,0.2-2.9,0.1-4-0.1C273.1,273.9,264.8,280.3,275.2,273.1z"/>
					<path class="st1" d="M2412.9,109c0.2,0.8-0.1,1.4-0.7,2.3c0.6-0.6,1.1-1.2,1.6-1.8C2413.6,109.1,2413.4,108.8,2412.9,109z"/>
					<path class="st1" d="M1570.4,323.8c-3.5-1.3-7-2.5-10.5-3.8C1562.8,321.1,1566.6,322.5,1570.4,323.8z"/>
					<path class="st1" d="M650.3,459.6l-2.7-0.7C648.5,459.4,649.5,459.6,650.3,459.6z"/>
					<path class="st1" d="M1527.8,311.5c-1.7-1.3-3.7-2.3-5.8-3.2c-0.5,0.1-1.1,0.1-1.4,0.4C1523,309.6,1525.4,310.5,1527.8,311.5z"
						/>
					<path class="st1" d="M271.2,273C271.2,273,271.2,273,271.2,273C271.2,273,271.2,273,271.2,273z"/>
					<path class="st1" d="M214.9,322.5c8.5-6.7,1.9-5.7,2.5-8.6c9.5-8.8,6.2-1.8,10.7-3.2c1.4-1.4,2.7-2.9,3.9-4.3
						c1.2-1.4,2.3-2.8,3.3-4.2c2.1-2.7,4.1-5.1,6.5-6.9c0.7,0.2,1.7-0.4,1.1,1c2.6-3.6,7.8-7.3,12.9-11.2c2.6-2,5.3-3.9,7.7-5.9
						c2.4-2,4.5-4,6.1-6.1c0.8-0.2,1.2-0.1,1.5,0c-2.2-0.5-3.4-1.7-3.8-2.9c2-1.4,3.6-3.1,5-4.3c1.5-1.2,2.7-2,4.1-1.6
						c-2.5,1.6-2.3,2.4-3.1,3.8l3.8-3.6c5.5,0.1-5.2,4.7-4,6.6c3.9-3.1,7.9-6.8,11.8-10.1c4-3.2,7.9-6.1,11.4-7.7
						c2.9,1.8-14.6,10.1-4.6,7.2l-5.3,2.5c-1.8,0.9-3.5,1.8-5.2,2.7c10.1-0.8-6.1,3.6,3.5,3.5c3.3-1.9,5.9-3.4,8-4.8
						c2.1-1.4,3.9-2.7,5.6-4c0.9-0.6,1.7-1.3,2.6-1.9c0.9-0.6,1.9-1.3,3-1.9c2.2-1.3,4.8-2.8,8.2-4.5c2.2-3.2-2.2-1.6,0-4.8
						c4.5-3.2,7.9-4.9,10.7-5.7c1.4-0.5,2.6-0.6,3.8-0.7c1.1-0.1,2.2-0.1,3.2,0c2,0,3.8,0.1,5.9-0.4c2.1-0.6,4.5-1.7,7.7-4.2
						c1.5-1.7,2.2-3.7,4-5.5c1.8-1.8,4.7-3.3,10.3-4.4l-2.4,4.6c1.7-0.6,3.1-1.2,4.2-1.7c1.1-0.5,2-1,2.8-1.4
						c1.5-0.9,2.3-1.8,3.2-2.6s1.8-1.6,3.5-2.3c1.7-0.7,4.1-1.2,7.9-1.7c-1.1,1-3.8,2-5.9,2.8c-1.1,0.4-2,0.7-2.5,1
						s-0.6,0.3-0.1,0.3c1.3-0.1,2.3-0.1,3.2-0.2s1.6-0.2,2.2-0.4c1.2-0.4,1.8-0.9,2.4-1.5c0.6-0.6,1.1-1.2,1.9-1.9
						c0.8-0.7,2-1.2,3.8-1.6l2.2,2.6c1.8-0.5,3.7-1,5.6-1.5c1.9-0.4,3.8-0.9,5.7-1.3c1-0.2,1.9-0.5,2.9-0.7c1-0.2,2-0.4,3-0.5
						c2-0.4,4-0.8,6-1.1c8.1-1.2,16.5-1.7,24.8-0.9c-1,0.8-3.9,1.3-0.3,2.8c10.3,0.6,21,3.9,30.3,9.2c4.7,2.6,9,5.8,12.8,9.2
						c3.8,3.4,7.2,7.2,10.1,11c2.3,1.2,4.6,2.5,6.9,4c1.1,1.4,1.1,3.3-0.5,2.1c1.9,3.3,2.3,3.2,2.6,2.5c0.3-0.7,0.5-2,2-0.8
						c2.8,3.6,2.1,5.7-0.1,3.8c4.9,5,11,13.2,16,22.4c5,9.2,9.1,19.1,10.7,26.9l-1.9-2.5c3.6,11.7,10.2,10.8,12.2,22.3l-1.3-1.9
						c4.5,12.6,10.4,25.6,16.6,37.7c6.2,12.1,12.6,23.2,17.5,33c2.7,0.5,6.6,6.2,10.8,11.4c4.2,5.2,8.8,9.7,11.3,8.4
						c4.8,6.4,6.6,8.9,8.9,11.8c1.2,1.4,2.6,3,4.8,5.1c2.2,2.1,5.2,4.8,9.8,8.2c2.5,1.8,4.9,2.2,7.5,2.6c1.3,0.2,2.6,0.4,4.1,0.7
						c1.5,0.3,2.9,0.8,4.7,1.5l-1.1,2.5l5.2,0.9c1.7,0.3,3.4,0.7,5.2,0.8c1.2,1.7,2.4,3.4,3.7,5.2c1.1,0.3,2.2,0.7,3.4,1l3.5,0.9
						c-1.3-0.5-2.6-1.3-3.5-2.1c-0.9-0.8-1.3-1.5-1-1.8c5.3,1.4,11.4,4,16.3,6.2c1.2,0.6,2.4,1.1,3.4,1.7c1,0.5,2,1,2.7,1.4
						c1.5,0.8,2.4,1.5,2.4,1.9c4.3,0.7,8.7,1,13,1.4l1.6,0.1l1.6,0.1l3.2,0.1c2.2,0.1,4.3,0.2,6.4,0.2c-0.7,1.1-5,0.9-8.5,1.2
						c7-0.5,7.5,0.3,8,1.1c0.4,0.8,0.7,1.6,7.1,0.8c-1.6-0.8,1-1.6,1.3-2.1c1.5,0.6,3.6,0.9,5.9,1.2c2.4,0.3,5.1,0.6,7.9,0.7
						c2.8,0,5.8,0,8.7-0.1c2.9-0.1,5.7-0.4,8.3-0.7l-1.9,2c2.4-0.1,4.8-0.1,7.2-0.2c2.4-0.2,4.8-0.4,7.3-0.6
						c1.2-0.1,2.5-0.2,3.7-0.3c1.2-0.2,2.5-0.3,3.7-0.5c2.5-0.3,5-0.7,7.5-1c2.5-0.4,5-0.8,7.5-1.2c2.5-0.4,5.1-0.8,7.6-1.3
						c5.1-1,10.2-1.8,15.3-2.8c-7.5,0.5-6.4-3.1-0.5-4.5l2.9,2.4c3.5-2.5-6.4,0.1,1-3.6c3.8-0.5,5.3,0,5.2,0.9c0,1-1.6,2.2-3.7,3.1
						c3-0.9,6-1.9,9-2.9c0.7,0.7-1.3,1.7-1.7,2.9c1.7-1.3,5.8-1.4,10.2-1.7c4.3-0.4,8.8-1,11.1-3.2l0.7,0.7
						c10.1-2.4,17.3-4.5,24-6.5c6.7-2,12.9-4,21-6.3c-0.4-2.5,6.1-3.8,10.3-7.1c12-2.6,25.6-4.7,39.7-9.2c9.5-4.3,2.2-3,6.2-5.8
						c1.4,2,15.4-2.7,8.6,1.2c16.8-5.7,21.4-7.3,42.1-16c-2.6-0.1-5.3,0.3-4.2-0.9c3.7-1.6,9.1-2,8.9-0.7l-0.9,0.6
						c22.8-11.1,57.1-11.9,74.5-22.8l-1,0.6l18.8-9c9.2-2.7-4.9,3.5,2.3,2.6c10-5.4,18.4-8.2,26.4-10.6c8-2.5,15.6-4.7,23.8-9
						c3.9,0.4,8.9-0.6,14.4-2.2c2.8-0.8,5.6-1.8,8.6-3c3-1.1,6-2.4,9.1-3.7c3.1-1.3,6.2-2.6,9.3-3.9c3.1-1.3,6.1-2.6,9.1-3.7
						c5.9-2.3,11.6-4.1,16.4-4.9l-1.6-1.1c4-3.3,5.9-1.4,9.5-2.4c-0.9-1-5.6,0.7-3-1.3c9.6-4.4,19.4-8.5,29.4-12.1
						c5-1.9,10-3.5,15.1-5.1c5.1-1.5,10.1-3,15.2-4.1c5.1-1.3,10.2-2.1,15.4-3c5.2-0.7,10.3-1.5,15.6-2c2.6-0.3,5.2-0.6,7.9-0.8
						c2.6-0.2,5.3-0.4,7.9-0.6l3.9-0.3l4-0.3c2.7-0.2,5.4-0.4,8-0.6c7.8-0.6,9.8-2.9,12.3-4.8c2.5-1.9,5.7-3.5,15.6-2.3l-5.3,3.4
						c15.5-3.1,31.5-4,47.4-4.2c15.9-0.2,31.7,0.3,47-0.4c-1.9,0.6-2,1.5-4.9,1.3c1.6,0.6,3.9,1,6.4,1.3c1.3,0.1,2.6,0.2,3.9,0.2
						c1.3,0,2.7,0.1,4,0c2.6,0,5-0.2,6.8-0.5c1.8-0.2,2.9-0.6,3-1c4.7,0.7,0.9,1.7,3.8,2.9c1.6,0.5,3.4,0.6,5.3,0.7
						c1.9,0,3.8,0,5.7-0.1c1.9-0.1,3.6-0.1,5.1,0c1.5,0.1,2.7,0.5,3.5,1.1c0.5,0.4-1.9,0.4-3.1,0.5c2.2-0.2,7,0.5,10.8,0.9
						c3.8,0.5,6.7,0.7,4.9-0.9c11.1,2.9,21.8,2.8,30.4,6.2c3.2-0.7,7.9,0.8,12.1,2c4.2,1.3,7.9,2.4,9.4,0.7
						c-0.5,0.9,0.5,1.9,2.2,2.9c1.8,1,4.3,2,7.2,2.9c1.4,0.4,2.9,0.9,4.5,1.2c1.5,0.4,3,0.8,4.5,1.1c2.9,0.6,5.6,1.1,7.4,1.2
						c-1.3,0.2,0.1,1,1.4,1.9c1.3,0.9,2.5,1.8,0.9,2.1c3.9,1.3,7.7,2.5,10.4,3c2.7,0.6,4.4,0.5,4.1-0.8c1.6,1.3,3.2,2.3,4.8,3.2
						c1.7,0.9,3.4,1.7,5.1,2.4c3.4,1.4,6.9,2.4,10.2,3.4c3.3,1,6.3,2.1,8.9,3.4c1.3,0.7,2.4,1.4,3.4,2.3c1,0.9,1.8,1.9,2.4,3.1
						c2.8,1.1,5.7,2.2,8.5,3.3c2.8,1.1,5.5,2.4,8.2,3.6c5.4,2.3,10.7,5,15.9,7.5c2.6,1.2,5.1,2.7,7.7,4c2.5,1.4,5.1,2.7,7.5,4.1
						c5,2.8,9.9,5.5,14.7,8.4c-2.9,2.9-21.1-13-22.6-8.7c9.4,4.8,17.1,8.2,24.7,12c7.6,3.8,15,7.8,23.8,13.9
						c2.2,1.7,1.3,1.7-0.4,1.1c-1.7-0.5-4.2-1.5-5.2-1.8c4.8,2.6,9.5,5.1,14,7.8c2.3,1.3,4.6,2.6,6.8,3.9c2.3,1.3,4.5,2.6,6.8,3.8
						c4.6,2.4,9,4.9,13.7,6.9c2.3,1,4.6,2,6.9,2.9c2.3,0.9,4.7,1.6,7.1,2.3c-0.2,0.3-2.3-0.1-4.3-0.6c3.6,1.4,8.1,4,8.4,2.2l-3.7-1
						c-2.3-2.4,1.8-2.2,6.5-1.6c4.8,0.5,10.3,1.3,10.8,0.7c-1.9,0.7-1.8,1.5-0.8,2.4c1.1,0.9,3.2,1.9,5.2,2.8c4,1.7,7.5,3.5,1.5,5.2
						c2.6,0.4,5.9,0.5,5.7-0.9c3.5,1.4,4.5,2.5,0.4,2.7c3.4,0.8,5.7,1,7.4,1.1c1.7,0.1,2.8,0,3.9,0c1.1,0,2.1-0.1,3.6,0.1
						c1.5,0.2,3.5,0.6,6.6,1.1c-0.2,0.8-2.8,0.8-4.3,1.5c5.2-0.3,10.3-0.8,17.3,0.4l1,0.1c-0.1,0-0.1,0-0.2,0h-0.1c0,0-0.1,0,0,0
						c0.2,0,0.5,0.1,0.7,0.1c0.5,0.1,1,0.2,1.5,0.2c1,0.2,2.1,0.4,3.2,0.6c-0.7,0.5,0.4,1.3-2.7,0.9c9.1,1,16.8,0.5,24.7,0
						c7.9-0.5,15.9-0.9,25.7,0c-2.9,1.9-1.2,2.3,1.3,2.5c2.5,0.2,5.9,0.4,6.5,2c3.5-0.4,7.1-0.9,10.6-1.3l-4.3-1.5
						c2.3-0.1,4.6-0.3,6.7-0.6c2.2-0.3,4.3-0.7,6.4-1.1c4.2-0.7,8.1-1.5,12.1-1.2l-6.7,2l8.6-1.1c2.9-0.4,5.7-0.9,8.6-1.3l-4.9,0
						l-2.5,0l-2.5-0.1c2.3-0.6,3.3-1.2,3.8-1.8c0.5-0.5,0.4-1,0.4-1.3c0-0.7,0.5-1.2,6.6-1.5c-1.2,0.3,1.1,0.1,4.3-0.2
						c3.2-0.3,7.3-0.5,9.9,0.1c0,0,0,0,0,0c2.2-0.9,4.3-1.9,6.8-2.7c2.5-0.8,5.3-1.3,8.7-1.8c2,0.6-0.6,4,0.7,4.4
						c0.9-1,2.7-1.8,4.9-2.6c1.1-0.4,2.3-0.8,3.6-1.2c1.3-0.4,2.6-0.9,3.9-1.3c2.7-0.9,5.3-1.8,7.6-2.7c1.2-0.5,2.2-1,3.1-1.5
						c0.9-0.5,1.7-1.1,2.2-1.7c-1.6,1.3-1.1,3-0.4,3.1l2.9-3.4c4.3-0.7,5-0.5,4.8,1c3.1-0.9,4.3-1.6,4.6-2.1
						c0.3-0.5-0.3-0.8-0.8-1.1c-1-0.6-1.6-1.1,5.8-2.9c-1.1,0.6-0.4,0.7-2.6,1.9c1.8-0.6,3.6-1.2,5.4-1.8c1.8-0.6,3.5-1.3,5.2-2
						c3.4-1.5,6.7-3,10-4.6c3.3-1.5,6.4-3.2,9.7-4.7c3.2-1.5,6.5-2.9,9.7-4.2c2.6,0.6-0.1,2.2-2.7,3.6c-2.7,1.4-5.3,2.6-2.6,3
						c9.1-4.5,18.1-10,27-15.6c4.5-2.7,8.8-5.6,13.2-8.2c2.2-1.3,4.4-2.6,6.6-3.8c2.2-1.3,4.3-2.5,6.5-3.6l-3.3,1.5
						c0-2.8,3.4-4,7.8-5.5c4.4-1.4,9.6-3.3,13.3-6.8c-1.9,1.5-1.4,3.9-1.1,3.1c3-1.6,5.9-3.3,8.8-5.2c2.9-2,5.9-4.1,9-6.4
						c6.2-4.5,12.9-10,20.9-16.2l-1.4,2.4c3.6-1.7,7.9-4.5,12.4-7.4c2.2-1.5,4.4-2.9,6.5-4.3c2.1-1.4,4.1-2.7,5.9-3.8
						c1.4-2.5,5.4-5.1,2-4.9c3.2-1.2,6.2-2.6,9-4.1c2.8-1.6,5.5-3.3,8-5.1c5.1-3.7,9.8-7.7,14.3-11.8c4.5-4.1,8.9-8.1,13.5-11.8
						c4.6-3.7,9.4-7,14.9-9.4c-2.2,1.7-4.6,4.9-2.8,3.6c5-4.3,9.9-8.8,14.8-13.2c-2.5-0.6-2.8,0.6-7.1,2c1.2-2.5,4.9-6.8,8.7-9.9
						c-6,6.6,2.2,2.5,5.9,1c-0.9-0.1-0.3-1.5-1-1.8c10.3-3.8-1.3-4.3,11.1-11.4l0.1,1.3c1.9-1.9,3.5-3.9,5.2-5.9
						c1.7-2,3.5-3.9,5.8-5.6c3.4,0.3-3.5,4.5-2.5,6.2c6-5.3,9-13.7,16.1-16.6c-2.1,2.8-5.8,5.9-8,8.6c7.8-3,8.1-4.1,12.8-7.6
						l-0.5,0.3l11-8l-3.1,1.7c3.4-11.3,14.4-14.4,21.7-26.5c-7.1,11.6-0.1,3.1,1,5.8c3.1-1.7,7.5-4.7,6.9-3.1c3.2-6,9-6,13.4-14.4
						c0.9,0.4,5-4.6,5.5-2c5.6-6.2-2.5,0.2-2.7-1c3.6-5.5,9.7-10,16.2-15.1c6.4-5.1,13.3-10.9,18.4-18.8c5.1-6.2,7.5-10.3,10-14.3
						c2.4-4,4.8-7.9,9.4-13.6c4.5-2.5-0.6,5.1-0.6,5.1c6.5-4.8,10.6-9.3,15.1-15.3c-0.5,1.6,1,1,3.4,0c4.1-4.5,0.5-5.1,7-10
						c-0.2,1.7-0.3,4-1.6,6.8c4.4-5.7,8.1-11.9,12.6-17.8c2.5-0.4-1.4,4.8-2.5,7.4c5.3-6.4,13.8-16.6,13.8-20.1l-4.3,3.3
						c2-2.3,2.6,0.3,1.4,2.2c-3.5,6.5-7.6,6.9-8.6,6.6l3.2-4.2c-7.4,0.4-14,15.8-21.5,23.2l0.4-5.8c-1.7,3.3-3.5,6.6-5.3,9.9
						c-2.3,1-4.9,0.6-1.7-3.5c-6.6,4.1-3.7,5.7-9.8,8.9c-0.7,0.3-0.6-0.1-0.3-0.6l-4.4,6.1c0.5-1.6-2.7-1,0.8-3.8
						c-10.9,7.9-13.1,17.1-18.7,18.6l0.6-1c-3,3.5-4.5,5.4-5.2,6.5c-0.6,1.1-0.4,1.5,0,1.8c0.8,0.6,2.1,0.9-1.8,6.9l-11.4,1.6
						l0.6,3.2c-1.4,1.2-4.3,3.7-4.5,2.4c-3.8,6.2,1.7,0-0.1,4.1c-8.4,4.5-17.5,18.2-22,16.4c-1,3.8,7.5-4.8,1.3,2.9
						c-5.2-1.6-7.7,8.3-15.3,12.3c0.2-3.5,6.9-8-0.7-3.9c-0.9,6.4-12.6,10.2-17.3,15.5c2,2.7-10.6,11.1-18.7,19.8
						c-0.1-0.6-4.6,2.6-10.2,6.8c-2.8,2.1-5.9,4.4-8.9,6.6c-3,2.2-5.8,4.2-8.1,5.7l-0.1-0.6c0.5,3.9-8.6,10.7-14.6,16.4
						c-1-1.7-0.3-3.3,2.6-6.8l-6,4.9c-0.8,2-2.3,3.9-5.9,7.4l0-3.1c-3.9,3.3-7.6,7.1-11.6,10.9c-4.1,3.8-8.5,7.8-14.3,11.1
						c0.8,2.3,12.3-1.3,2.1,8.4c-1.2-0.7-2.9-2.1-0.3-4.7c-0.9,0.9-2.8,3.4-5.1,4.5l3.2-5.1c-5.4,2.9-1.5,3.3-5.4,6.1
						c-1-1.5-3.6,1.1-3.9-0.4c0.9-0.9,3.8-2,4.9-3.6c-2.3,1.5-4.9,3.1-7.2,4.3c-2.4,1.2-4.5,2-5.8,2.1c1,0.5,1.4,1.9-1.6,4.5
						c-8.2,6.2-4.1,0.4-9.5,3.2c-1.3,2.5-7.4,5.2-6,7.5c-2.5,1.7-3.6,1-5,1.1c-3.6,4.1-20.2,14.4-13.7,13.4l1.2-0.6
						c-0.2,0.2-0.4,0.4-0.6,0.6c0,0,0,0,0,0l0,0c-3.2,3-6.8,5.8-10.5,8.2c-3.8,2.5-7.7,4.8-11.6,7c-3.9,2.3-8,4.3-11.8,6.6
						c-3.9,2.2-7.6,4.6-11.2,7l-0.4-0.8c-2.1,1.5-4.3,3.1-6.6,4.6c-2.3,1.5-4.6,3.1-6.9,4.5c-4.5,2.9-8.7,5.7-11.4,8.4
						c-2.7,1.5-7.1,2-6.5,0.5c-6.6,4.3-6.9,5.8-17.7,9.6c6.3-5-3.1,0,6.7-4.7c-4.7,2-7.8,2.9-10.7,4.3c-1.5,0.7-2.9,1.5-4.5,2.5
						c-1.6,1-3.5,2.3-5.7,4c1.2-1.8-0.9-1.7-3.7-0.7c-1.4,0.5-3,1.2-4.6,1.9c-1.5,0.7-3,1.4-4,2.1l3.6-0.7c1.2-0.2,2.4-0.5,3.6-0.8
						c-2.4,1.4-4.7,2.4-7,3.4c-2.3,1-4.5,1.9-6.8,2.8l1.2-3.8c-2.6,0.6-4.9,1.5-7.3,2.3c-2.3,0.8-4.5,1.8-6.6,2.9
						c-2.1,1-4.1,2.2-6.2,3.2c-2,1.1-4,2.2-5.9,3.2c-1.9,1-3.8,2.1-5.8,3c-1.9,0.9-3.8,1.7-5.8,2.3c-1.9,0.7-3.9,1.2-5.9,1.5
						c-2,0.3-4.1,0.3-6.1,0.1c-2.3,1.8,0.5,1.3,3.3,0.9c2.9-0.4,5.8-0.9,3.9,1c-4.6,1.2-9.7,1.4-13.8,1.4c-4.2-0.1-7.5-0.4-8.9-0.1
						c-3.2,0.4-5.5,0.9-7.3,1.5c-1.8,0.7-3.2,1.5-4.6,2.4c-0.7,0.4-1.4,0.9-2.2,1.3c-0.8,0.4-1.6,0.8-2.6,1.1
						c-2,0.7-4.4,1.2-7.8,1.5c0.9,0.4,1.9,1.2,1.4,2.3c-0.2,0.5-0.9,1.1-2.1,1.7c-1.2,0.6-3,1.2-5.5,1.7c-2.4,0.2-4.4,0.1-5.9-0.2
						c-1.5-0.3-2.6-0.8-3.1-1.3c-1.1-1.1-0.2-2.4,2.7-3.1c2.3-0.3,3.4-0.2,3.3,0.2c3-0.8,7-1.7,3.1-2.4l-1.1,1.2
						c-1.2-0.1-2.9-0.1-4.8-0.1c-1.8,0-3.8,0-5.6,0c-3.5,0-6-0.2-4.6-1.2c-3.5,0.8-4.3,1.2-3.4,1.6c0.4,0.2,1.2,0.3,2.2,0.4
						c1,0.1,2.3,0.1,3.6,0.1c-12.3-0.6-19.1,1.3-31.7,0.4c2,0.6,3.9,1.8,1.9,1.8c-4.6-0.2-7.4-0.4-9.3-0.2c-1.8,0.1-2.7,0.4-3.3,0.8
						c-1.3,0.7-1.9,1.6-8.2,1.7c-7.1-2,2.7-3.7-9.9-3c-7.6-1.6-1.4-2.9,1.7-3.6c-5.3,0.6-10.3,0-14.7-1c-2.2-0.5-4.2-1.1-6.1-1.6
						c-0.9-0.3-1.8-0.5-2.6-0.8c-0.4-0.1-0.8-0.2-1.2-0.4c-0.2-0.1-0.4-0.1-0.6-0.2c-0.8-0.2-1.6-0.2-2.4-0.3l2,0.2
						c-0.5-0.1-0.9-0.3-1.3-0.4l1.4,0.1l-2.1-0.2c0.8,0,1.6,0,2.4,0.1l0.2,0c0,0,0,0,0.1,0h0.1h0.1h0.3l1.1,0l2.2,0
						c-0.8,0-1.6,0-2.3,0c-0.4,0-0.7,0-1.1-0.1l-0.3,0l-0.1,0l-0.4,0c-0.8-0.1-1.5-0.2-2.2-0.2l2.1,0.2c-1.7-0.2-3.2-0.5-4.8-0.8
						l2.9,2.7c-3.4-1-6.3-1.6-6-2.4c-3.8,0.7,2.1,4-5.4,4.5c-2.2-0.9-5.8-1.5-8.9-2.2s-5.8-1.5-6.2-3.1c7,2.2,6.8,1.4,6.3,0.4
						c-0.5-1-1.1-2.3,4.9-1c-2.4-0.2-5.2-0.9-8.5-2.1c-0.4-0.4,0.6-0.5,1.6-0.4c-1.6-0.7-2.9-1.2-4-1.6c-1.1-0.3-1.9-0.6-2.7-0.8
						c-1.4-0.2-2.4,0-3.3,0.3c-0.9,0.3-1.9,0.7-3.6,0.7c-0.8,0-1.8-0.1-3-0.3c-0.6-0.1-1.3-0.2-2-0.4c-0.7-0.2-1.5-0.5-2.3-0.8
						c2.2-0.9-2.2-4-4.4-4.5c5.4,2,1.7,3.5-3.8,2.8c-2.1-1-3.7-1.9-5.1-2.4c-1.4-0.5-2.5-0.8-3.4-1.1c-2-0.4-3.5-0.5-5.7-1.5
						c1.6,0.9,3.3,1.8,4.9,2.7c-1.2,0.4-2.9,0-5-0.6c-2.1-0.7-4.7-1.9-7.8-3.1c0-1.4,5.8,1.8,3.9,0.3c-3.9-0.3-7.4-2.7-10.9-5.6
						c-1.8-1.4-3.6-2.9-5.7-4.2c-2-1.3-4.2-2.6-6.6-3.5c-3.6-3.3,1.1-2.8-2.1-5.5c-5.4-2-7.8-4.2-10.2-6.3c-2.4-2.2-4.8-4.5-10.4-7
						c1.8,3.7,2.6,3.6-5.8,0.7c2.9,1.6,5.9,3.2,8.8,4.8s5.9,3.2,8.8,4.6c-4.2-1.3-8.3-2.8-12.5-4.2c2.5,1.6,5.4,3,8,4.3
						c2.6,1.2,4.9,2.4,6.4,3.5c-6.1-1.7-5.3-1.8-3.8,1.2c-2.7-3.5-6.4-5.3-10.3-7.1c-3.9-1.8-8.1-3.6-11.5-7.1l3.1-4.3
						c-2.7-2.5-5.5-4.4-8.4-6.2c-2.9-1.7-5.9-3.2-9.1-4.8c-6.4-3.1-13.3-6.3-21.1-11.7c1.6,1.3,3.2,2.6,4.8,3.9
						c-3.2,0.4-10.3-5.7-16-8c1.4-1.3-1.7-3.7-3.5-5.9c-0.2,0.7-3.2-1-6.7-2.6c-3.5-1.5-7.3-2.8-8.9-1.6l-3.3-3l-1.7-1.5l-1.7-1.4
						c-6.8-3.7-11.3-4.4-15.8-4.9c-4.5-0.5-8.8-1-15.6-3.8c4.8-0.2-1-3.8,8.8-1.5c-4.6-1.9-8.7-3.8-9.2-2.6
						c-2.3-2.2-13.7-2.5-17.4-5.6c-2.2,0.1-3.5,1.6-8.7-0.2c-0.5-0.5,0.3-0.8,0.3-0.8c-0.3,0.8-8.6-1.5-4.6,1.8
						c-3.2-2.5-7.4-4.3-12-6c-2.3-0.8-4.8-1.5-7.2-2.2c-2.5-0.6-5-1.3-7.5-1.9c-10.1-2.3-20-4.1-26-7.6c-10.7-1.5-23.6-2.8-33.2-4
						c0.7-0.5,0.1-0.9,1.9-0.5c-13.2-3.2-8.8,4-23.7,0.7c-3.8-1.8-1.7-2,0.7-1.9c2.4,0.1,5.1,0.4,2.8-0.4c-0.4-1.5-1.7-2.3-3.7-2.8
						c-2-0.4-4.6-0.4-7.4-0.4c-2.8,0-5.9,0.1-8.9,0c-3-0.1-5.9-0.5-8.5-1.5l2.5-0.2c-7.8-2.3-19.3,1.5-32.1,1.1c0,0,0.6-0.5,0.1-0.9
						c-8.8,3-25.3,4.4-37.5,5.9c3.7-2.5,5.5-1.5,3.1-3.7c-5.5,0.6,1.8,3.6-9.1,4.9c-3.6-1-11.6-1.5-12.9-3.9
						c3.4-0.4,6.9-0.6,10.4-0.9c-5.6-2.8-13.5,1.1-18.9,1.1l0.6-1.5c-7.9,1-11.9,2.4-15.9,3.7c-4.1,1.4-8.2,2.6-16.8,3.5l1.9,0.8
						c-4.4,2.3-6.4,2.1-8.5,1.7c-2-0.3-4.1-0.9-8.5,1.2l-3.4-3.1c-1.5,0.5-3.6,1.1-6,1.9c-2.4,0.8-5.2,1.8-8.1,2.8
						c-2.9,0.9-5.9,2.2-8.9,3.2c-1.5,0.5-2.9,1-4.4,1.5c-1.4,0.5-2.8,1-4.1,1.5c1.3-1,3.1-2.2,5.2-3.2s4.4-2.1,6.8-3.1
						c2.4-1.1,4.9-1.9,7.2-2.8c2.4-0.9,4.6-1.7,6.6-2.5c-1.5,0.3-3.6,0.7-5.9,1.2c-2.3,0.5-4.8,1-7.2,1.8c-4.7,1.5-9.1,2.9-10.4,4.3
						c2.3-1,5.2-2.5,7.8-2.6c-1.7,1.1-3.6,2.2-5.6,3.2c-2,1.1-4.1,2.1-6.4,3.1c-1.2,0.5-2.3,1-3.6,1.5c-1.2,0.5-2.5,1-3.8,1.5
						c-2.6,1-5.3,1.9-8.2,3c-0.1-1.8-2-2.1-5.1-1.6c-1.5,0.2-3.3,0.7-5.3,1.3c-2,0.6-4.1,1.4-6.3,2.1c-8.8,3.1-18.7,7.1-23.8,6.2
						c-18.9,10.4-39.8,14.7-62.9,23.7c10.1,2-6.8,2.7-3.4,7.3c-5.3,2.3-7.4,3-8,2.8l-17.7,2.8c-4.5-0.1,4.8-3,3.9-4
						c-12.1,3.8-5.8-0.4-14.2,1c2.3,1.3-3.2,4.1-10.3,5.7l10.4-0.9c-7.9,4.3-11.9,4.4-15.9,4.6c-4,0.2-8,0.3-16.1,4.5l4.8-3.5
						c-8.4,3.9-32.2,10.8-39.3,17.9c-1.8-0.1-4.3-0.8-0.5-2.5c-21,6.4-44.9,20-62,22.7l1.2-1.8c-3.8,1.6-6,4.6-11.3,4.9
						c0.1-0.6,1.2-1.8-0.7-1.3c-1.9,1.1-9.6,5.6-15,6.5l4-2.9c-20.9,4.9-30.2,13.4-47.1,19.5c-1.1-3.8-17.6-0.2-25.8,1.4l0.1-0.6
						c-12,3.2-21.9,6.7-31.6,10.3c-4.8,1.8-9.6,3.6-14.6,5.4c-5,1.8-10.1,3.5-15.6,5.1c-3.7-0.3-8.5,0-14,0.8
						c-5.5,0.6-11.6,1.7-18.1,2.6c-12.8,1.9-26.7,3.7-37.9,3.2c1.7,0.2,1.6,1,0.6,1.8c-1,0.8-3,1.7-4.9,2c-2.7-0.3-6.2,0.6-9.1,1
						c-2.9,0.3-5,0.3-4.6-1.5l1.9,0.1c-4-3.5-14.5-2.5-22.7-3.5l-1.8,4.6c-2.7-1-5.5-2.1-8.5-2.9c-3-0.7-6.1-1.6-9.2-2.2
						c-6.3-1.3-12.9-2.7-19.1-4.2c-1.6-0.3-3.1-0.8-4.6-1.3c-1.5-0.5-3-0.9-4.4-1.3c-2.8-1-5.5-2.1-7.9-3.1
						c-1.2-0.5-2.3-1.2-3.3-1.8c-1-0.6-2-1.2-2.9-1.8c-0.9-0.6-1.7-1.2-2.3-1.9c-0.7-0.7-1.2-1.4-1.7-2c-2.6-0.7-5.2-1.9-7.8-3.1
						c-1.3-0.7-2.6-1.3-3.9-1.9c-1.3-0.6-2.5-1.2-3.8-1.7l1.7-2c-5.6-4.3-9.6-7.8-13.8-11.6c-4.2-3.8-8.7-8-14.6-14.4l3.7,1.5
						c-3.2-3.7-6.5-4.9-9.9-6.1c-1.7-0.6-3.4-1.2-5-2.2c-1.6-1-3.2-2.2-4.5-4.2c0.5-1.5,1-3,1.6-4.5c-4.9-7.3-8.6-15.4-12.3-23.6
						c-3.7-8.1-7.4-16.3-12.5-23.9c0.6,0,1.8,0.1,3.1,2.8c-1.6-3.9-4.2-11.8-6.8-18.2c-2.6-6.4-5.3-11.2-7.1-8.8
						c1.5-0.7-0.2-5.2-3-10.6c-2.8-5.4-6.8-11.7-9.6-16.1l2.9,0.4c-3.2-3.3-5.1-4.9-7-6.9c-1.8-2.1-3.6-4.6-6.9-9.7
						c-1.1-2.7,0.5-3.2,1.8,0.5c-0.9-2.3-1.7-3.7-2.5-4.8c-0.8-1.1-1.6-1.8-2.4-2.6c-0.8-0.8-1.6-1.6-2.6-2.8
						c-0.5-0.6-1-1.4-1.6-2.3c-0.6-0.9-1.2-2-1.9-3.3c1.3,0.9,2.5,1.8,3.8,2.7c-2.7-4.2-4.3-6-5.7-7.1c-1.4-1.1-2.6-1.7-5.1-3.2
						c-2.4-2.1-5.4-5.7-8-9c-0.6-0.8-1.3-1.6-1.8-2.4c-0.6-0.8-1.1-1.5-1.5-2.2c-0.8-1.4-1.4-2.5-1.3-3.1c-2,0.1-7.4-1.8-12-5.5
						c-0.2-1.1,1.9-0.5,3,0c-0.8-0.7-1.7-1.3-2.5-1.9s-1.6-1.1-2.4-1.6c-1.6-0.9-3.2-1.8-4.7-2.5c-3.1-1.4-6-2.3-8.7-3.1
						c-1.4-0.4-2.7-0.7-4-1.1c-1.3-0.4-2.6-0.8-3.9-1.1c-1.3-0.4-2.5-0.8-3.8-1.3c-0.6-0.2-1.3-0.5-1.9-0.8c-0.6-0.3-1.3-0.5-2-0.9
						c0-0.9-0.7-1.4-1.6-1.9c1.6,0.4,3.3,0.7,4.8,1.2s3,0.9,4.4,1.4c0.7,0.2,1.4,0.4,2,0.6c0.6,0.2,1.3,0.5,1.9,0.7
						c1.2,0.5,2.3,0.9,3.3,1.3c2,0.8,3.5,1.5,4.5,2c1,0.5,1.4,0.7,1.2,0.7c0.5-1-1.8-2.8-3-4.2c-0.6-0.7-1-1.3-0.6-1.7
						c0.4-0.4,1.6-0.7,4-0.5c-0.6-0.1-1.2-0.3-1.8-0.4c-0.6-0.1-1.3-0.2-2-0.3c-1.3-0.2-2.8-0.5-4.2-0.7c-1.5-0.3-3-0.4-4.6-0.6
						c-1.6-0.2-3.1-0.4-4.7-0.6c-1.6-0.2-3.2-0.3-4.8-0.4c-1.6-0.1-3.1-0.4-4.7-0.5c-1.5-0.1-3-0.3-4.5-0.5
						c-0.7-0.1-1.4-0.2-2.1-0.4c-0.7-0.1-1.4-0.3-2-0.4c-0.5-0.3-1-0.5-1.3-0.9l1.1-0.2c-2.5-0.5-4.7-0.4-6.8-0.2
						c-3.4-0.5-5.6-0.8-8.9-0.9c-0.6-1-3.8-1.1-7.5-1c-0.9,0-1.9,0.1-2.9,0.1c-1,0.1-1.9,0.2-2.8,0.3c-1.8,0.2-3.6,0.5-4.9,0.6
						c0.4,1.2-1.2,1.9-2,2.5c-0.4,0.3-0.6,0.6-0.3,0.8c0.3,0.2,1.1,0.5,2.9,0.9c-0.9-0.1,1-0.4,4.5-0.9c0.8-0.2,1.7-0.3,2.3-0.5
						c-0.1,0.1-0.2,0.2-0.4,0.3c0.9-0.1,1.8-0.2,2.8-0.2c1-0.1,2.1-0.1,3.2-0.2c2.2-0.1,4.7-0.3,7.4-0.2c-1.1,0.3-2.1,0.6-3.3,0.8
						c-1.1,0.3-2.2,0.6-3.4,0.7s-2.4,0.3-3.7,0.2c-0.7,0-1.3-0.1-2-0.1c-0.7,0-1.4-0.1-2.2-0.2c-2.6,1.9-5.3,3.9-6.9,4.8
						c-1.9-0.6-4.2-1-6.6-1.3c-1.2-0.2-2.5-0.3-3.7-0.4c-1.2,0-2.5-0.1-3.7-0.1c-2.4-0.1-4.6-0.2-6.4-0.3c-1.8-0.1-3.1-0.3-3.7-0.7
						c-3.9,1.4-8.1,2.8-12.3,4.5c-2.1,0.8-4.2,1.6-6.3,2.5c-2.1,0.9-4.1,1.8-6.1,2.7c-2,0.9-3.9,1.9-5.8,2.8c-1.8,1-3.5,2-5.1,3.1
						c-3.1,2.1-5.8,4-7.5,6.2c-3.8,2.5-5.3,1-7.1,1c2.1-1.5,5-2.8,6-4c-7.8,4.8-23.8,12.4-24,16.4c-10.6,4.3,4.1-5.8-9.2,2.3
						l1.3-1.9c-1.8,0.7-3.6,1.4-5.3,2.1c-1.7,0.8-3.3,1.6-4.8,2.5c-3.1,1.7-6,3.5-8.7,5.5c-2.7,2-5.2,4.1-7.7,6.2
						c-2.4,2.1-4.9,4.2-7.3,6.5c-9.5,8.8-19.3,17.8-34.7,25.3c2.1-1.1,3.2-1.6,3.9-1.5c-4.1,2.6-8.1,5.4-12,8.2
						c-3.9,2.9-7.8,6-11.6,9c-1.9,1.5-3.8,3.1-5.7,4.7c-1.9,1.6-3.7,3.2-5.6,4.8c-3.7,3.2-7.4,6.5-11.1,9.8
						c-14.6,13.2-29.2,26.4-44.6,37.6c-8.5,6.7-8,8.9-11.6,14.7l-3.6-0.4l-5.9,10c-5,6.3-11,10-17.3,14.2c-3.1,2.1-6.3,4.4-9.4,7.2
						c-3.1,2.8-6.1,6.2-8.8,10.6l3.1-0.6c-5.3,4.9-15.3,17.1-15.9,14.8c-0.3,0.8-0.3,3-2.9,4.4l-1.2-0.8l-10.5,14.5
						c-5.1,4.6-5.8,3.3-6.9,2.5c-1.1-0.7-2.7-0.8-9.7,6.5c-4.7,5.8-11.5,18.4-8.9,17c2.1-2.2,5.9-5,7.1-4.2l-4.1,5.5
						c2.2,3.8,1.8,10.5,15.4,0.3l6.1-10.2l4-1.3l-6.6,7.2c5.2-2.8,6.4-6.5,8.2-10.2c1.4,0,3.1-0.6,5-2l5-11c2.1,0.1-1.2,5.9,4.8,1
						c2.3-5.2-6.2,1.2-1-6.1c5.2-2.7,5.2-0.5,8.6-6.3c1.4,0.1,0.9,1.5-0.5,3.8c3.1-5.1,10.4-11.3,10.9-15c2.9-1.2,6.2-4.8,9.1-7.7
						c2.9-2.8,5.5-5,6.7-3.4c0.6-2,5.1-9.4,8.8-13.3c-1.8,5.1,1.8,1.7,6.1-2.4c4.3-4,9.3-8.6,10.1-5.8c1.1-4,5.4-8.9,10.5-14
						c5.1-5.1,10.9-10.4,14.7-15.6c-0.3,0.7-0.8,2.2-1.8,2.8c5.5-4.6,8-5,11.9-7.5c-0.8-1.6,0.7-4.4,2.8-7.6
						c1.1-1.6,2.3-3.2,3.4-4.8c1.1-1.6,2.2-3.1,3-4.5c8.9-3.2-1.3,6.6,2.9,7.3c-2.2-1.8,9.6-12.1,5.8-12c6.5-2.8,5-3,9.6-3
						c-1.9-4.1,4.3-4.6,6.8-10.2c4.4-2.3,5.6-1.9,6.5-1.9c0.9,0,1.7-0.5,5.4-4.3C221.3,315.4,214.9,322.5,214.9,322.5z M432.4,215.2
						C432.4,215.3,432.4,215.3,432.4,215.2c-0.5,0-1-0.1-1.5-0.1c-0.5,0-0.9-0.1-1.4-0.1c-0.8,0-1.6-0.1-2.1-0.1
						c0.5,0,1.1,0.1,1.9,0.1c0.4,0,0.9,0,1.4,0.1C431.2,215.1,431.8,215.2,432.4,215.2z M452,219.9c-1.1-0.5-2.5-0.9-3.9-1.3
						c-0.7-0.2-1.4-0.4-2.2-0.7c-0.4-0.1-0.8-0.2-1.1-0.3c-0.4-0.1-0.8-0.2-1.2-0.3c-0.5-1,0.5-1.8,2.5-1.1
						C444.9,216.4,449.4,218.2,452,219.9z M408.8,196.8c3.6-0.5,4.9-0.1,5.4,0.4c-1.7,0.1-3.7,0.3-6.4,0.6c-0.1,0.1-0.3,0.2-0.4,0.3
						C407.8,197.7,408.2,197.2,408.8,196.8z"/>
					<path class="st1" d="M402.6,200.6c-0.5,0.1-0.8,0.2-1.4,0.3c0.8,0.1,1.5,0.3,2.2,0.4c0.4-0.3,0.8-0.6,1.2-0.9
						C403.9,200.4,403.2,200.5,402.6,200.6z"/>
					<path class="st1" d="M2146.1,326.3l-0.4,0.2c0.4-0.1,0.7-0.2,1-0.2C2146.4,326.3,2146.4,326.3,2146.1,326.3z"/>
					<path class="st1" d="M626.3,450.7l0.3-0.6c-0.7-0.1-1.4-0.2-2-0.4C625.1,450.1,625.7,450.4,626.3,450.7z"/>
					<path class="st1" d="M2245.9,261.9c0.3,0,0.8-0.1,1.6-0.5C2247.4,261.4,2246.7,261.6,2245.9,261.9z"/>
					<path class="st1" d="M2285.5,229.2l6.1-4.1C2288.8,226.8,2286.9,228.1,2285.5,229.2z"/>
					<path class="st1" d="M2315.8,203.9c0.1-0.7-0.1-1-0.2-1.3c0,0,0,0-0.1,0L2315.8,203.9z"/>
					<path class="st1" d="M1754.7,418.6c-0.5-0.2-1-0.4-1.5-0.5C1749.7,417,1752,417.9,1754.7,418.6z"/>
					<path class="st1" d="M1942,430.8c-1.9,0.8-3.8,1.5-5.8,2.1C1939.6,432.6,1942.2,432.2,1942,430.8z"/>
					<path class="st1" d="M1571.5,324.2C1571.6,324.2,1571.6,324.2,1571.5,324.2c-0.4-0.2-0.7-0.3-1.1-0.5L1571.5,324.2z"/>
					<path class="st1" d="M1927.5,434c3.4,0.1,6.2-0.4,8.7-1.2c-1.4,0.1-2.9,0.2-4.4,0.4C1930.4,433.5,1928.9,433.7,1927.5,434z"/>
					<path class="st1" d="M2438.4,84.7l1.4-1.3c-0.1-0.1-0.2-0.3-0.1-0.4L2438.4,84.7z"/>
					<path class="st1" d="M2439.6,82.9l1.2-1.7C2440.2,81.9,2439.6,82.5,2439.6,82.9z"/>
					<path class="st1" d="M2443.4,77.5l-2.6,3.7C2441.9,80.1,2443.2,78.7,2443.4,77.5z"/>
					<path class="st1" d="M2401.3,121.5l0.2,1.1C2401.6,122.2,2401.6,121.9,2401.3,121.5z"/>
					<path class="st1" d="M2390.3,133c2.9-2.5,8.1-5.4,11.4-9.5l-0.2-0.9C2400.8,125.3,2391.8,129.4,2390.3,133z"/>
					<path class="st1" d="M2335,170.9l10.1-8.6c-2.4,0.9-5.5,2-1.3-2.3C2329.8,169.4,2347.9,159.3,2335,170.9z"/>
					<path class="st1" d="M2304,197.7c5-5.1-1-1-1.1-1.7C2300.1,199.7,2299.4,200.6,2304,197.7z"/>
					<path class="st1" d="M2066.6,373.1l-0.5-2.4C2061.5,373.6,2066.5,371.5,2066.6,373.1z"/>
					<polygon class="st1" points="2020.8,408.8 2026.3,407.9 2027.8,404.9 					"/>
					<polygon class="st1" points="1983.8,405.4 1985.9,404.4 1977.7,408 					"/>
					<path class="st1" d="M1522.1,287.4l1.1,3.1c1.9,0.1,3.2-0.5,3.3-1.3C1526.4,288.5,1525.2,287.6,1522.1,287.4z"/>
					<path class="st1" d="M1305,284.4c-2.5-1.1-8.8-1.2-12.3,0.6C1297.6,284.6,1302.6,285.1,1305,284.4z"/>
					<polygon class="st1" points="687.4,446.5 691.6,446.1 687.7,446 685.8,445.9 683.9,445.8 685.6,446.2 					"/>
				</g>
			</g>
		</g>
	</g>
</g>
<g>
	<g>
		<path class="st0" d="M3072.5,1588.4"/>
	</g>
</g>
</svg>
