<?xml version="1.0" encoding="utf-8"?>
<!-- Generator: Adobe Illustrator 16.0.4, SVG Export Plug-In . SVG Version: 6.00 Build 0)  -->
<!DOCTYPE svg PUBLIC "-//W3C//DTD SVG 1.1//EN" "http://www.w3.org/Graphics/SVG/1.1/DTD/svg11.dtd">
<svg version="1.1" id="レイヤー_1" xmlns="http://www.w3.org/2000/svg" xmlns:xlink="http://www.w3.org/1999/xlink" x="0px"
	 y="0px" width="175.117px" height="75.1px" viewBox="0 0 175.117 75.1" enable-background="new 0 0 175.117 75.1"
	 xml:space="preserve">
<g>
	<g>
		<g>
			<g>
				<path fill="#231815" d="M107.877,29.827H85.946c-5.452,0-9.883,4.435-9.883,9.887v14.619c0,5.448,4.431,9.888,9.883,9.888
					h21.931c1.425,0,2.58-1.155,2.58-2.585c0-1.411-1.155-2.571-2.58-2.571H85.946c-2.607,0-4.731-2.123-4.731-4.731V39.714
					c0-2.607,2.124-4.731,4.731-4.731h21.931c1.425,0,2.58-1.15,2.58-2.575S109.302,29.827,107.877,29.827z"/>
				<path fill="#231815" d="M155.004,32.407v29.237c0,1.421,1.155,2.576,2.58,2.576c1.42,0,2.58-1.155,2.58-2.576V32.407
					c0-1.425-1.16-2.58-2.58-2.58C156.159,29.827,155.004,30.982,155.004,32.407z"/>
				<path fill="#231815" d="M125.615,29.827c-5.458,0-9.888,4.435-9.888,9.896l0.009,21.921c0,1.426,1.151,2.576,2.571,2.576
					c1.425,0,2.581-1.155,2.581-2.576c0,0,0-6.078,0-12.043c3.686,0,19.354,0,19.354,0c5.448,0,9.888-4.435,9.888-9.878
					c0-5.462-4.439-9.896-9.888-9.896H125.615z M120.889,39.724c0-2.617,2.123-4.736,4.727-4.736h14.628
					c2.599,0,4.722,2.119,4.722,4.736c0,2.603-2.123,4.722-4.722,4.722c0,0-15.679,0-19.354,0
					C120.889,42.843,120.889,39.724,120.889,39.724z"/>
			</g>
			<g>
				<g>
					<path fill="#C2DA70" d="M3.412,34.864c-0.648,0.352-1.128,0.041-1.064-0.694l0.8-10.144c0.055-0.739,0.543-1.73,1.096-2.215
						L29.233,0v20.816L3.412,34.864z"/>
					<path fill="#C2DA70" d="M29.233,27.461v19.716L2.261,51.968c-0.726,0.132-1.265-0.365-1.205-1.097l0.758-9.704
						c0.06-0.735,0.658-1.585,1.334-1.887L29.233,27.461z"/>
					<path fill="#C2DA70" d="M1.165,65.988c-0.703-0.229-1.22-1.014-1.16-1.745l0.539-6.9c0.055-0.727,0.699-1.375,1.434-1.443
						l27.256-2.534V75.1L1.165,65.988z"/>
				</g>
				<g>
					<path fill="#0097D7" d="M55.056,34.864c0.648,0.352,1.128,0.041,1.068-0.694L55.32,24.026c-0.05-0.739-0.548-1.73-1.101-2.215
						L29.233,0v20.816L55.056,34.864z"/>
					<path fill="#0097D7" d="M29.233,27.461v19.716l26.978,4.791c0.722,0.132,1.265-0.365,1.21-1.097l-0.771-9.704
						c-0.055-0.735-0.653-1.585-1.329-1.887L29.233,27.461z"/>
					<path fill="#0097D7" d="M57.307,65.988c0.694-0.229,1.215-1.014,1.16-1.745l-0.543-6.9c-0.06-0.727-0.699-1.375-1.43-1.443
						l-27.261-2.534V75.1L57.307,65.988z"/>
				</g>
			</g>
			<g>
				<path fill="#231815" d="M171.371,59.8c0.11,0,0.174,0,0.174,0c0.873,0,1.58-0.713,1.58-1.575c0-0.882-0.707-1.581-1.58-1.581
					h-2.338c-0.868,0-1.576,0.699-1.576,1.581v3.498c0,0.229,0.188,0.415,0.411,0.415c0.233,0,0.411-0.187,0.411-0.415
					c0,0,0-0.964,0-1.923h1.754l2.215,2.21c0.16,0.165,0.42,0.165,0.58,0c0.164-0.159,0.164-0.415,0-0.575L171.371,59.8z
					 M168.453,58.978c0-0.251,0-0.753,0-0.753c0-0.416,0.343-0.759,0.754-0.759h2.338c0.42,0,0.754,0.343,0.754,0.759
					c0,0.415-0.334,0.753-0.754,0.753H168.453z"/>
				<path fill="#231815" d="M165.64,59.484c0,2.608,2.129,4.736,4.736,4.736c2.612,0,4.741-2.128,4.741-4.736
					c0-2.616-2.129-4.735-4.741-4.735C167.769,54.749,165.64,56.868,165.64,59.484z M166.284,59.484
					c0-2.265,1.836-4.101,4.092-4.101c2.261,0,4.101,1.836,4.101,4.101c0,2.252-1.84,4.093-4.101,4.093
					C168.12,63.577,166.284,61.736,166.284,59.484z"/>
			</g>
		</g>
	</g>
</g>
</svg>
